<svg width="140" height="80" xmlns="http://www.w3.org/2000/svg" xmlns:svg="http://www.w3.org/2000/svg"><g><title>Layer 1</title><polyline  points="10,70 130,70 " stroke-width="1.5" stroke="#0000ff" fill="none"/><g ><circle  r="5.14286" y="100.71429" x="40" stroke="#000000" fill="none" cy="70.11429" cx="40"/><path  fill="sRgb" stroke-width="1.5" stroke="#000000" d="m37.5,70a2.5,2.5 0 1 1 5,0a2.5,2.5 0 1 1 -5,0"/></g><polyline  points="10,50 130,50 " stroke-width="1.5" stroke="#0000ff" fill="none"/><polyline  points="10,30 130,30 " stroke-width="1.5" stroke="#0000ff" fill="none"/><polyline  points="10,10 130,10 " stroke-width="1.5" stroke="#0000ff" fill="none"/><path  d="m100,70q6,-20.71429 -10,-30" stroke="#ff0000" fill="none"/><path  d="m90,40l6.52839,1.35078l-5.41899,-0.61118l2.64839,4.76707l-3.75779,-5.50667" stroke="#ff0000" fill="none"/><text fill="#ff0000" font-size="14" text-anchor="middle" font-family="serif" stroke="null"  y="47.97143" x="105.85714">Î¸</text><text transform="matrix(1,0,0,1,0,0) " fill="#000000" font-size="14" text-anchor="middle" font-family="serif" stroke="null"  y="22.42857" x="126">ğ’±</text><text transform="matrix(1,0,0,1,0,0) " fill="#0000ff" font-size="14" text-anchor="middle" font-family="serif" stroke="null"  y="23.57143" x="43.71429">B</text><path  d="m40,70l80,-50l-5.87709,8.09072l4.1811,-7.03072l-8.15192,0.67741l9.84791,-1.73741" stroke-width="1.5" stroke="#000000" fill="none"/></g></svg>