<svg width="320" height="140" xmlns="http://www.w3.org/2000/svg" xmlns:svg="http://www.w3.org/2000/svg"><g><title>Layer 1</title><path  d="m50,40l4,0a4.8,6 0 1 1 8,6a6,6 0 1 1 8,0a6,6 0 1 1 8,0a4.8,6 0 1 1 8,-6l4,0m0,-10m0,20" fill="none" stroke="#880000" stroke-width="1.5"/><polyline  fill="none" stroke="#000000" stroke-width="1.5" points="50,40 30,40 30,40 30,90 "/><polyline  fill="none" stroke="#000000" stroke-width="1.5" points="90,40 110,40 110,40 110,90 "/><circle  r="4" cx="30" cy="90" fill="#ffffff" stroke="#000000"/><circle  r="4" cx="110" cy="90" fill="#ffffff" stroke="#000000"/><text x="30" y="108"  stroke="null" font-family="serif" text-anchor="middle" font-size="11pt" fill="#000000">a</text><text x="111" y="109"  stroke="null" font-family="serif" text-anchor="middle" font-size="11pt" fill="#000000">b</text><path  d="m18,63l0,-20l-4,10l4,-5l4,5l-4,-10" fill="#ff0000" stroke="#ff0000" stroke-width="1.5"/><text x="16" y="80"  stroke="null" font-family="serif" text-anchor="middle" font-size="11pt" fill="#000000">i(t)</text><g ><text text-anchor="middle" font-family="serif" stroke="null"  y="93" x="63"><tspan fill="#000000" font-size="11pt" >v</tspan><tspan dx="0" fill="#000000" font-size="10pt" dy="2" >ab</tspan></text><text fill="#000000" font-size="11pt" text-anchor="middle" font-family="serif" stroke="null"  y="95" x="81">(t)</text></g><polyline points="37.14285659790039,90.28571319580078 47.14285659790039,90.28571319580078 42.14285659790039,90.28571319580078 42.14285659790039,85.28571319580078 42.14285659790039,95.28571319580078 " stroke-width="1.5" stroke="#FF0000" fill="none" /><polyline points="92.57142639160156,90.85713958740234 102.57142639160156,90.85713958740234 " stroke-width="1.5" stroke="#FF0000" fill="none" /><text fill="#000000" font-size="11pt" text-anchor="middle" font-family="serif" stroke="null"  y="28" x="71">L=1mH</text><line  y2="110" x2="150" y1="60" x1="190" stroke-linecap="null" stroke-linejoin="null" stroke-dasharray="null" stroke-width="1.5" stroke="#000000" fill="none"/><line  y2="110" x2="250" y1="60" x1="230" stroke-linecap="null" stroke-linejoin="null" stroke-dasharray="null" stroke-width="1.5" stroke="#000000" fill="none"/><line  y2="60" x2="230" y1="60" x1="190" stroke-linecap="null" stroke-linejoin="null" stroke-dasharray="null" stroke-width="1.5" stroke="#000000" fill="none"/><text fill="#000000" font-size="11pt" text-anchor="middle" font-family="serif" stroke="null"  y="65" x="137">5A</text><text fill="#000000" font-size="11pt" text-anchor="middle" font-family="serif" stroke="null"  y="123" x="143">0</text><text fill="#000000" font-size="11pt" text-anchor="middle" font-family="serif" stroke="null"  y="125" x="190">4</text><text fill="#000000" font-size="11pt" text-anchor="middle" font-family="serif" stroke="null"  y="125" x="230">8</text><text fill="#000000" font-size="11pt" text-anchor="middle" font-family="serif" stroke="null"  y="124" x="250">10</text><text fill="#000000" font-size="11pt" text-anchor="middle" font-family="serif" stroke="null"  y="22" x="150">i(t)</text><text fill="#000000" font-size="11pt" text-anchor="middle" font-family="serif" stroke="null"  y="114" x="292">t(sec)</text><polyline  fill="none" stroke="#000000" stroke-width="1.5" points="140,110 270,110 "/><path  d="m250,110l20,0l-10,-4l5,4l-5,4l10,-4" fill="#000000" stroke="#000000" stroke-width="1.5"/><path  d="m150,50l0,-20l-4,10l4,-5l4,5l-4,-10" fill="#000000" stroke="#000000" stroke-width="1.5"/><polyline  fill="none" stroke="#000000" stroke-width="1.5" points="150,120 150,40 "/><polyline points="190,110 190,60 " stroke-dasharray="3,3" stroke="#000000" fill="none" /><polyline points="230,110 230,60 " stroke-dasharray="3,3" stroke="#000000" fill="none" /><polyline points="150,60 190,60 " stroke-dasharray="3,3" stroke="#000000" fill="none" /></g></svg>