<svg width="210" height="110" xmlns="http://www.w3.org/2000/svg" xmlns:svg="http://www.w3.org/2000/svg"><g class="layer"><title>Layer 1</title><g ><path stroke-width="1.5" stroke="#000000"  fill="none" d="m94.92592,28.06667l-6.0263,-2.53707l8.10519,5.33881l-1.87136,-9.4947l0.41618,8.52586"/><path transform="rotate(62.300498962402344 87.9669952392578,23.90000152587891) " stroke-width="1.5" stroke-linejoin="null" stroke-linecap="null" stroke-dasharray="null" stroke="#000000"  fill="none" d="m81.05,28.23333c2.66666,-4 5.66666,-7.5 13.83333,-8.66667"/></g><g ><path transform="rotate(-18.18790054321289 63.296302795410156,25.60330200195314) " stroke-width="1.5" stroke="#000000"  fill="none" d="m58.4,29.73333l5.63669,-8.26001l-5.33881,8.10519l9.4947,-1.87136l-8.52586,0.41618"/><path stroke-width="1.5" stroke-linejoin="null" stroke-linecap="null" stroke-dasharray="null" stroke="#000000"  fill="none" d="m61.90001,28.23333c2.66666,-4 5.66666,-7.5 13.83333,-8.66667"/></g><g ><path transform="rotate(146.85000610351562 167.49600219726562,57.77909851074219) " stroke-width="1.5" stroke="#000000"  fill="none" d="m162.59938,61.90908l5.63669,-8.26001l-5.33881,8.10519l9.4947,-1.87136l-8.52586,0.41618"/><path transform="rotate(165.03799438476562 162.60299682617185,60.84980010986326) " stroke-width="1.5" stroke-linejoin="null" stroke-linecap="null" stroke-dasharray="null" stroke="#000000"  fill="none" d="m155.68585,65.1831c2.66666,-4 5.66666,-7.5 13.83333,-8.66667"/></g><g ><path transform="rotate(-165.96400451660156 53.56500244140626,57.50980377197265) " stroke-width="1.5" stroke="#000000"  fill="none" d="m55.53896,59.4554l-6.0263,-2.53707l8.10519,5.33881l-1.87136,-9.4947l0.41618,8.52586"/><path transform="rotate(-103.66400146484375 57.863998413085945,60.87460327148438) " stroke-width="1.5" stroke-linejoin="null" stroke-linecap="null" stroke-dasharray="null" stroke="#000000"  fill="none" d="m50.94692,65.20795c2.66666,-4 5.66666,-7.5 13.83333,-8.66667"/></g><g ><path stroke-width="1.5" stroke="#000000"  fill="none" d="m158.92592,28.06667l-6.0263,-2.53707l8.10519,5.33881l-1.87136,-9.4947l0.41618,8.52586"/><path transform="rotate(62.300498962402344 151.9669952392578,23.900001525878903) " stroke-width="1.5" stroke-linejoin="null" stroke-linecap="null" stroke-dasharray="null" stroke="#000000"  fill="none" d="m145.05,28.23333c2.66666,-4 5.66666,-7.5 13.83333,-8.66667"/></g><g ><path transform="rotate(-18.18790054321289 121.29630279541016,25.603302001953146) " stroke-width="1.5" stroke="#000000"  fill="none" d="m116.4,29.73333l5.63669,-8.26001l-5.33881,8.10519l9.4947,-1.87136l-8.52586,0.41618"/><path stroke-width="1.5" stroke-linejoin="null" stroke-linecap="null" stroke-dasharray="null" stroke="#000000"  fill="none" d="m119.90001,28.23333c2.66666,-4 5.66666,-7.5 13.83333,-8.66667"/></g><path  stroke-width="1.5" stroke="#880000" fill="none" d="m30,40l4,0a4.8,6 0 1 1 8,6a6,6 0 1 1 8,0a6,6 0 1 1 8,0a4.8,6 0 1 1 8,-6l4,0m0,-10m0,20"/><path  stroke-width="1.5" stroke="#880000" fill="none" d="m90,40l4,0a4.8,6 0 1 1 8,6a6,6 0 1 1 8,0a6,6 0 1 1 8,0a4.8,6 0 1 1 8,-6l4,0m0,-10m0,20"/><path  stroke-width="1.5" stroke="#880000" fill="none" d="m150,40l4,0a4.8,6 0 1 1 8,6a6,6 0 1 1 8,0a6,6 0 1 1 8,0a4.8,6 0 1 1 8,-6l4,0m0,-10m0,20"/><path  fill="#ff0000" stroke-width="1.5" stroke="#ff0000" d="m27.21428,30a2.5,2.5 0 1 1 5,0a2.5,2.5 0 1 1 -5,0"/><path  fill="#ff0000" stroke-width="1.5" stroke="#ff0000" d="m127.21428,30a2.5,2.5 0 1 1 5,0a2.5,2.5 0 1 1 -5,0"/><path  fill="#ff0000" stroke-width="1.5" stroke="#ff0000" d="m148.07143,30a2.5,2.5 0 1 1 5,0a2.5,2.5 0 1 1 -5,0"/><polyline  points="70,40 90,40 " stroke-width="1.5" stroke="#000000" fill="none"/><polyline  points="130,40 150,40 " stroke-width="1.5" stroke="#000000" fill="none"/><polyline  points="190,40 200,40 200,40 200,90 " stroke-width="1.5" stroke="#000000" fill="none"/><polyline  points="200,90 10,90 " stroke-width="1.5" stroke="#000000" fill="none"/><polyline  points="30,40 10,40 " stroke-width="1.5" stroke="#000000" fill="none"/><path  fill="#ffffff" stroke-width="1.5" stroke="#000000" d="m6,40a4,4 0 1 1 8,0a4,4 0 1 1 -8,0"/><path  fill="#ffffff" stroke-width="1.5" stroke="#000000" d="m6,90a4,4 0 1 1 8,0a4,4 0 1 1 -8,0"/><text text-anchor="middle" font-family="serif" stroke="null"  y="15.14286" x="78"><tspan fill="#0000ff" font-size="14" >M</tspan><tspan fill="#0000ff" font-size="12" dy="2" >12</tspan></text><text text-anchor="middle" font-family="serif" stroke="null"  y="15.71429" x="140.57143"><tspan fill="#0000ff" font-size="14" >M</tspan><tspan fill="#0000ff" font-size="12" dy="2" >23</tspan></text><text text-anchor="middle" font-family="serif" stroke="null"  y="72.57143" x="114"><tspan fill="#0000ff" font-size="14" >M</tspan><tspan fill="#0000ff" font-size="12" dy="2" >13</tspan></text><text text-anchor="middle" font-family="serif" stroke="null"  y="30.28571" x="49.42857"><tspan fill="#0000ff" font-size="14" >L</tspan><tspan fill="#0000ff" font-size="12" dy="2" >1</tspan></text><text text-anchor="middle" font-family="serif" stroke="null"  y="30.85714" x="107.71429"><tspan transform="matrix(1,0,0,1,0,0) " fill="#0000ff" font-size="14" >L</tspan><tspan transform="matrix(1,0,0,1,0,0) " fill="#0000ff" font-size="12" dy="2" >2</tspan></text><text text-anchor="middle" font-family="serif" stroke="null"  y="30.85714" x="172.28571"><tspan fill="#0000ff" font-size="14" >L</tspan><tspan fill="#0000ff" font-size="12" dy="2" >3</tspan></text></g></svg>