<svg width="180" height="70" xmlns="http://www.w3.org/2000/svg" xmlns:svg="http://www.w3.org/2000/svg"><g class="layer"><title>Layer 1</title><g ><path stroke-width="1.5" stroke="#000000"  fill="none" d="m135.12592,24.66667l-6.0263,-2.53707l8.10519,5.33881l-1.87136,-9.4947l0.41618,8.52586"/><path transform="rotate(62.300498962402344 128.16670227050778,20.500000000000007) " stroke-width="1.5" stroke-linejoin="null" stroke-linecap="null" stroke-dasharray="null" stroke="#000000"  fill="none" d="m121.25,24.83333c2.66666,-4 5.66666,-7.5 13.83333,-8.66667"/></g><g ><path transform="rotate(-18.18790054321289 45.89630126953124,23.203300476074222) " stroke-width="1.5" stroke="#000000"  fill="none" d="m41,27.33333l5.63669,-8.26001l-5.33881,8.10519l9.4947,-1.87136l-8.52586,0.41618"/><path stroke-width="1.5" stroke-linejoin="null" stroke-linecap="null" stroke-dasharray="null" stroke="#000000"  fill="none" d="m44.50001,25.83333c2.66666,-4 5.66666,-7.5 13.83333,-8.66667"/></g><path  stroke-width="1.5" stroke="#880000" fill="none" d="m40,40l4,0a4.8,6 0 1 1 8,6a6,6 0 1 1 8,0a6,6 0 1 1 8,0a4.8,6 0 1 1 8,-6l4,0m0,-10m0,20"/><path  stroke-width="1.5" stroke="#880000" fill="none" d="m100,40l4,0a4.8,6 0 1 1 8,6a6,6 0 1 1 8,0a6,6 0 1 1 8,0a4.8,6 0 1 1 8,-6l4,0m0,-10m0,20"/><polyline  points="80,40 100,40 " stroke-width="1.5" stroke="#000000" fill="none"/><polyline  points="40,40 20,40 " stroke-width="1.5" stroke="#000000" fill="none"/><polyline  points="140,40 160,40 " stroke-width="1.5" stroke="#000000" fill="none"/><path  fill="#ffffff" stroke-width="1.5" stroke="#000000" d="m16,40a4,4 0 1 1 8,0a4,4 0 1 1 -8,0"/><path  fill="#ffffff" stroke-width="1.5" stroke="#000000" d="m156,40a4,4 0 1 1 8,0a4,4 0 1 1 -8,0"/><path  fill="#ff0000" stroke-width="1.5" stroke="#ff0000" d="m35.5,34a2.5,2.5 0 1 1 5,0a2.5,2.5 0 1 1 -5,0"/><path  fill="#ff0000" stroke-width="1.5" stroke="#ff0000" d="m139.5,34a2.5,2.5 0 1 1 5,0a2.5,2.5 0 1 1 -5,0"/><text fill="#0000ff" font-size="14" text-anchor="middle" font-family="serif" stroke="null"  y="21" x="91">2H</text><text fill="#0000ff" font-size="14" text-anchor="middle" font-family="serif" stroke="null"  y="62" x="57">6H</text><text fill="#0000ff" font-size="14" text-anchor="middle" font-family="serif" stroke="null"  y="61" x="118">3H</text><text fill="#0000ff" font-size="14" text-anchor="middle" font-family="serif" stroke="null"  y="42" x="8">a</text><text fill="#0000ff" font-size="14" text-anchor="middle" font-family="serif" stroke="null"  y="44" x="170">b</text></g></svg>