<svg width="150" height="130" xmlns="http://www.w3.org/2000/svg" xmlns:svg="http://www.w3.org/2000/svg"><g class="layer"><title>Layer 1</title><g ><polyline  points="120,50 120,20 120,20 30,20 " stroke-width="1.5" stroke="#000000" fill="none"/><g ><path stroke-width="1.5" stroke="#000000"  fill="none" d="m114.12592,43.66667l-6.0263,-2.53707l8.10519,5.33881l-1.87136,-9.4947l0.41618,8.52586"/><path transform="rotate(62.300498962402344 107.16670227050781,39.5) " stroke-width="1.5" stroke-linejoin="null" stroke-linecap="null" stroke-dasharray="null" stroke="#000000"  fill="none" d="m100.25,43.83333c2.66666,-4 5.66666,-7.5 13.83333,-8.66667"/></g><g ><path transform="rotate(-18.18790054321289 73.89630126953122,41.20330047607418) " stroke-width="1.5" stroke="#000000"  fill="none" d="m69,45.33333l5.63669,-8.26001l-5.33881,8.10519l9.4947,-1.87136l-8.52586,0.41618"/><path stroke-width="1.5" stroke-linejoin="null" stroke-linecap="null" stroke-dasharray="null" stroke="#000000"  fill="none" d="m72.50001,43.83333c2.66666,-4 5.66666,-7.5 13.83333,-8.66667"/></g><path  fill="#ff0000" stroke-width="1.5" stroke="#ff0000" d="m64.5,50a2.5,2.5 0 1 1 5,0a2.5,2.5 0 1 1 -5,0"/><path  fill="#ff0000" stroke-width="1.5" stroke="#ff0000" d="m124.5,50a2.5,2.5 0 1 1 5,0a2.5,2.5 0 1 1 -5,0"/><text fill="#0000ff" font-size="14" text-anchor="middle" font-family="serif" stroke="null"  y="23" x="17">a</text><text fill="#0000ff" font-size="14" text-anchor="middle" font-family="serif" stroke="null"  y="113" x="17">b</text><path  stroke-width="1.5" stroke="#880000" fill="none" d="m60,50l0,4a6,4.8 0 1 1 -6,8a6,6 0 1 1 0,8a6,6 0 1 1 0,8a6,4.8 0 1 1 6,8l0,4m10,0m-20,0"/><path  stroke-width="1.5" stroke="#880000" fill="none" d="m120,50l0,4a6,4.8 0 1 1 -6,8a6,6 0 1 1 0,8a6,6 0 1 1 0,8a6,4.8 0 1 1 6,8l0,4m10,0m-20,0"/><text text-anchor="middle" font-family="serif" stroke="null"  y="74.26563" x="76"><tspan fill="#0000ff" font-size="14" >L</tspan><tspan fill="#0000ff" font-size="12" dy="2" >1</tspan></text><text text-anchor="middle" font-family="serif" stroke="null"  y="74.26563" x="135"><tspan fill="#0000ff" font-size="14" >L</tspan><tspan fill="#0000ff" font-size="12" dy="2" >2</tspan></text><text fill="#0000ff" font-size="14" text-anchor="middle" font-family="serif" stroke="null"  y="33.26563" x="93">M</text><polyline  points="60,90 60,110 " stroke-width="1.5" stroke="#000000" fill="none"/><polyline  points="120,90 120,110 120,110 30,110 " stroke-width="1.5" stroke="#000000" fill="none"/><path  fill="#ffffff" stroke-width="1.5" stroke="#000000" d="m26,20a4,4 0 1 1 8,0a4,4 0 1 1 -8,0"/><path  fill="#ffffff" stroke-width="1.5" stroke="#000000" d="m26,110a4,4 0 1 1 8,0a4,4 0 1 1 -8,0"/><path  fill="sRgb" stroke-width="1.5" stroke="#000000" d="m57,20a3,3 0 1 1 6,0a3,3 0 1 1 -6,0"/><path  fill="sRgb" stroke-width="1.5" stroke="#000000" d="m57,110a3,3 0 1 1 6,0a3,3 0 1 1 -6,0"/><polyline  points="60,50 60,20 " stroke-width="1.5" stroke="#000000" fill="none"/></g></g></svg>