<svg width="300" height="100" xmlns="http://www.w3.org/2000/svg" xmlns:svg="http://www.w3.org/2000/svg"><g><title>Layer 1</title><polyline points="30,50 30,20 30,20 150,20 " stroke-width="1.5" stroke="#000000" fill="none" /><text xml:space="preserve" text-anchor="middle" font-family="serif" font-size="11pt"  y="40" x="60" stroke-width="0" stroke="#000000" fill="#000000">6mH</text><path stroke-width="1.5" stroke="#880000" fill="none" d="m40,50l4,0a5,6 0 1 1 8,6a6,6 0 1 1 8,0a6,6 0 1 1 8,0a5,6 0 1 1 8,-6l4,0" /><polyline stroke-width="1.5" fill="none" points="40,50 60,40 80,50 60,60 " /><path stroke-width="1.5" stroke="#880000" fill="none" d="m100,50l4,0a5,6 0 1 1 8,6a6,6 0 1 1 8,0a6,6 0 1 1 8,0a5,6 0 1 1 8,-6l4,0" /><polyline stroke-width="1.5" fill="none" points="100,50 120,40 140,50 120,60 " /><path stroke-width="1.5" stroke="#880000" fill="none" d="m160,50l4,0a5,6 0 1 1 8,6a6,6 0 1 1 8,0a6,6 0 1 1 8,0a5,6 0 1 1 8,-6l4,0" /><polyline stroke-width="1.5" fill="none" points="160,50 180,40 200,50 180,60 " /><path stroke-width="1.5" stroke="#880000" fill="none" d="m220,50l4,0a5,6 0 1 1 8,6a6,6 0 1 1 8,0a6,6 0 1 1 8,0a5,6 0 1 1 8,-6l4,0" /><polyline stroke-width="1.5" fill="none" points="220,50 240,40 260,50 240,60 " /><text xml:space="preserve" text-anchor="middle" font-family="serif" font-size="11pt"  y="40" x="120" stroke-width="0" stroke="#000000" fill="#000000">6mH</text><text xml:space="preserve" text-anchor="middle" font-family="serif" font-size="11pt"  y="40" x="180" stroke-width="0" stroke="#000000" fill="#000000">6mH</text><text xml:space="preserve" text-anchor="middle" font-family="serif" font-size="11pt"  y="40" x="240" stroke-width="0" stroke="#000000" fill="#000000">9mH</text><polyline points="80,50 100,50 " stroke-width="1.5" stroke="#000000" fill="none" /><polyline points="140,50 160,50 " stroke-width="1.5" stroke="#000000" fill="none" /><polyline points="200,50 220,50 " stroke-width="1.5" stroke="#000000" fill="none" /><polyline points="260,50 280,50 " stroke-width="1.5" stroke="#000000" fill="none" /><polyline points="40,50 20,50 " stroke-width="1.5" stroke="#000000" fill="none" /><text xml:space="preserve" text-anchor="middle" font-family="serif" font-size="11pt"  y="40" x="10" stroke-width="0" stroke="#000000" fill="#000000">a</text><text xml:space="preserve" text-anchor="middle" font-family="serif" font-size="11pt"  y="40" x="280" stroke-width="0" stroke="#000000" fill="#000000">b</text><polyline points="150,50 150,20 " stroke-width="1.5" stroke="#000000" fill="none" /><polyline points="90,50 90,80 90,80 210,80 " stroke-width="1.5" stroke="#000000" fill="none" /><polyline points="210,50 210,80 " stroke-width="1.5" stroke="#000000" fill="none" /><circle stroke="#000000" fill="#000000" cy="50" cx="30" r="3" /><circle stroke="#000000" fill="#000000" cy="50" cx="90" r="3" /><circle stroke="#000000" fill="#000000" cy="50" cx="150" r="3" /><circle stroke="#000000" fill="#000000" cy="50" cx="210" r="3" /><g ><circle stroke-width="1.5" stroke="#000000" fill="#ffffff" cy="50" cx="20" r="4" /></g><g ><circle stroke-width="1.5" stroke="#000000" fill="#ffffff" cy="50" cx="280" r="4" /></g></g></svg>