<svg width="190" height="100" xmlns="http://www.w3.org/2000/svg" xmlns:svg="http://www.w3.org/2000/svg"><g class="layer"><title>Layer 1</title><g ><path transform="rotate(146.85000610351562 107.49600219726562,50.77909851074219) " stroke-width="1.5" stroke="#000000"  fill="none" d="m102.59938,54.90908l5.63669,-8.26001l-5.33881,8.10519l9.4947,-1.87136l-8.52586,0.41618"/><path transform="rotate(165.03799438476562 102.60299682617186,53.849800109863274) " stroke-width="1.5" stroke-linejoin="null" stroke-linecap="null" stroke-dasharray="null" stroke="#000000"  fill="none" d="m95.68585,58.1831c2.66666,-4 5.66666,-7.5 13.83333,-8.66667"/></g><g ><path transform="rotate(-165.96400451660156 54.56500244140626,50.509803771972656) " stroke-width="1.5" stroke="#000000"  fill="none" d="m56.53896,52.4554l-6.0263,-2.53707l8.10519,5.33881l-1.87136,-9.4947l0.41618,8.52586"/><path transform="rotate(-103.66400146484375 58.863998413085945,53.874603271484375) " stroke-width="1.5" stroke-linejoin="null" stroke-linecap="null" stroke-dasharray="null" stroke="#000000"  fill="none" d="m51.94692,58.20795c2.66666,-4 5.66666,-7.5 13.83333,-8.66667"/></g><path  stroke-width="1.5" stroke="#880000" fill="none" d="m50,30l4,0a4.8,6 0 1 1 8,6a6,6 0 1 1 8,0a6,6 0 1 1 8,0a4.8,6 0 1 1 8,-6l4,0m0,-10m0,20"/><path  stroke-width="1.5" stroke="#880000" fill="none" d="m110,30l4,0a4.8,6 0 1 1 8,6a6,6 0 1 1 8,0a6,6 0 1 1 8,0a4.8,6 0 1 1 8,-6l4,0m0,-10m0,20"/><polyline  points="90,30 110,30 " stroke-width="1.5" stroke="#000000" fill="none"/><path  fill="#ff0000" stroke-width="1.5" stroke="#ff0000" d="m47.5,37a2.5,2.5 0 1 1 5,0a2.5,2.5 0 1 1 -5,0"/><path  fill="#ff0000" stroke-width="1.5" stroke="#ff0000" d="m108.5,37a2.5,2.5 0 1 1 5,0a2.5,2.5 0 1 1 -5,0"/><text fill="#0000ff" font-size="14" text-anchor="middle" font-family="serif" stroke="null"  y="72.5" x="80.5">0.01H</text><text fill="#0000ff" font-size="14" text-anchor="middle" font-family="serif" stroke="null"  y="22" x="71">0.02H</text><text fill="#0000ff" font-size="14" text-anchor="middle" font-family="serif" stroke="null"  y="22" x="129.5">0.02H</text><polyline  points="50,30 20,30 " stroke-width="1.5" stroke="#000000" fill="none"/><polyline  points="150,30 170,30 170,30 170,80 " stroke-width="1.5" stroke="#000000" fill="none"/><polyline  points="170,80 20,80 " stroke-width="1.5" stroke="#000000" fill="none"/><path  fill="#ff0000" stroke-width="1.5" stroke="#ff0000" d="m170,40l0,20l4,-10l-4,5l-4,-5l4,10"/><text fill="#0000ff" font-size="14" text-anchor="middle" font-family="serif" stroke="null"  y="55" x="180">I</text><path  fill="#ffffff" stroke-width="1.5" stroke="#000000" d="m16,30a4,4 0 1 1 8,0a4,4 0 1 1 -8,0"/><path  fill="#ffffff" stroke-width="1.5" stroke="#000000" d="m16,80a4,4 0 1 1 8,0a4,4 0 1 1 -8,0"/></g></svg>