<svg width="232" height="137" xmlns="http://www.w3.org/2000/svg" xmlns:svg="http://www.w3.org/2000/svg"><g><title>Layer 1</title><g ><rect  height="30" width="200" y="40" x="10" stroke="#000000" fill="none"/><g ><path  d="m19.8,40c-0.2,-6.4 8.9,-6.4 8.8,0" stroke-width="1.5" stroke="#7f0000" fill="none"/><g ><path  d="m33.79757,70.00001c0.2,6.4 -8.9,6.4 -8.8,0" stroke-width="1.5" stroke="#7f0000" fill="none"/><path  d="m33.8,40c-0.2,-6.4 8.9,-6.4 8.8,0" stroke-width="1.5" stroke="#7f0000" fill="none"/><polyline  points="33.80039978027344,40 33.80039978027344,70 " stroke-width="1.5" stroke="#7f0000" fill="none"/></g><g ><path  d="m47.39757,70.00001c0.2,6.4 -8.9,6.4 -8.8,0" stroke-width="1.5" stroke="#7f0000" fill="none"/><path  d="m47.4,40c-0.2,-6.4 8.9,-6.4 8.8,0" stroke-width="1.5" stroke="#7f0000" fill="none"/><polyline  points="47.40019226074219,40 47.40019226074219,70 " stroke-width="1.5" stroke="#7f0000" fill="none"/></g><g ><path  d="m60.79757,70.00001c0.2,6.4 -8.9,6.4 -8.8,0" stroke-width="1.5" stroke="#7f0000" fill="none"/><path  d="m60.8,40c-0.2,-6.4 8.9,-6.4 8.8,0" stroke-width="1.5" stroke="#7f0000" fill="none"/><polyline  points="60.79998779296875,40 60.79998779296875,70 " stroke-width="1.5" stroke="#7f0000" fill="none"/></g></g><g ><path  d="m150.2,40c-0.2,-6.4 8.9,-6.4 8.8,0" stroke-width="1.5" stroke="#7f0000" fill="none"/><g ><path  d="m164.19757,70.00001c0.2,6.4 -8.9,6.4 -8.8,0" stroke-width="1.5" stroke="#7f0000" fill="none"/><path  d="m164.2,40c-0.2,-6.4 8.9,-6.4 8.8,0" stroke-width="1.5" stroke="#7f0000" fill="none"/><polyline  points="164.2003936767578,40 164.2003936767578,70 " stroke-width="1.5" stroke="#7f0000" fill="none"/></g><g ><path  d="m177.79757,70.00001c0.2,6.4 -8.9,6.4 -8.8,0" stroke-width="1.5" stroke="#7f0000" fill="none"/><path  d="m177.8,40c-0.2,-6.4 8.9,-6.4 8.8,0" stroke-width="1.5" stroke="#7f0000" fill="none"/><polyline  points="177.80020141601562,40 177.80020141601562,70 " stroke-width="1.5" stroke="#7f0000" fill="none"/></g><g ><path d="m191.19757,70.00001c0.2,6.4 -8.9,6.4 -8.8,0" stroke-width="1.5" stroke="#7f0000" fill="none" /><path d="m191.2,40c-0.2,-6.4 8.9,-6.4 8.8,0" stroke-width="1.5" stroke="#7f0000" fill="none" /><polyline points="191.20001220703125,40 191.20001220703125,70 " stroke-width="1.5" stroke="#7f0000" fill="none" /></g><polyline  points="150.1999969482422,40 150.1999969482422,70 " stroke-width="1.5" stroke="#7f0000" fill="none"/></g><g ><path  d="m100.99758,70.00002c0.2,6.4 -8.9,6.4 -8.8,0" stroke-width="1.5" stroke="#7f0000" fill="none"/><polyline  points="92.197998046875,70.00001525878906 92.197998046875,40.00001525878906 " stroke-width="1.5" stroke="#7f0000" fill="none"/><path d="m83.4,40c-0.2,-6.4 8.9,-6.4 8.8,0" stroke-width="1.5" stroke="#7f0000" fill="none" /><path  d="m125.60001,40.00001c-0.2,-6.4 8.9,-6.4 8.8,0" stroke-width="1.5" stroke="#7f0000" fill="none"/><polyline points="134.39886474609375,40 134.39886474609375,70 " stroke-width="1.5" stroke="#7f0000" fill="none" /><g ><path  d="m97.20001,40.00001c-0.2,-6.4 8.9,-6.4 8.8,0" stroke-width="1.5" stroke="#7f0000" fill="none"/><path  d="m114.79757,70.00001c0.2,6.4 -8.9,6.4 -8.8,0" stroke-width="1.5" stroke="#7f0000" fill="none"/><polyline  points="105.99929809570312,40 105.99929809570312,70 " stroke-width="1.5" stroke="#7f0000" fill="none"/></g><g ><path  d="m111.20001,40.00001c-0.2,-6.4 8.9,-6.4 8.8,0" stroke-width="1.5" stroke="#7f0000" fill="none"/><path  d="m128.79757,70.00001c0.2,6.4 -8.9,6.4 -8.8,0" stroke-width="1.5" stroke="#7f0000" fill="none"/><polyline  points="119.99908447265625,40 119.99908447265625,70 " stroke-width="1.5" stroke="#7f0000" fill="none"/></g></g><polyline  points="134.31033325195312,75.11074829101562 134.31033325195312,69.9996337890625 " stroke-width="1.5" stroke="#7f0000" fill="none"/><polyline  points="150.11009216308594,75.11074829101562 150.11009216308594,69.9996337890625 " stroke-width="1.5" stroke="#7f0000" fill="none"/><g ><polyline  points="70.11131286621094,75.11074829101562 70.11131286621094,69.9996337890625 " stroke-width="1.5" stroke="#7f0000" fill="none"/><polyline  points="83.91110229492188,75.11074829101562 83.91110229492188,69.9996337890625 " stroke-width="1.5" stroke="#7f0000" fill="none"/><polyline  points="70,74.39999389648438 84.19999694824219,74.39999389648438 " stroke-width="1.5" stroke="#7f0000" fill="none"/></g><polyline  points="134.40000915527344,74.39999389648438 150,74.39999389648438 " stroke-width="1.5" stroke="#7f0000" fill="none"/><polyline  points="200,70 200,90 " stroke-width="1.5" stroke="#7f0000" fill="none"/><polyline  points="20,40 20,90 " stroke-width="1.5" stroke="#7f0000" fill="none"/><path  fill="#ffffff" stroke-width="1.5" stroke="#000000" d="m16,90a4,4 0 1 1 8,0a4,4 0 1 1 -8,0"/><path  fill="#ffffff" stroke-width="1.5" stroke="#000000" d="m196,90a4,4 0 1 1 8,0a4,4 0 1 1 -8,0"/><text text-anchor="middle" font-family="serif" stroke="null"  y="90" x="48.2"><tspan fill="#0000ff" font-size="16" >L</tspan><tspan fill="#0000ff" font-size="14" dy="2" >1</tspan></text><text text-anchor="middle" font-family="serif" stroke="null"  y="89.4" x="114"><tspan fill="#0000ff" font-size="16" >L</tspan><tspan fill="#0000ff" font-size="14" dy="2" >2</tspan></text><text text-anchor="middle" font-family="serif" stroke="null"  y="89.4" x="180.8"><tspan fill="#0000ff" font-size="16" >L</tspan><tspan fill="#0000ff" font-size="14" dy="2" >3</tspan></text><g ><path  d="m121.8,30q19.8,-12 40,0" stroke-width="1.5" stroke="#0000ff" fill="none"/><path  d="m121.8,30l6.61769,-7.49708l-4.82884,6.60265l8.17942,0.09852l-9.96828,0.79591" stroke-width="1.5" stroke="#0000ff" fill="none"/><path  d="m161.8,30l-9.96828,-0.79591l8.17942,-0.09852l-4.82884,-6.60265l6.61769,7.49708" stroke-width="1.5" stroke="#0000ff" fill="none"/></g><g ><path  d="m60,30q19.8,-12 40,0" stroke-width="1.5" stroke="#0000ff" fill="none"/><path  d="m60,30l6.61769,-7.49708l-4.82884,6.60265l8.17943,0.09852l-9.96828,0.79591" stroke-width="1.5" stroke="#0000ff" fill="none"/><path  d="m100,30l-9.96828,-0.79591l8.17943,-0.09852l-4.82884,-6.60265l6.61769,7.49708" stroke-width="1.5" stroke="#0000ff" fill="none"/></g><text text-anchor="middle" font-family="serif" stroke="null"  y="17.6" x="80.2"><tspan fill="#0000ff" font-size="16" >M</tspan><tspan fill="#0000ff" font-size="14" dy="2" >12</tspan></text><text text-anchor="middle" font-family="serif" stroke="null"  y="17.6" x="142.4"><tspan transform="matrix(1,0,0,1,0,0) " fill="#0000ff" font-size="16" >M</tspan><tspan transform="matrix(1,0,0,1,0,0) " fill="#0000ff" font-size="14" dy="2" >23</tspan></text><path  d="m50,100q56.6,18.4 110,0" stroke-width="1.5" stroke="#0000ff" fill="none"/><path  d="m50,100l9.98065,-0.62182l-8.08328,1.25427l5.71406,5.85339l-7.61143,-6.48584" stroke-width="1.5" stroke="#0000ff" fill="none"/><path  d="m160,100l-7.61143,6.48584l5.71406,-5.85339l-8.08328,-1.25427l9.98065,0.62182" stroke-width="1.5" stroke="#0000ff" fill="none"/><text text-anchor="middle" font-family="serif" stroke="null"  y="124.4" x="110.8"><tspan fill="#0000ff" font-size="16" >M</tspan><tspan fill="#0000ff" font-size="14" dy="2" >13</tspan></text></g><text fill="#0000ff" font-size="16" text-anchor="middle" font-family="serif" stroke="null"  y="109" x="19.33333">A</text><text fill="#0000ff" font-size="16" text-anchor="middle" font-family="serif" stroke="null"  y="108" x="201">B</text></g></svg>