<svg width="179.20000272348105" height="99.2000015076413" xmlns="http://www.w3.org/2000/svg" xmlns:svg="http://www.w3.org/2000/svg"><g><title>Layer 1</title><rect  fill="none" stroke="#000000" x="98.2" y="29.8" width="70" height="30"/><polyline  fill="none" stroke="#7f0000" stroke-width="1.5" points="18.799999237060547,60.000000759899876 18.799999237060547,70.00000075989988 "/><path  d="m108.8,60l0,5a5,5 0 1 1 0,10l0,5m10,0m-20,0" stroke="#7f0000" stroke-width="1.5" fill="none"/><polyline  fill="none" stroke="#7f0000" stroke-width="1.5" points="18.799999237060547,70.00000075989988 18.799999237060547,90.00000075989988 "/><path  d="m18.8,94a4,4 0 1 0 0,-8a4,4 0 1 0 0,8" stroke="#7f0000" stroke-width="1.5" fill="#ffffff"/><polyline  fill="none" stroke="#7f0000" stroke-width="1.5" points="69,69.39999465638425 159,69.39999465638425 "/><polyline  fill="none" stroke="#7f0000" stroke-width="1.5" points="108.80000305175781,80.00000075989988 108.80000305175781,90.00000075989988 "/><path  d="m108.8,94a4,4 0 1 0 0,-8a4,4 0 1 0 0,8" stroke="#7f0000" stroke-width="1.5" fill="#ffffff"/><text  x="47.2" y="19.2" stroke="null" font-family="serif" text-anchor="middle"><tspan  font-size="14" fill="#0000ff">L</tspan><tspan  dy="2" font-size="12" fill="#0000ff">1</tspan></text><text  x="136" y="19.2" stroke="null" font-family="serif" text-anchor="middle"><tspan  font-size="14" fill="#0000ff">L</tspan><tspan  dy="2" font-size="12" fill="#0000ff">2</tspan></text><path  fill="none" stroke="#000000" stroke-width="1.5" d="m58.8,20q4,-10 20,-10"/><path  fill="none" stroke="#000000" stroke-width="1.5" d="m56.8,20.8l4.14198,-9.10187l-2.69198,7.72437l7.85218,-2.29258l-9.30218,3.67008"/><path  fill="none" stroke="#000000" stroke-width="1.5" d="m126.8,-12"/><g ><path  fill="none" stroke="#000000" stroke-width="1.5" d="m118.8,20q-2.4,-11.2 -20,-10"/><path  fill="none" stroke="#000000" stroke-width="1.5" d="m120.2,21l-7.98255,-6.0232l6.95356,4.30822l-0.52911,-8.16289l1.5581,9.87787"/></g><text  x="88.4" y="15" stroke="null" font-family="serif" text-anchor="middle" font-size="14" fill="#0000ff">M</text><text  x="30" y="94" stroke="null" font-family="serif" text-anchor="middle" font-size="16" fill="#0000ff">a</text><g ><rect  fill="none" stroke="#000000" x="8.6" y="29.8" width="70" height="30"/><path  d="m17.8,30.4c0.2,-6.2 8.1,-6.2 8.2,0" stroke-width="1.5" stroke="#7f0000" fill="none"/><path  d="m37.8,30.4c0.2,-6.2 8.1,-6.2 8.2,0" stroke-width="1.5" stroke="#7f0000" fill="none"/><path  d="m57.8,30.4c0.2,-6.2 8.1,-6.2 8.2,0" stroke-width="1.5" stroke="#7f0000" fill="none"/><path  d="m37,59.75c-0.2,6.2 -8.1,6.2 -8.2,0" stroke-width="1.5" stroke="#7f0000" fill="none"/><path  d="m57,59.75c-0.2,6.2 -8.1,6.2 -8.2,0" stroke-width="1.5" stroke="#7f0000" fill="none"/><polyline  points="25.799999237060547,30 28.599998474121094,60 " stroke-width="1.5" stroke="#7f0000" fill="none"/><polyline  points="46,30 48.80000305175781,60 " stroke-width="1.5" stroke="#7f0000" fill="none"/><polyline  points="66,29.600000381469727 68.80001068115234,59.599998474121094 " stroke-width="1.5" stroke="#7f0000" fill="none"/></g><path  d="m108.4,30.4c0.2,-6.2 8.1,-6.2 8.2,0" stroke-width="1.5" stroke="#7f0000" fill="none"/><path  d="m130.4,30.4c0.2,-6.2 8.1,-6.2 8.2,0" stroke-width="1.5" stroke="#7f0000" fill="none"/><path  d="m150.4,30.4c0.2,-6.2 8.1,-6.2 8.2,0" stroke-width="1.5" stroke="#7f0000" fill="none"/><path  d="m127.6,59.75c-0.2,6.2 -8.1,6.2 -8.2,0" stroke-width="1.5" stroke="#7f0000" fill="none"/><path  d="m147.6,59.75c-0.2,6.2 -8.1,6.2 -8.2,0" stroke-width="1.5" stroke="#7f0000" fill="none"/><polyline  points="150.40000915527344,30.000000759899876 147.60000610351562,60.00000838929441 " stroke-width="1.5" stroke="#7f0000" fill="none"/><polyline  points="68.80000305175781,60.000000759899876 68.80000305175781,70.00000075989988 " stroke-width="1.5" stroke="#7f0000" fill="none"/><polyline  points="158.8000030517578,60.000000759899876 158.8000030517578,70.00000075989988 " stroke-width="1.5" stroke="#7f0000" fill="none"/><polyline  points="130.40000915527344,30.000000759899876 127.60000610351562,60.00000838929441 " stroke-width="1.5" stroke="#7f0000" fill="none"/><polyline  points="108.80000305175781,30.000000759899876 108.80000305175781,60.000000759899876 " stroke-width="1.5" stroke="#7f0000" fill="none"/><text fill="#0000ff" font-size="16" text-anchor="middle" font-family="serif" stroke="null"  y="94.75" x="99.05">b</text></g></svg>