<svg width="170" height="90" xmlns="http://www.w3.org/2000/svg" xmlns:svg="http://www.w3.org/2000/svg"><g><title>Layer 1</title><path  stroke-width="1.5" stroke="#880000" fill="none" d="m30,30l0,17m10,0l-20,0m5,6l10,0m-5,0l0,17"/><path  stroke-width="1.5" stroke="#880000" fill="none" d="m130,20l0,7m10,0l-20,0m0,6l20,0m-10,0l0,7"/><path  stroke-width="1.5" stroke="#880000" fill="none" d="m130,50l0,7m10,0l-20,0m0,6l20,0m-10,0l0,7"/><path  stroke-width="1.5" stroke="#880000" fill="none" d="m100,10l-5,0l-3,5l-5,-10l-5,10l-5,-10l-5,10l-5,-10l-3,5l-4,0"/><polyline  points="100,10 130,10 130,10 130,20 " stroke-width="1.5" stroke="#000000" fill="none"/><polyline  points="60,10 30,10 30,10 30,30 " stroke-width="1.5" stroke="#000000" fill="none"/><polyline  points="130,40 130,50 " stroke-width="1.5" stroke="#000000" fill="none"/><polyline  points="130,70 130,80 130,80 30,80 " stroke-width="1.5" stroke="#000000" fill="none"/><polyline  points="30,80 30,70 " stroke-width="1.5" stroke="#000000" fill="none"/><text fill="#0000ff" font-size="14" text-anchor="middle" font-family="serif" stroke="null"  y="54.8125" x="10.4">E</text><text text-anchor="middle" font-family="serif" stroke="null"  y="33.2125" x="152"><tspan fill="#0000ff" font-size="14" >C</tspan><tspan fill="#0000ff" font-size="12" dy="2" >1</tspan></text><text text-anchor="middle" font-family="serif" stroke="null"  y="65.2125" x="152"><tspan fill="#0000ff" font-size="14" >C</tspan><tspan fill="#0000ff" font-size="12" dy="2" >2</tspan></text><text fill="#0000ff" font-size="14" text-anchor="middle" font-family="serif" stroke="null"  y="30.8125" x="79.2">R</text></g></svg>