<svg  encoding="utf-8" width="130" height="110" xmlns="http://www.w3.org/2000/svg" xmlns:svg="http://www.w3.org/2000/svg"><g><title>Layer 1</title><path d="m20,70l0,7m10,0l-20,0m5,6l10,0m-5,0l0,7" fill="none" stroke="#880000" stroke-width="1.5"></path><path stroke-width="1.5" stroke="#880000" fill="none" d="m20,30l0,5l5,3l-10,5l10,5l-10,5l10,5l-10,5l5,3l0,4"></path><polyline points="20,90 20,100 20,100 60,100 " stroke-width="1.5" stroke="#000000" fill="none"></polyline><path stroke-width="1.5" stroke="#880000" fill="none" d="m80,50l0,5l5,3l-10,5l10,5l-10,5l10,5l-10,5l5,3l0,4"></path><text fill="#0000ff" font-size="14" text-anchor="middle" font-family="serif" stroke="null" y="53.71429" x="32.85714">r</text><polyline points="20,30 20,20 20,20 80,20 " stroke-width="1.5" stroke="#000000" fill="none"></polyline><path fill="#ff0000" stroke-width="1.5" stroke="#ff0000" d="m60,70l0,20l4,-10l-4,5l-4,-5l4,10"></path><path fill="#ffffff" stroke-width="1.5" stroke="#000000" d="m46,20a4,4 0 1 1 8,0a4,4 0 1 1 -8,0"></path><path fill="#ffffff" stroke-width="1.5" stroke="#000000" d="m46,100a4,4 0 1 1 8,0a4,4 0 1 1 -8,0"></path><text fill="#0000ff" font-size="14" text-anchor="middle" font-family="serif" stroke="null" y="84.28571" x="38.85714">E</text><text fill="#0000ff" font-size="14" text-anchor="middle" font-family="serif" stroke="null" y="74.71429" x="98.57143">5Ω</text><path fill="#ff0000" stroke-width="1.5" stroke="#ff0000" d="m60,50l0,-20l-4,10l4,-5l4,5l-4,-10"></path><text fill="#0000ff" font-size="14" text-anchor="middle" font-family="serif" stroke="null" y="62.85714" x="59.14286">10V</text><polyline points="80,20 80,50" stroke-width="1.5" stroke="#000000" fill="none"></polyline><polyline points="80,90 80,100 80,100 60,100" stroke-width="1.5" stroke="#000000" fill="none"></polyline><path fill="#ff0000" stroke-width="1.5" stroke="#ff0000" d="m80,30l0,20l4,-10l-4,5l-4,-5l4,10"></path><text text-anchor="middle" font-family="serif" stroke="null" y="44.71429" x="93.42857"><tspan transform="matrix(1,0,0,1,0,0) " fill="#0000ff" font-size="14">I</tspan><tspan transform="matrix(1,0,0,1,0,0) " fill="#0000ff" font-size="12" dy="2">1</tspan></text></g></svg>