<svg width="200" height="140" xmlns="http://www.w3.org/2000/svg" xmlns:svg="http://www.w3.org/2000/svg"><g><title>Layer 1</title><path  stroke-width="1.5" stroke="#880000" fill="none" d="m50,50l0,17m10,0l-20,0m5,6l10,0m-5,0l0,17"/><path  stroke-width="1.5" stroke="#880000" fill="none" d="m150,50l0,17m10,0l-20,0m5,6l10,0m-5,0l0,17"/><path  stroke-width="1.5" stroke="#880000" fill="none" d="m120,30l-5,0l-3,5l-5,-10l-5,10l-5,-10l-5,10l-5,-10l-3,5l-4,0"/><path  stroke-width="1.5" stroke="#880000" fill="none" d="m120,110l-5,0l-3,5l-5,-10l-5,10l-5,-10l-5,10l-5,-10l-3,5l-4,0"/><polyline  points="50,50 50,30 50,30 80,30 " stroke-width="1.5" stroke="#000000" fill="none"/><polyline  points="120,30 150,30 150,30 150,50 " stroke-width="1.5" stroke="#000000" fill="none"/><polyline  points="50,90 50,110 50,110 80,110 " stroke-width="1.5" stroke="#000000" fill="none"/><polyline  points="120,110 150,110 150,110 150,90 " stroke-width="1.5" stroke="#000000" fill="none"/><path  stroke-width="1.5" stroke="#ff0000" d="m55.33333,84l10,0"/><path  stroke-width="1.5" stroke="#ff0000" d="m122.33334,37.66667l10,0"/><path  stroke-width="1.5" stroke="#ff0000" d="m154.66667,82.33334l10,0"/><path  stroke-width="1.5" stroke="#ff0000" d="m73.66666,100l10,0"/><path  stroke-width="1.5" stroke="#ff0000" d="m71,39.33333l10,0m-5,-5l0,10"/><path  stroke-width="1.5" stroke="#ff0000" d="m114.33334,100l10,0m-5,-5l0,10"/><path  stroke-width="1.5" stroke="#ff0000" d="m154,56.66666l10,0m-5,-5l0,10"/><path  stroke-width="1.5" stroke="#ff0000" d="m55.66667,57l10,0m-5,-5l0,10"/><text fill="#0000ff" font-size="14" text-anchor="middle" font-family="serif" stroke="null"  y="74" x="24">40V</text><text fill="#0000ff" font-size="14" text-anchor="middle" font-family="serif" stroke="null"  y="74" x="174.66667">10V</text><text fill="#0000ff" font-size="14" text-anchor="middle" font-family="serif" stroke="null"  y="20.66667" x="100.66667">20Ω</text><text fill="#0000ff" font-size="14" text-anchor="middle" font-family="serif" stroke="null"  y="130" x="100">30Ω</text><text text-anchor="middle" font-family="serif" stroke="null"  y="50.66667" x="102"><tspan fill="#0000ff" font-size="14" >V</tspan><tspan fill="#0000ff" font-size="12" dy="2" >1</tspan></text><text text-anchor="middle" font-family="serif" stroke="null"  y="98.66667" x="100.66667"><tspan fill="#0000ff" font-size="14" >V</tspan><tspan fill="#0000ff" font-size="12" dy="2" >2</tspan></text></g></svg>