<svg  encoding="utf-8" width="160" height="110" xmlns="http://www.w3.org/2000/svg" xmlns:svg="http://www.w3.org/2000/svg"><g><title>Layer 1</title><path stroke-width="1.5" stroke="#880000" fill="none" d="m100,90l-7,0m0,10l0,-20m-6,5l0,10m0,-5l-7,0"></path><path stroke-width="1.5" stroke="#880000" fill="none" d="m40,50l0,7m10,0l-20,0m5,6l10,0m-5,0l0,7"></path><path stroke-width="1.5" stroke="#880000" fill="none" d="m100,30l-7,0m0,10l0,-20m-6,5l0,10m0,-5l-7,0"></path><path stroke-width="1.5" stroke="#880000" fill="none" d="m140,40l0,5l5,3l-10,5l10,5l-10,5l10,5l-10,5l5,3l0,4"></path><text fill="#0000ff" font-size="14" text-anchor="middle" font-family="serif" stroke="null" y="63.25" x="121.75">8Ω</text><path stroke-width="1.5" stroke="#ff0000" d="m100.5,81.75l10,0m-5,-5l0,10"></path><path stroke-width="1.5" stroke="#ff0000" d="m97.75,22.75l10,0m-5,-5l0,10"></path><path stroke-width="1.5" stroke="#ff0000" d="m24.25,44.75l10,0m-5,-5l0,10"></path><path stroke-width="1.5" stroke="#ff0000" d="m71.5,23l10,0"></path><path stroke-width="1.5" stroke="#ff0000" d="m70.75,83.75l10,0"></path><path stroke-width="1.5" stroke="#ff0000" d="m25.5,72l10,0"></path><text fill="#0000ff" font-size="14" text-anchor="middle" font-family="serif" stroke="null" y="77.25" x="90.5">10V</text><text fill="#0000ff" font-size="14" text-anchor="middle" font-family="serif" stroke="null" y="15.5" x="92.25">20V</text><text transform="matrix(1,0,0,1,0,0) " fill="#0000ff" font-size="14" text-anchor="middle" font-family="serif" stroke="null" y="65.5" x="14.75">30V</text><path fill="#ff0000" stroke-width="1.5" stroke="#ff0000" d="m153,50l0,20l4,-10l-4,5l-4,-5l4,10"></path><text fill="#0000ff" font-size="14" text-anchor="middle" font-family="serif" stroke="null" y="47.5" x="153.25">I</text><polyline points="100,90 140,90 140,90 140,80 " stroke-width="1.5" stroke="#000000" fill="none"></polyline><polyline points="100,30 140,30 140,30 140,40 " stroke-width="1.5" stroke="#000000" fill="none"></polyline><polyline points="40,50 40,30 40,30 80,30" stroke-width="1.5" stroke="#000000" fill="none"></polyline><polyline points="40,70 40,90 40,90 80,90" stroke-width="1.5" stroke="#000000" fill="none"></polyline></g></svg>