<svg  encoding="utf-8" width="200" height="160" xmlns="http://www.w3.org/2000/svg" xmlns:svg="http://www.w3.org/2000/svg"><g><title>Layer 1</title><g><g><path stroke-width="1.5" stroke="#880000" fill="none" d="m20,80l0,5l5,3l-10,5l10,5l-10,5l10,5l-10,5l5,3l0,4"></path><path stroke-width="1.5" stroke="#880000" fill="none" d="m20,20l0,5l5,3l-10,5l10,5l-10,5l10,5l-10,5l5,3l0,4"></path><polyline points="20,20 20,10 20,10 80,10 " stroke-width="1.5" stroke="#000000" fill="none"></polyline><polyline points="20,140 20,150 20,150 80,150 " stroke-width="1.5" stroke="#000000" fill="none"></polyline><path fill="#ffffff" stroke-width="1.5" stroke="#000000" d="m76,10a4,4 0 1 1 8,0a4,4 0 1 1 -8,0"></path><path fill="#ffffff" stroke-width="1.5" stroke="#000000" d="m76,150a4,4 0 1 1 8,0a4,4 0 1 1 -8,0"></path><text fill="#0000ff" font-size="14" text-anchor="middle" font-family="serif" stroke="null" y="135" x="41">5V</text><text fill="#0000ff" font-size="14" text-anchor="middle" font-family="serif" stroke="null" y="73" x="42">5V</text><text fill="#0000ff" font-size="14" text-anchor="middle" font-family="serif" stroke="null" y="46" x="41">4Ω</text><text fill="#0000ff" font-size="14" text-anchor="middle" font-family="serif" stroke="null" y="106" x="41">6Ω</text><g><polyline points="30,128 10,128 " stroke-width="1.5" stroke="#7f0000" fill="none"></polyline><polyline points="25,134 15,134 " stroke-width="1.5" stroke="#7f0000" fill="none"></polyline><polyline points="20,134 20,144 " stroke-width="1.5" stroke="#7f0000" fill="none"></polyline></g><g><polyline points="30,66 10,66 " stroke-width="1.5" stroke="#7f0000" fill="none"></polyline><polyline points="25,72 15,72 " stroke-width="1.5" stroke="#7f0000" fill="none"></polyline><polyline points="20,72 20,82 " stroke-width="1.5" stroke="#7f0000" fill="none"></polyline></g><polyline points="20,66 20,56 " stroke-width="1.5" stroke="#7f0000" fill="none"></polyline><polyline points="20,128 20,118 " stroke-width="1.5" stroke="#7f0000" fill="none"></polyline></g><g><path stroke-width="1.5" stroke="#880000" fill="none" d="m130,90l0,17m10,0l-20,0m5,6l10,0m-5,0l0,17"></path><path stroke-width="1.5" stroke="#880000" fill="none" d="m130,40l0,5l5,3l-10,5l10,5l-10,5l10,5l-10,5l5,3l0,4"></path><polyline points="130,130 130,140 130,140 180,140 " stroke-width="1.5" stroke="#000000" fill="none"></polyline><polyline points="130,40 130,20 130,20 180,20 " stroke-width="1.5" stroke="#000000" fill="none"></polyline><path fill="#ffffff" stroke-width="1.5" stroke="#000000" d="m176,20a4,4 0 1 1 8,0a4,4 0 1 1 -8,0"></path><path fill="#ffffff" stroke-width="1.5" stroke="#000000" d="m176,140a4,4 0 1 1 8,0a4,4 0 1 1 -8,0"></path><text text-anchor="middle" font-family="serif" stroke="null" y="114" x="152"><tspan fill="#0000ff" font-size="14">E</tspan><tspan fill="#0000ff" font-size="12" dy="2">T</tspan></text><text text-anchor="middle" font-family="serif" stroke="null" y="64" x="150"><tspan fill="#0000ff" font-size="14">R</tspan><tspan fill="#0000ff" font-size="12" dy="2">T</tspan></text><polyline points="130,80 130,90 " stroke-width="1.5" stroke="#000000" fill="none"></polyline></g><g><polyline points="112,81 92,71 " stroke-width="1.5" stroke="#000000" fill="none"></polyline><polyline points="112,81 92,91 " stroke-width="1.5" stroke="#000000" fill="none"></polyline><polyline points="101,76 81,76 " stroke-width="1.5" stroke="#000000" fill="none"></polyline><polyline points="101,86 81,86 " stroke-width="1.5" stroke="#000000" fill="none"></polyline></g></g></g></svg>