<svg width="220" height="120" xmlns="http://www.w3.org/2000/svg" xmlns:svg="http://www.w3.org/2000/svg"><g><title>Layer 1</title><g ><path  stroke-width="1.5" stroke="#880000" fill="none" d="m70,40l0,40m0,-10a10,10 0 1 1 0,-20a10,10 0 1 1 0,20m0,-3l4,-8l-4,6l-4,-6l4,7"/><path  stroke-width="1.5" stroke="#880000" fill="none" d="m120,40l0,40m0,-10a10,10 0 1 1 0,-20a10,10 0 1 1 0,20m0,-3l4,-8l-4,6l-4,-6l4,7"/><path  stroke-width="1.5" stroke="#880000" fill="none" d="m20,80l0,-40m0,10a10,10 0 1 1 0,20a10,10 0 1 1 0,-20m0,3l-4,8l4,-6l4,6l-4,-7"/><path  stroke-width="1.5" stroke="#880000" fill="none" d="m170,80l0,-40m0,10a10,10 0 1 1 0,20a10,10 0 1 1 0,-20m0,3l-4,8l4,-6l4,6l-4,-7"/><text fill="#0000ff" font-size="14" text-anchor="middle" font-family="serif" stroke="null"  y="64" x="142">3A</text><text fill="#0000ff" font-size="14" text-anchor="middle" font-family="serif" stroke="null"  y="64.66667" x="92.66667">2A</text><text fill="#0000ff" font-size="14" text-anchor="middle" font-family="serif" stroke="null"  y="64.66667" x="42">4A</text><text fill="#0000ff" font-size="14" text-anchor="middle" font-family="serif" stroke="null"  y="64.66667" x="192.66667">5A</text><polyline  points="20,40 20,20 20,20 200,20 " stroke-width="1.5" stroke="#000000" fill="none"/><polyline  points="20,80 20,100 20,100 200,100 " stroke-width="1.5" stroke="#000000" fill="none"/><polyline  points="70,80 70,100 " stroke-width="1.5" stroke="#000000" fill="none"/><polyline  points="120,80 120,100 " stroke-width="1.5" stroke="#000000" fill="none"/><polyline  points="170,80 170,100 " stroke-width="1.5" stroke="#000000" fill="none"/><polyline  points="170,40 170,20 " stroke-width="1.5" stroke="#000000" fill="none"/><polyline  points="120,40 120,20 120,20 130,20 " stroke-width="1.5" stroke="#000000" fill="none"/><polyline  points="70,40 70,20 " stroke-width="1.5" stroke="#000000" fill="none"/><path  fill="sRgb" stroke-width="1.5" stroke="#000000" d="m67,20a3,3 0 1 1 6,0a3,3 0 1 1 -6,0"/><path  fill="sRgb" stroke-width="1.5" stroke="#000000" d="m117,20a3,3 0 1 1 6,0a3,3 0 1 1 -6,0"/><path  fill="sRgb" stroke-width="1.5" stroke="#000000" d="m167,20a3,3 0 1 1 6,0a3,3 0 1 1 -6,0"/><path  fill="sRgb" stroke-width="1.5" stroke="#000000" d="m67,100a3,3 0 1 1 6,0a3,3 0 1 1 -6,0"/><path  fill="sRgb" stroke-width="1.5" stroke="#000000" d="m117,100a3,3 0 1 1 6,0a3,3 0 1 1 -6,0"/><path  fill="sRgb" stroke-width="1.5" stroke="#000000" d="m167,100a3,3 0 1 1 6,0a3,3 0 1 1 -6,0"/><path  fill="#ffffff" stroke-width="1.5" stroke="#000000" d="m196,20a4,4 0 1 1 8,0a4,4 0 1 1 -8,0"/><path  fill="#ffffff" stroke-width="1.5" stroke="#000000" d="m196,100a4,4 0 1 1 8,0a4,4 0 1 1 -8,0"/></g></g></svg>