<svg width="290" height="210" xmlns="http://www.w3.org/2000/svg" xmlns:svg="http://www.w3.org/2000/svg"><g><title>Layer 1</title><g ><path  stroke-width="1.5" stroke="#880000" fill="none" d="m50,40l0,5l5,3l-10,5l10,5l-10,5l10,5l-10,5l5,3l0,4"/><path  stroke-width="1.5" stroke="#880000" fill="none" d="m110,20l-5,0l-3,5l-5,-10l-5,10l-5,-10l-5,10l-5,-10l-3,5l-4,0"/><path  stroke-width="1.5" stroke="#880000" fill="none" d="m50,160l0,-5l-5,-3l10,-5l-10,-5l10,-5l-10,-5l10,-5l-5,-3l0,-4"/><path  stroke-width="1.5" stroke="#880000" fill="none" d="m80,160l0,-5l-5,-3l10,-5l-10,-5l10,-5l-10,-5l10,-5l-5,-3l0,-4"/><path  stroke-width="1.5" stroke="#880000" fill="none" d="m100,100l5,0l3,-5l5,10l5,-10l5,10l5,-10l5,10l3,-5l4,0"/><path  stroke-width="1.5" stroke="#880000" fill="none" d="m160,40l0,5l5,3l-10,5l10,5l-10,5l10,5l-10,5l5,3l0,4"/><path  stroke-width="1.5" stroke="#880000" fill="none" d="m190,40l0,5l5,3l-10,5l10,5l-10,5l10,5l-10,5l5,3l0,4"/><path  stroke-width="1.5" stroke="#880000" fill="none" d="m250,20l-5,0l-3,5l-5,-10l-5,10l-5,-10l-5,10l-5,-10l-3,5l-4,0"/><path  stroke-width="1.5" stroke="#880000" fill="none" d="m250,100l-5,0l-3,5l-5,-10l-5,10l-5,-10l-5,10l-5,-10l-3,5l-4,0"/><path  stroke-width="1.5" stroke="#880000" fill="none" d="m250,180l-5,0l-3,5l-5,-10l-5,10l-5,-10l-5,10l-5,-10l-3,5l-4,0"/><polyline  points="50,80 50,120 " stroke-width="1.5" stroke="#000000" fill="none"/><polyline  points="50,40 50,20 50,20 70,20 " stroke-width="1.5" stroke="#000000" fill="none"/><polyline  points="80,120 80,100 " stroke-width="1.5" stroke="#000000" fill="none"/><polyline  points="160,40 160,20 " stroke-width="1.5" stroke="#000000" fill="none"/><polyline  points="190,40 190,20 " stroke-width="1.5" stroke="#000000" fill="none"/><polyline  points="140,100 160,100 160,100 160,80 " stroke-width="1.5" stroke="#000000" fill="none"/><polyline  points="160,100 160,180 " stroke-width="1.5" stroke="#000000" fill="none"/><polyline  points="80,160 80,180 " stroke-width="1.5" stroke="#000000" fill="none"/><polyline  points="190,80 190,180 " stroke-width="1.5" stroke="#000000" fill="none"/><polyline  points="210,100 190,100 " stroke-width="1.5" stroke="#000000" fill="none"/><polyline  points="250,20 270,20 270,20 270,180 " stroke-width="1.5" stroke="#000000" fill="none"/><polyline  points="270,180 250,180 " stroke-width="1.5" stroke="#000000" fill="none"/><polyline  points="250,100 270,100 " stroke-width="1.5" stroke="#000000" fill="none"/><polyline  points="50,100 20,100 " stroke-width="1.5" stroke="#000000" fill="none"/><polyline  points="50,180 20,180 " stroke-width="1.5" stroke="#000000" fill="none"/><path  fill="#ffffff" stroke-width="1.5" stroke="#000000" d="m16,100a4,4 0 1 1 8,0a4,4 0 1 1 -8,0"/><path  fill="#ffffff" stroke-width="1.5" stroke="#000000" d="m16,180a4,4 0 1 1 8,0a4,4 0 1 1 -8,0"/><text  fill="#0000ff" font-size="14" text-anchor="middle" font-family="serif" stroke="null" y="66" x="65.2">R</text><text  fill="#0000ff" font-size="14" text-anchor="middle" font-family="serif" stroke="null" y="42.8" x="90.8">R</text><text  fill="#0000ff" font-size="14" text-anchor="middle" font-family="serif" stroke="null" y="145.2" x="37.2">R</text><text  fill="#0000ff" font-size="14" text-anchor="middle" font-family="serif" stroke="null" y="146" x="94.8">R</text><text  fill="#0000ff" font-size="14" text-anchor="middle" font-family="serif" stroke="null" y="119.6" x="118.4">R</text><text  fill="#0000ff" font-size="14" text-anchor="middle" font-family="serif" stroke="null" y="64.4" x="144.8">R</text><text  fill="#0000ff" font-size="14" text-anchor="middle" font-family="serif" stroke="null" y="66" x="204.4">R</text><text  fill="#0000ff" font-size="14" text-anchor="middle" font-family="serif" stroke="null" y="41.2" x="230">R</text><text  fill="#0000ff" font-size="14" text-anchor="middle" font-family="serif" stroke="null" y="90.4" x="229.2">R</text><text  fill="#0000ff" font-size="14" text-anchor="middle" font-family="serif" stroke="null" y="169.2" x="230.8">R</text><path  fill="sRgb" stroke-width="1.5" stroke="#000000" d="m187,100a3,3 0 1 1 6,0a3,3 0 1 1 -6,0"/><path  fill="sRgb" stroke-width="1.5" stroke="#000000" d="m157,100a3,3 0 1 1 6,0a3,3 0 1 1 -6,0"/><path  fill="sRgb" stroke-width="1.5" stroke="#000000" d="m157,20a3,3 0 1 1 6,0a3,3 0 1 1 -6,0"/><path  fill="sRgb" stroke-width="1.5" stroke="#000000" d="m187,20a3,3 0 1 1 6,0a3,3 0 1 1 -6,0"/><path  fill="sRgb" stroke-width="1.5" stroke="#000000" d="m187,180a3,3 0 1 1 6,0a3,3 0 1 1 -6,0"/><path  fill="sRgb" stroke-width="1.5" stroke="#000000" d="m157,180a3,3 0 1 1 6,0a3,3 0 1 1 -6,0"/><path  fill="sRgb" stroke-width="1.5" stroke="#000000" d="m267,100a3,3 0 1 1 6,0a3,3 0 1 1 -6,0"/><path  fill="sRgb" stroke-width="1.5" stroke="#000000" d="m77,100a3,3 0 1 1 6,0a3,3 0 1 1 -6,0"/><path  fill="sRgb" stroke-width="1.5" stroke="#000000" d="m47,100a3,3 0 1 1 6,0a3,3 0 1 1 -6,0"/><path  fill="sRgb" stroke-width="1.5" stroke="#000000" d="m47,180a3,3 0 1 1 6,0a3,3 0 1 1 -6,0"/><path  fill="sRgb" stroke-width="1.5" stroke="#000000" d="m77,180a3,3 0 1 1 6,0a3,3 0 1 1 -6,0"/><polyline  points="210,180 50,180" stroke-width="1.5" stroke="#000000" fill="none"/><polyline  points="50,180 50,160" stroke-width="1.5" stroke="#000000" fill="none"/><polyline  points="50,100 100,100" stroke-width="1.5" stroke="#000000" fill="none"/><polyline  points="110,20 210,20" stroke-width="1.5" stroke="#000000" fill="none"/></g><text fill="#0000ff" font-size="14" text-anchor="middle" font-family="serif" stroke="null"  y="198.26563" x="21">B</text><text fill="#0000ff" font-size="14" text-anchor="middle" font-family="serif" stroke="null"  y="90.26563" x="20">A</text></g></svg>