<svg width="370" height="140" xmlns="http://www.w3.org/2000/svg" xmlns:svg="http://www.w3.org/2000/svg"><g><title>Layer 1</title><path d="m50,30l5,0l3,-5l5,10l5,-10l5,10l5,-10l5,10l3,-5l4,0" fill="none" stroke="#880000" stroke-width="1.5" id="R1"/><path d="m90,110l-5,0l-3,5l-5,-10l-5,10l-5,-10l-5,10l-5,-10l-3,5l-4,0" fill="none" stroke="#880000" stroke-width="1.5" id="R3"/><path d="m110,50l0,5l5,3l-10,5l10,5l-10,5l10,5l-10,5l5,3l0,4" fill="none" stroke="#880000" stroke-width="1.5" id="s_3"/><path d="m170,30l-5,0l-3,5l-5,-10l-5,10l-5,-10l-5,10l-5,-10l-3,5l-4,0" fill="none" stroke="#880000" stroke-width="1.5" id="s_4"/><path d="m170,110l-5,0l-3,5l-5,-10l-5,10l-5,-10l-5,10l-5,-10l-3,5l-4,0" fill="none" stroke="#880000" stroke-width="1.5" id="s_5"/><polyline fill="none" stroke="#000000" stroke-width="1.5" points="110,30 110,50 " id="s_7"/><path d="m107.5,30a2.5,2.5 0 1 1 5,0a2.5,2.5 0 1 1 -5,0" stroke="#000000" stroke-width="1.5" fill="#000000" id="s_10"/><path d="m107.5,110a2.5,2.5 0 1 1 5,0a2.5,2.5 0 1 1 -5,0" stroke="#000000" stroke-width="1.5" fill="#000000" id="s_11"/><path d="m270,50l0,5l5,3l-10,5l10,5l-10,5l10,5l-10,5l5,3l0,4" fill="none" stroke="#880000" stroke-width="1.5" id="s_13"/><path d="m330,30l-5,0l-3,5l-5,-10l-5,10l-5,-10l-5,10l-5,-10l-3,5l-4,0" fill="none" stroke="#880000" stroke-width="1.5" id="s_14"/><path d="m330,110l-5,0l-3,5l-5,-10l-5,10l-5,-10l-5,10l-5,-10l-3,5l-4,0" fill="none" stroke="#880000" stroke-width="1.5" id="s_15"/><polyline fill="none" stroke="#000000" stroke-width="1.5" points="270,30 270,50 " id="s_17"/><path d="m267.5,30a2.5,2.5 0 1 1 5,0a2.5,2.5 0 1 1 -5,0" stroke="#000000" stroke-width="1.5" fill="#000000" id="s_20"/><path d="m267.5,110a2.5,2.5 0 1 1 5,0a2.5,2.5 0 1 1 -5,0" stroke="#000000" stroke-width="1.5" fill="#000000" id="s_21"/><path d="m190,50l0,5l5,3l-10,5l10,5l-10,5l10,5l-10,5l5,3l0,4" fill="none" stroke="#880000" stroke-width="1.5" id="s_23"/><path d="m250,30l-5,0l-3,5l-5,-10l-5,10l-5,-10l-5,10l-5,-10l-3,5l-4,0" fill="none" stroke="#880000" stroke-width="1.5" id="s_24"/><path d="m250,110l-5,0l-3,5l-5,-10l-5,10l-5,-10l-5,10l-5,-10l-3,5l-4,0" fill="none" stroke="#880000" stroke-width="1.5" id="s_25"/><polyline fill="none" stroke="#000000" stroke-width="1.5" points="190,30 190,50 " id="s_27"/><path d="m187.5,30a2.5,2.5 0 1 1 5,0a2.5,2.5 0 1 1 -5,0" stroke="#000000" stroke-width="1.5" fill="#000000" id="s_30"/><path d="m187.5,110a2.5,2.5 0 1 1 5,0a2.5,2.5 0 1 1 -5,0" stroke="#000000" stroke-width="1.5" fill="#000000" id="s_31"/><polyline fill="none" stroke="#000000" stroke-width="1.5" points="110,90 110,110 " id="Li5"/><polyline fill="none" stroke="#000000" stroke-width="1.5" points="190,90 190,110 " id="Li6"/><polyline fill="none" stroke="#000000" stroke-width="1.5" points="270,90 270,110 " id="Li7"/><polyline id="Li9" points="50,30 30,30 " stroke-width="1.5" stroke="#000000" fill="none"/><polyline id="Li10" points="50,110 30,110 " stroke-width="1.5" stroke="#000000" fill="none"/><polyline id="Li11" points="330,30 350,30 " stroke-width="1.5" stroke="#000000" fill="none"/><polyline id="Li12" points="330,110 350,110 " stroke-width="1.5" stroke="#000000" fill="none"/><path id="Do2" fill="#000000" stroke-width="1.5" stroke="#000000" d="m347.5,30a2.5,2.5 0 1 1 5,0a2.5,2.5 0 1 1 -5,0"/><path id="Do3" fill="#000000" stroke-width="1.5" stroke="#000000" d="m347.5,110a2.5,2.5 0 1 1 5,0a2.5,2.5 0 1 1 -5,0"/><path id="Do4" fill="#000000" stroke-width="1.5" stroke="#000000" d="m337.5,70a2.5,2.5 0 1 1 5,0a2.5,2.5 0 1 1 -5,0"/><path id="Do5" fill="#000000" stroke-width="1.5" stroke="#000000" d="m347.5,70a2.5,2.5 0 1 1 5,0a2.5,2.5 0 1 1 -5,0"/><path id="Do6" fill="#000000" stroke-width="1.5" stroke="#000000" d="m357.5,70a2.5,2.5 0 1 1 5,0a2.5,2.5 0 1 1 -5,0"/><text fill="#0000ff" font-size="14" text-anchor="middle" font-family="serif" stroke="null" id="s_1" y="19.33333" x="72.66667">R</text><text fill="#0000ff" font-size="14" text-anchor="middle" font-family="serif" stroke="null" id="s_2" y="19.33333" x="149.33333">R</text><text fill="#0000ff" font-size="14" text-anchor="middle" font-family="serif" stroke="null" id="s_9" y="19.33333" x="230">R</text><text fill="#0000ff" font-size="14" text-anchor="middle" font-family="serif" stroke="null" id="s_12" y="19.33333" x="309.33333">R</text><text fill="#0000ff" font-size="14" text-anchor="middle" font-family="serif" stroke="null" id="s_19" y="76.66667" x="96.33333">R</text><text fill="#0000ff" font-size="14" text-anchor="middle" font-family="serif" stroke="null" id="s_22" y="76" x="178.33333">R</text><text fill="#0000ff" font-size="14" text-anchor="middle" font-family="serif" stroke="null" id="s_29" y="76" x="256.66667">R</text><text fill="#0000ff" font-size="14" text-anchor="middle" font-family="serif" stroke="null" id="s_32" y="100.66667" x="68.66667">R</text><text fill="#0000ff" font-size="14" text-anchor="middle" font-family="serif" stroke="null" id="s_33" y="100" x="149.33333">R</text><text fill="#0000ff" font-size="14" text-anchor="middle" font-family="serif" stroke="null" id="s_34" y="101.33333" x="230.66667">R</text><text fill="#0000ff" font-size="14" text-anchor="middle" font-family="serif" stroke="null" id="s_35" y="100.66667" x="310.66667">R</text><text text-anchor="middle" font-family="serif" stroke="null" id="s_36" y="122.66667" x="19.33333"><tspan fill="#0000ff" font-size="14" id="s_37">R</tspan><tspan fill="#0000ff" font-size="12" dy="2" id="s_38">eq</tspan></text><polyline id="Li18" points="90,30 130,30 " stroke-width="1.5" stroke="#000000" fill="none"/><polyline id="Li19" points="90,110 130,110 " stroke-width="1.5" stroke="#000000" fill="none"/><polyline id="Li20" points="170,30 210,30 " stroke-width="1.5" stroke="#000000" fill="none"/><polyline id="Li21" points="170,110 210,110 " stroke-width="1.5" stroke="#000000" fill="none"/><polyline id="Li22" points="250,30 290,30 " stroke-width="1.5" stroke="#000000" fill="none"/><polyline id="Li23" points="250,110 290,110 " stroke-width="1.5" stroke="#000000" fill="none"/><g id="s_39"><path id="Li15" d="m40,70l-9.27184,3.74607l7.27184,-3.74607l-7.27184,-3.74607l9.27184,3.74607" stroke-width="1.5" stroke="#ff0000" fill="none"/><polyline id="Li24" points="40,70 20,70 20,70 20,110 " stroke-width="1.5" stroke="#ff0000" fill="none"/></g></g></svg>