<svg width="260" height="120" xmlns="http://www.w3.org/2000/svg" xmlns:svg="http://www.w3.org/2000/svg"><g><title>Layer 1</title><g ><path  stroke-width="1.5" stroke="#880000" fill="none" d="m70,60l5,0l3,-5l5,10l5,-10l5,10l5,-10l5,10l3,-5l4,0"/><path  stroke-width="1.5" stroke="#880000" fill="none" d="m210,60l-5,0l-3,5l-5,-10l-5,10l-5,-10l-5,10l-5,-10l-3,5l-4,0"/><text fill="#0000ff" font-size="14" text-anchor="middle" font-family="serif" stroke="null"  y="51" x="120">A</text><text fill="#0000ff" font-size="14" text-anchor="middle" font-family="serif" stroke="null"  y="51" x="160">B</text><path  stroke-width="1.5" stroke="#880000" fill="none" d="m90,100l-9,-9l-6.1,1.6l4.2,-11.2l-11.2,4.2l4.2,-11.2l-11.2,4.2l4.2,-11.2l-6.1,1.6l-9,-9"/><path  stroke-width="1.5" stroke="#880000" fill="none" d="m50,60l9,-9l-1.6,-6.1l11.2,4.2l-4.2,-11.2l11.2,4.2l-4.2,-11.2l11.2,4.2l-1.6,-6.1l9,-9"/><path  stroke-width="1.5" stroke="#880000" fill="none" d="m190,100l9,-9l-1.6,-6.1l11.2,4.2l-4.2,-11.2l11.2,4.2l-4.2,-11.2l11.2,4.2l-1.6,-6.1l9,-9"/><path  stroke-width="1.5" stroke="#880000" fill="none" d="m190,20l9,9l6.1,-1.6l-4.2,11.2l11.2,-4.2l-4.2,11.2l11.2,-4.2l-4.2,11.2l6.1,-1.6l9,9"/><polyline  points="70,60 50,60 " stroke-width="1.5" stroke="#000000" fill="none"/><polyline  points="110,60 120,60 " stroke-width="1.5" stroke="#000000" fill="none"/><path  fill="#ffffff" stroke-width="1.5" stroke="#000000" d="m116,60a4,4 0 1 1 8,0a4,4 0 1 1 -8,0"/><polyline  points="170,60 160,60 " stroke-width="1.5" stroke="#000000" fill="none"/><path  fill="#ffffff" stroke-width="1.5" stroke="#000000" d="m156,60a4,4 0 1 1 8,0a4,4 0 1 1 -8,0"/><polyline  points="210,60 230,60 " stroke-width="1.5" stroke="#000000" fill="none"/><polyline  points="190,20 20,20 " stroke-width="1.5" stroke="#000000" fill="none"/><polyline  points="30,20 20,20 20,20 20,100 " stroke-width="1.5" stroke="#000000" fill="none"/><polyline  points="20,100 190,100 " stroke-width="1.5" stroke="#000000" fill="none"/><text fill="#0000ff" font-size="14" text-anchor="middle" font-family="serif" stroke="null"  y="40" x="51.2">9Ω</text><text fill="#0000ff" font-size="14" text-anchor="middle" font-family="serif" stroke="null"  y="88.8" x="52">3Ω</text><text fill="#0000ff" font-size="14" text-anchor="middle" font-family="serif" stroke="null"  y="50.4" x="90.4">1Ω</text><text fill="#0000ff" font-size="14" text-anchor="middle" font-family="serif" stroke="null"  y="50.4" x="187.2">2Ω</text><text fill="#0000ff" font-size="14" text-anchor="middle" font-family="serif" stroke="null"  y="36" x="226.4">5Ω</text><text fill="#0000ff" font-size="14" text-anchor="middle" font-family="serif" stroke="null"  y="93.6" x="228">15Ω</text><path  fill="sRgb" stroke-width="1.5" stroke="#000000" d="m87,20a3,3 0 1 1 6,0a3,3 0 1 1 -6,0"/><path  fill="sRgb" stroke-width="1.5" stroke="#000000" d="m87,100a3,3 0 1 1 6,0a3,3 0 1 1 -6,0"/><path  fill="sRgb" stroke-width="1.5" stroke="#000000" d="m47,60a3,3 0 1 1 6,0a3,3 0 1 1 -6,0"/><path  fill="sRgb" stroke-width="1.5" stroke="#000000" d="m227,60a3,3 0 1 1 6,0a3,3 0 1 1 -6,0"/></g></g></svg>