<svg width="150" height="90" xmlns="http://www.w3.org/2000/svg" xmlns:svg="http://www.w3.org/2000/svg"><g><title>Layer 1</title><path id="S1" stroke-width="1.5" stroke="#ff0000" d="m25,32.33333l10,0m-5,-5l0,10"/><path id="S2" stroke-width="1.5" stroke="#ff0000" d="m23.66666,67l10,0"/><path d="m50,50a10,10 0 1 1 -20,0a10,10 0 1 1 20,0m-10,-20l0,10m0,20l0,10m-7,-20a3.5,3.5 0 1 1 7,0a3.5,3.5 0 1 0 7,0" fill="none" stroke="#880000" stroke-width="1.5" id="P2"/><polyline fill="none" stroke="#7f0000" stroke-width="1.5" points="110,30 110,70 130,70 130,30 110,30 " id="Li17"/><text x="120.16667" y="53.5" id="s_15" stroke="null" font-family="serif" text-anchor="middle" font-size="14" fill="#0000ff">Z</text><text x="14.83333" y="52.5" id="s_16" stroke="null" font-family="serif" text-anchor="middle" font-size="14" fill="#0000ff">v(t)</text><text x="78.16667" y="12.16667" id="s_17" stroke="null" font-family="serif" text-anchor="middle" font-size="14" fill="#0000ff">i(t)</text><polyline fill="none" stroke="#000000" stroke-width="1.5" points="40,30 40,20 40,20 120,20 " id="Li18"/><polyline id="Li20" points="120,30 120,20 120,20 110,20 " stroke-width="1.5" stroke="#000000" fill="none"/><polyline id="Li21" points="120,70 120,80 120,80 40,80 " stroke-width="1.5" stroke="#000000" fill="none"/><polyline id="Li22" points="40,70 40,80 40,80 50,80 " stroke-width="1.5" stroke="#000000" fill="none"/><path id="A-2" fill="#ff0000" stroke-width="1.5" stroke="#ff0000" d="m70,20l20,0l-10,-4l5,4l-5,4l10,-4"/></g></svg>