<svg width="620" height="570" xmlns="http://www.w3.org/2000/svg" xmlns:svg="http://www.w3.org/2000/svg"><g><title>Layer 1</title><g id="s_22"><g id="s_144"><polyline id="Li32" points="347.58331298828125,500.58331298828125 332.41668701171875,500.58331298828125 " stroke="#7f7f7f" fill="none"/><polyline id="s_105" points="347.58331298828125,490.58331298828125 332.41668701171875,490.58331298828125 " stroke="#7f7f7f" fill="none"/><polyline id="s_106" points="347.58331298828125,480.58331298828125 332.41668701171875,480.58331298828125 " stroke="#7f7f7f" fill="none"/><polyline id="s_107" points="347.58331298828125,470.58331298828125 332.41668701171875,470.58331298828125 " stroke="#7f7f7f" fill="none"/><polyline id="s_108" points="347.58331298828125,400.58331298828125 332.41668701171875,400.58331298828125 " stroke="#7f7f7f" fill="none"/><polyline id="s_109" points="347.58331298828125,390.58331298828125 332.41668701171875,390.58331298828125 " stroke="#7f7f7f" fill="none"/><polyline id="s_110" points="347.58331298828125,380.58331298828125 332.41668701171875,380.58331298828125 " stroke="#7f7f7f" fill="none"/><polyline id="s_111" points="347.58331298828125,370.58331298828125 332.41668701171875,370.58331298828125 " stroke="#7f7f7f" fill="none"/><polyline id="s_112" points="347.58331298828125,350.58331298828125 332.41668701171875,350.58331298828125 " stroke="#7f7f7f" fill="none"/><polyline id="s_113" points="347.58331298828125,340.58331298828125 332.41668701171875,340.58331298828125 " stroke="#7f7f7f" fill="none"/><polyline id="s_114" points="347.58331298828125,330.58331298828125 332.41668701171875,330.58331298828125 " stroke="#7f7f7f" fill="none"/><polyline id="s_115" points="347.58331298828125,320.58331298828125 332.41668701171875,320.58331298828125 " stroke="#7f7f7f" fill="none"/><polyline id="s_116" points="347.58331298828125,300.58331298828125 332.41668701171875,300.58331298828125 " stroke="#7f7f7f" fill="none"/><polyline id="s_117" points="347.58331298828125,290.58331298828125 332.41668701171875,290.58331298828125 " stroke="#7f7f7f" fill="none"/><polyline id="s_118" points="347.58331298828125,280.58331298828125 332.41668701171875,280.58331298828125 " stroke="#7f7f7f" fill="none"/><polyline id="s_119" points="347.58331298828125,270.58331298828125 332.41668701171875,270.58331298828125 " stroke="#7f7f7f" fill="none"/><polyline id="s_120" points="347.58331298828125,450.58331298828125 332.41668701171875,450.58331298828125 " stroke="#7f7f7f" fill="none"/><polyline id="s_121" points="347.58331298828125,440.58331298828125 332.41668701171875,440.58331298828125 " stroke="#7f7f7f" fill="none"/><polyline id="s_122" points="347.58331298828125,430.58331298828125 332.41668701171875,430.58331298828125 " stroke="#7f7f7f" fill="none"/><polyline id="s_123" points="347.58331298828125,420.58331298828125 332.41668701171875,420.58331298828125 " stroke="#7f7f7f" fill="none"/><polyline id="s_124" points="347.58331298828125,250.58331298828125 332.41668701171875,250.58331298828125 " stroke="#7f7f7f" fill="none"/><polyline id="s_125" points="347.58331298828125,240.58331298828125 332.41668701171875,240.58331298828125 " stroke="#7f7f7f" fill="none"/><polyline id="s_126" points="347.58331298828125,230.58331298828125 332.41668701171875,230.58331298828125 " stroke="#7f7f7f" fill="none"/><polyline id="s_127" points="347.58331298828125,220.58331298828125 332.41668701171875,220.58331298828125 " stroke="#7f7f7f" fill="none"/><polyline id="s_128" points="347.58331298828125,150.5833282470703 332.41668701171875,150.5833282470703 " stroke="#7f7f7f" fill="none"/><polyline id="s_129" points="347.58331298828125,140.5833282470703 332.41668701171875,140.5833282470703 " stroke="#7f7f7f" fill="none"/><polyline id="s_130" points="347.58331298828125,130.5833282470703 332.41668701171875,130.5833282470703 " stroke="#7f7f7f" fill="none"/><polyline id="s_131" points="347.58331298828125,120.58332824707031 332.41668701171875,120.58332824707031 " stroke="#7f7f7f" fill="none"/><polyline id="s_132" points="347.58331298828125,100.58332824707031 332.41668701171875,100.58332824707031 " stroke="#7f7f7f" fill="none"/><polyline id="s_133" points="347.58331298828125,90.58332824707031 332.41668701171875,90.58332824707031 " stroke="#7f7f7f" fill="none"/><polyline id="s_134" points="347.58331298828125,80.58332824707031 332.41668701171875,80.58332824707031 " stroke="#7f7f7f" fill="none"/><polyline id="s_135" points="347.58331298828125,70.58332824707031 332.41668701171875,70.58332824707031 " stroke="#7f7f7f" fill="none"/><polyline id="s_136" points="347.58331298828125,50.58332824707031 332.41668701171875,50.58332824707031 " stroke="#7f7f7f" fill="none"/><polyline id="s_137" points="347.58331298828125,40.58332824707031 332.41668701171875,40.58332824707031 " stroke="#7f7f7f" fill="none"/><polyline id="s_138" points="347.58331298828125,30.583328247070312 332.41668701171875,30.583328247070312 " stroke="#7f7f7f" fill="none"/><polyline id="s_139" points="347.58331298828125,20.583328247070312 332.41668701171875,20.583328247070312 " stroke="#7f7f7f" fill="none"/><polyline id="s_140" points="347.58331298828125,200.58331298828125 332.41668701171875,200.58331298828125 " stroke="#7f7f7f" fill="none"/><polyline id="s_141" points="347.58331298828125,190.58331298828125 332.41668701171875,190.58331298828125 " stroke="#7f7f7f" fill="none"/><polyline id="s_142" points="347.58331298828125,180.58331298828125 332.41668701171875,180.58331298828125 " stroke="#7f7f7f" fill="none"/><polyline id="s_143" points="347.58331298828125,170.58331298828125 332.41668701171875,170.58331298828125 " stroke="#7f7f7f" fill="none"/></g><g id="s_145"><polyline id="s_146" points="580,253 580,268.1666564941406 " stroke="#7f7f7f" fill="none"/><polyline id="s_147" points="570,253 570,268.1666564941406 " stroke="#7f7f7f" fill="none"/><polyline id="s_148" points="560,253 560,268.1666564941406 " stroke="#7f7f7f" fill="none"/><polyline id="s_149" points="550,253 550,268.1666564941406 " stroke="#7f7f7f" fill="none"/><polyline id="s_150" points="480,253 480,268.1666564941406 " stroke="#7f7f7f" fill="none"/><polyline id="s_151" points="470,253 470,268.1666564941406 " stroke="#7f7f7f" fill="none"/><polyline id="s_152" points="460,253 460,268.1666564941406 " stroke="#7f7f7f" fill="none"/><polyline id="s_153" points="450,253 450,268.1666564941406 " stroke="#7f7f7f" fill="none"/><polyline id="s_154" points="430,253 430,268.1666564941406 " stroke="#7f7f7f" fill="none"/><polyline id="s_155" points="420,253 420,268.1666564941406 " stroke="#7f7f7f" fill="none"/><polyline id="s_156" points="410,253 410,268.1666564941406 " stroke="#7f7f7f" fill="none"/><polyline id="s_157" points="400,253 400,268.1666564941406 " stroke="#7f7f7f" fill="none"/><polyline id="s_158" points="380,253 380,268.1666564941406 " stroke="#7f7f7f" fill="none"/><polyline id="s_159" points="370,253 370,268.1666564941406 " stroke="#7f7f7f" fill="none"/><polyline id="s_160" points="360,253 360,268.1666564941406 " stroke="#7f7f7f" fill="none"/><polyline id="s_161" points="350,253 350,268.1666564941406 " stroke="#7f7f7f" fill="none"/><polyline id="s_162" points="530,253 530,268.1666564941406 " stroke="#7f7f7f" fill="none"/><polyline id="s_163" points="520,253 520,268.1666564941406 " stroke="#7f7f7f" fill="none"/><polyline id="s_164" points="510,253 510,268.1666564941406 " stroke="#7f7f7f" fill="none"/><polyline id="s_165" points="500,253 500,268.1666564941406 " stroke="#7f7f7f" fill="none"/><polyline id="s_166" points="330,253 330,268.1666564941406 " stroke="#7f7f7f" fill="none"/><polyline id="s_167" points="320,253 320,268.1666564941406 " stroke="#7f7f7f" fill="none"/><polyline id="s_168" points="310,253 310,268.1666564941406 " stroke="#7f7f7f" fill="none"/><polyline id="s_169" points="300,253 300,268.1666564941406 " stroke="#7f7f7f" fill="none"/><polyline id="s_170" points="230,253 230,268.1666564941406 " stroke="#7f7f7f" fill="none"/><polyline id="s_171" points="220,253 220,268.1666564941406 " stroke="#7f7f7f" fill="none"/><polyline id="s_172" points="210,253 210,268.1666564941406 " stroke="#7f7f7f" fill="none"/><polyline id="s_173" points="200,253 200,268.1666564941406 " stroke="#7f7f7f" fill="none"/><polyline id="s_174" points="180,253 180,268.1666564941406 " stroke="#7f7f7f" fill="none"/><polyline id="s_175" points="170,253 170,268.1666564941406 " stroke="#7f7f7f" fill="none"/><polyline id="s_176" points="160,253 160,268.1666564941406 " stroke="#7f7f7f" fill="none"/><polyline id="s_177" points="150,253 150,268.1666564941406 " stroke="#7f7f7f" fill="none"/><polyline id="s_178" points="130,253 130,268.1666564941406 " stroke="#7f7f7f" fill="none"/><polyline id="s_179" points="120,253 120,268.1666564941406 " stroke="#7f7f7f" fill="none"/><polyline id="s_180" points="110,253 110,268.1666564941406 " stroke="#7f7f7f" fill="none"/><polyline id="s_181" points="100,253 100,268.1666564941406 " stroke="#7f7f7f" fill="none"/><polyline id="s_182" points="280,253 280,268.1666564941406 " stroke="#7f7f7f" fill="none"/><polyline id="s_183" points="270,253 270,268.1666564941406 " stroke="#7f7f7f" fill="none"/><polyline id="s_184" points="260,253 260,268.1666564941406 " stroke="#7f7f7f" fill="none"/><polyline id="s_185" points="250,253 250,268.1666564941406 " stroke="#7f7f7f" fill="none"/></g><polyline id="Li37" points="90,510 590,510 " stroke="#7f7f7f" fill="none"/><polyline id="Li38" points="90,310 590,310 " stroke="#7f7f7f" fill="none"/><polyline id="Li39" points="340,60 340,510 " stroke="#7f7f7f" fill="none"/><polyline id="Li40" points="90,260 590,260 " stroke="#7f7f7f" fill="none"/><polyline id="s_194" points="340,60 340,510 " stroke="#7f7f7f" fill="none"/><polyline id="s_196" points="90,460 590,460 " stroke="#7f7f7f" fill="none"/><polyline fill="none" stroke="#7f7f7f" points="590,10 590,510 " id="s_1"/><polyline fill="none" stroke="#7f7f7f" points="140,10 140,510 " id="s_2"/><polyline fill="none" stroke="#7f7f7f" points="90,10 90,510 " id="s_3"/><polyline fill="none" stroke="#7f7f7f" points="490,10 490,510 " id="s_4"/><polyline fill="none" stroke="#7f7f7f" points="540,10 540,510 " id="s_5"/><polyline fill="none" stroke="#7f7f7f" points="240,10 240,510 " id="s_6"/><polyline fill="none" stroke="#7f7f7f" points="190,10 190,510 " id="s_7"/><polyline fill="none" stroke="#7f7f7f" points="90,10 90,510 " id="s_8"/><polyline fill="none" stroke="#7f7f7f" points="140,10 140,510 " id="s_9"/><polyline fill="none" stroke="#7f7f7f" points="440,10 440,510 " id="s_10"/><polyline fill="none" stroke="#7f7f7f" points="390,10 390,510 " id="s_11"/><polyline fill="none" stroke="#7f7f7f" points="290,10 290,510 " id="s_12"/><polyline fill="none" stroke="#7f7f7f" points="340,10 340,510 " id="s_13"/><polyline points="90,10 590,10 " stroke="#7f7f7f" fill="none" id="s_14"/><polyline points="90,60 590,60 " stroke="#7f7f7f" fill="none" id="s_15"/><polyline points="90,110 590,110 " stroke="#7f7f7f" fill="none" id="s_16"/><polyline points="90,160 590,160 " stroke="#7f7f7f" fill="none" id="s_17"/><polyline points="90,210 590,210 " stroke="#7f7f7f" fill="none" id="s_18"/><polyline points="90,410 590,410 " stroke="#7f7f7f" fill="none" id="s_19"/><polyline points="90,360 590,360 " stroke="#7f7f7f" fill="none" id="s_20"/></g><path fill="none" stroke="#000000" stroke-width="3" d="m90,260l-18.54368,7.49213l14.54368,-7.49213l-14.54368,-7.49213l18.54368,7.49213l-30,0" id="Li57"/><text fill="#000000" font-size="36" text-anchor="middle" font-family="serif" stroke="null" id="s_24" y="547.5" x="182.5">5 V/DIV</text><text fill="#000000" font-size="36" text-anchor="middle" font-family="serif" stroke="null" id="s_26" y="547.5" x="489.5">2 s/DIV</text><polyline id="Li67" points="90,260" stroke-width="4" stroke="#0000ff" fill="none"/><polyline id="Li68" points="90,260 90,160  140,160  140,310  190,310  190,260  340,260  340,160  390,160  390,310  440,310  440,260  590,260  590,160 " stroke-width="6" stroke="#0000ff" fill="none"/><text fill="#000000" font-size="36" text-anchor="middle" font-family="serif" stroke="null" id="s_27" y="271.5" x="34.5">0V</text></g></svg>