<svg width="250" height="150" xmlns="http://www.w3.org/2000/svg" xmlns:svg="http://www.w3.org/2000/svg">
 <g stroke="null" id="svg_106">
  <title>Layer 1</title>
  <polyline stroke="#008800" stroke-width="2" id="svg_99" fill="none" points="40,35 40,15 135,15 "/>
  <polyline stroke="#008800" stroke-width="2" id="svg_98" fill="none" points="205.0049591064453,120.8099365234375 9.600000381469727,120.8099365234375 9.600000381469727,100 "/>
  <polyline stroke="#008800" stroke-width="2" id="svg_97" fill="none" points="203.875,120.80993619561195 233.875,120.80993619561195 233.875,100.80993619561195 "/>
  <polyline stroke="#008800" stroke-width="2" id="svg_96" fill="none" points="190,25.5078125 190,15 115,15 "/>
  <text stroke="null" stroke-width="2" id="svg_95" text-anchor="start" fill="#0000FF" font-size="11pt" font-family="Verdana" y="65" x="135">2Ω</text>
  <text stroke="null" stroke-width="2" id="svg_94" text-anchor="start" fill="#0000FF" font-size="11pt" font-family="Verdana" y="55" x="55">20V</text>
  <line stroke="#008800" id="svg_77" y2="100" x2="170" y1="100" x1="70" stroke-linecap="null" stroke-linejoin="null" stroke-dasharray="null" stroke-width="2" fill="none"/>
  <text stroke="null" stroke-width="2" id="svg_48" text-anchor="start" fill="#0000FF" font-size="11pt" font-family="Verdana" y="90" x="180">3Ω</text>
  <text stroke="null" stroke-width="2" id="svg_47" text-anchor="start" fill="#0000FF" font-size="11pt" font-family="Verdana" y="60" x="215">5Ω</text>
  <text stroke="null" stroke-width="2" id="svg_45" text-anchor="start" fill="#ff0000" font-size="11pt" font-family="Verdana" y="25" x="195">A</text>
  <text stroke="null" stroke-width="2" id="svg_42" text-anchor="start" fill="#ff0000" font-size="11pt" font-family="Verdana" y="95" x="134.45464">B</text>
  <text stroke="null" stroke-width="2" id="svg_41" text-anchor="start" fill="#ff0000" font-size="11pt" font-family="Verdana" y="114.65503" x="237.0502">C</text>
  <text stroke="null" stroke-width="2" id="svg_36" text-anchor="start" fill="#ff0000" font-size="11pt" font-family="Verdana" y="136.5" x="5">D</text>
  <g stroke="null" transform="rotate(90 40,50.00000000000001) " id="svg_30">
   <path stroke="#880000" stroke-width="2" id="svg_34" fill="none" d="m20,50l15,0"/>
   <path stroke="#880000" stroke-width="2" id="svg_33" fill="none" d="m60,50l-15,0"/>
   <polyline stroke="#880000" id="svg_32" stroke-linecap="round" fill="none" stroke-width="2" points="36,60 36,40 "/>
   <polyline stroke="#880000" id="svg_31" stroke-linecap="round" fill="none" stroke-width="2" points="44,57 44,45 "/>
  </g>
  <text stroke="null" stroke-width="2" id="svg_5" text-anchor="start" fill="#0000FF" font-size="11pt" font-family="Verdana" y="85" x="70">10V</text>
  <text stroke="null" stroke-width="2" id="svg_3" text-anchor="start" fill="#0000FF" font-size="11pt" font-family="Verdana" y="75" x="5">5V</text>
  <polyline stroke="null" points="0,50 5,50 8,45 13,55 18,45 22,55 27,45 32,55 35,50 40,50 " id="svg_2" opacity="0.5" stroke-linecap="null" stroke-linejoin="null" stroke-dasharray="null" stroke-width="2" fill="none"/>
  <g stroke="null" transform="rotate(-60 170.13916015625003,59.91384124755861) " id="svg_50">
   <polyline stroke="#A00000" stroke-width="2" id="svg_65" stroke-linecap="round" fill="none" points="184.96917724609375,59.913841247558594 181.96917724609375,64.9138412475586 "/>
   <polyline stroke="#A00000" stroke-width="2" id="svg_64" stroke-linecap="round" fill="none" points="176.96917724609375,54.913841247558594 171.96917724609375,64.9138412475586 "/>
   <polyline stroke="#A00000" stroke-width="2" id="svg_63" stroke-linecap="round" fill="none" points="181.96917724609375,64.9138412475586 176.96917724609375,54.913841247558594 "/>
   <path stroke="#800" stroke-width="2" id="svg_62" fill="none" d="m189.96916,59.91385l-5,0"/>
   <polyline stroke="#A00000" stroke-width="2" id="svg_61" stroke-linecap="round" fill="none" points="162.96917724609375,64.9138412475586 157.96917724609375,54.913841247558594 "/>
   <polyline stroke="#A00000" stroke-width="2" id="svg_60" stroke-linecap="round" fill="none" points="171.96917724609375,64.9138412475586 167.96917724609375,54.913841247558594 "/>
   <polyline stroke="#A00000" stroke-width="2" id="svg_59" stroke-linecap="round" fill="none" points="167.96917724609375,54.913841247558594 162.96917724609375,64.9138412475586 "/>
   <polyline stroke="#A00000" stroke-width="2" id="svg_58" stroke-linecap="round" fill="none" points="157.96917724609375,54.913841247558594 154.9691619873047,59.913841247558594 "/>
   <path stroke="#800" stroke-width="2" id="svg_57" fill="none" d="m155.30917,60.02426l-5,0"/>
  </g>
  <g stroke="null" transform="rotate(60 209.99667358398438,59.94366455078128) " id="svg_66">
   <polyline stroke="#A00000" stroke-width="2" id="svg_75" stroke-linecap="round" fill="none" points="224.82669067382812,59.94366455078125 221.82669067382812,64.94366455078125 "/>
   <polyline stroke="#A00000" stroke-width="2" id="svg_74" stroke-linecap="round" fill="none" points="216.82669067382812,54.94366455078125 211.82669067382812,64.94366455078125 "/>
   <polyline stroke="#A00000" stroke-width="2" id="svg_73" stroke-linecap="round" fill="none" points="221.82669067382812,64.94366455078125 216.82669067382812,54.94366455078125 "/>
   <path stroke="#800" stroke-width="2" id="svg_72" fill="none" d="m229.82668,59.94367l-5,0"/>
   <polyline stroke="#A00000" stroke-width="2" id="svg_71" stroke-linecap="round" fill="none" points="202.82669067382812,64.94366455078125 197.82669067382812,54.94366455078125 "/>
   <polyline stroke="#A00000" stroke-width="2" id="svg_70" stroke-linecap="round" fill="none" points="211.82669067382812,64.94366455078125 207.82669067382812,54.94366455078125 "/>
   <polyline stroke="#A00000" stroke-width="2" id="svg_69" stroke-linecap="round" fill="none" points="207.82669067382812,54.94366455078125 202.82669067382812,64.94366455078125 "/>
   <polyline stroke="#A00000" stroke-width="2" id="svg_68" stroke-linecap="round" fill="none" points="197.82669067382812,54.94366455078125 194.82669067382812,59.94366455078125 "/>
   <path stroke="#800" stroke-width="2" id="svg_67" fill="none" d="m195.16669,60.05408l-5,0"/>
  </g>
  <line stroke="#008800" id="svg_7" y2="100" x2="146.89844" y1="77.53125" x1="160" stroke-linecap="null" stroke-linejoin="null" stroke-dasharray="null" stroke-width="2" fill="none"/>
  <line stroke="#008800" id="svg_8" y2="25.47891" x2="189.67812" y1="43.51407" x1="179.86952" stroke-linecap="null" stroke-linejoin="null" stroke-dasharray="null" stroke-width="2" fill="none"/>
  <ellipse stroke="#000000" stroke-width="2" cx="147.84766" cy="100.06641" fill="#000000" id="svg_9" rx="2" ry="2"/>
  <line stroke="#008800" id="svg_18" y2="23.13751" x2="189.53749" y1="42.26251" x1="199.09999" stroke-linecap="null" stroke-linejoin="null" stroke-dasharray="null" stroke-width="2" fill="none"/>
  <line stroke="#008800" id="svg_19" y2="99.63751" x2="233.41249" y1="74.88751" x1="218.78749" stroke-linecap="null" stroke-linejoin="null" stroke-dasharray="null" stroke-width="2" fill="none"/>
  <line stroke="#008800" id="svg_20" y2="99.99753" x2="233.41249" y1="99.99753" x1="208.66249" stroke-linecap="null" stroke-linejoin="null" stroke-dasharray="null" stroke-width="2" fill="none"/>
  <ellipse stroke="#000000" stroke-width="2" cx="234.01755" cy="99.75" fill="#000000" id="svg_9" rx="2" ry="2"/>
  <ellipse stroke="#000000" stroke-width="2" cx="190" cy="25" rx="2" ry="2" fill="#000000" id="svg_35"/>
  <g stroke="null" id="svg_78">
   <polyline stroke="#A00000" stroke-width="2" id="svg_87" stroke-linecap="round" fill="none" points="204.80145263671875,99.9302749633789 201.80145263671875,104.9302749633789 "/>
   <polyline stroke="#A00000" stroke-width="2" id="svg_86" stroke-linecap="round" fill="none" points="196.80145263671875,94.9302749633789 191.80145263671875,104.9302749633789 "/>
   <polyline stroke="#A00000" stroke-width="2" id="svg_85" stroke-linecap="round" fill="none" points="201.80145263671875,104.9302749633789 196.80145263671875,94.9302749633789 "/>
   <path stroke="#800" stroke-width="2" id="svg_84" fill="none" d="m209.80145,99.93028l-5,0"/>
   <polyline stroke="#A00000" stroke-width="2" id="svg_83" stroke-linecap="round" fill="none" points="182.80145263671875,104.9302749633789 177.80145263671875,94.9302749633789 "/>
   <polyline stroke="#A00000" stroke-width="2" id="svg_82" stroke-linecap="round" fill="none" points="191.80145263671875,104.9302749633789 187.80145263671875,94.9302749633789 "/>
   <polyline stroke="#A00000" stroke-width="2" id="svg_81" stroke-linecap="round" fill="none" points="187.80145263671875,94.9302749633789 182.80145263671875,104.9302749633789 "/>
   <polyline stroke="#A00000" stroke-width="2" id="svg_80" stroke-linecap="round" fill="none" points="177.80145263671875,94.9302749633789 174.80145263671875,99.9302749633789 "/>
   <path stroke="#800" stroke-width="2" id="svg_79" fill="none" d="m175.14146,100.04069l-5,0"/>
  </g>
  <line id="svg_21" y2="95.93232" x2="14.14687" y1="100.61194" x1="9.46724" stroke-linecap="null" stroke-linejoin="null" stroke-dasharray="null" stroke-width="2" stroke="#008800" fill="none"/>
  <line stroke="#008800" id="svg_22" y2="100.40946" x2="70.50486" y1="95.93232" x1="65.89273" stroke-linecap="null" stroke-linejoin="null" stroke-dasharray="null" stroke-width="2" fill="none"/>
  <g stroke="null" id="svg_10" transform="rotate(-45 43.96319580078134,-117.78681945800777) ">
   <path stroke="#880000" stroke-width="2" id="svg_14" transform="rotate(-90 -123.53679656982422,12.21320343017579) " fill="none" d="m-123.5368,4.7132l0,15"/>
   <path stroke="#880000" stroke-width="2" id="svg_13" transform="rotate(-90 -98.53679656982422,12.21320343017579) " fill="none" d="m-98.5368,19.7132l0,-15"/>
   <polyline stroke="#880000" id="svg_12" transform="rotate(-90 -115.03680419921875,12.213195800781259) " stroke-linecap="round" fill="none" stroke-width="2" points="-125.03678894042969,12.21319580078125 -105.03678894042969,12.21319580078125 "/>
   <polyline stroke="#880000" id="svg_11" transform="rotate(-90 -107.03680419921875,13.213195800781259) " stroke-linecap="round" fill="none" stroke-width="2" points="-113.03678894042969,13.21319580078125 -101.03678894042969,13.21319580078125 "/>
  </g>
  <g stroke="null" transform="rotate(-135 54.21323013305664,84.21319580078125) " id="svg_15">
   <path stroke="#880000" stroke-width="2" id="svg_29" transform="rotate(-90 41.713218688964865,84.21321105957033) " fill="none" d="m41.71322,76.71321l0,15"/>
   <path stroke="#880000" stroke-width="2" id="svg_28" transform="rotate(-90 66.71321868896486,84.21321105957031) " fill="none" d="m66.71322,91.71321l0,-15"/>
   <polyline stroke="#880000" id="svg_17" transform="rotate(-90 50.21321868896485,84.21320343017578) " stroke-linecap="round" fill="none" stroke-width="2" points="40.213226318359375,84.21321105957031 60.213226318359375,84.21321105957031 "/>
   <polyline stroke="#880000" id="svg_16" transform="rotate(-90 58.21321105957032,85.21320343017578) " stroke-linecap="round" fill="none" stroke-width="2" points="52.213226318359375,85.21321105957031 64.21322631835938,85.21321105957031 "/>
  </g>
  <ellipse stroke="#000000" stroke-width="2" cx="40" cy="70" ry="2" rx="2" fill="#000000" id="svg_6"/>
  <g id="svg_1">
   <polyline stroke="#FF0000" id="svg_46" fill="none" stroke-width="2" points="150.35546875,100.1796875 165.58203125,100.1796875 "/>
   <polygon id="svg_47" fill="#FF0000" stroke-width="2" points="159.41796875,95.1796875 164.41796875,100.1796875 159.41796875,105.1796875 169.41796875,100.1796875 " stroke="#FF0000"/>
  </g>
  <g transform="rotate(-120.96376037597656 225.74842834472656,86.73516082763675) " id="svg_37">
   <polyline id="svg_38" stroke="#FF0000" fill="none" stroke-width="2" points="216.21717834472656,86.73516082763672 231.44374084472656,86.73516082763672 "/>
   <polygon id="svg_39" fill="#FF0000" stroke-width="2" points="225.27967834472656,81.73516082763672 230.27967834472656,86.73516082763672 225.27967834472656,91.73516082763672 235.27967834472656,86.73516082763672 " stroke="#FF0000"/>
  </g>
  <g transform="rotate(119.35774230957031 184.61561584472653,34.52812957763673) " id="svg_40">
   <polyline id="svg_43" stroke="#FF0000" fill="none" stroke-width="2" points="175.08436584472656,34.52812957763672 190.31092834472656,34.52812957763672 "/>
   <polygon id="svg_44" fill="#FF0000" stroke-width="2" points="184.14686584472656,29.52812957763672 189.14686584472656,34.52812957763672 184.14686584472656,39.52812957763672 194.14686584472656,34.52812957763672 " stroke="#FF0000"/>
  </g>
  <text id="svg_49" stroke="null" stroke-width="2" text-anchor="start" fill="#ff0000" font-size="11pt" font-family="Verdana" y="38.94844" x="161.61952">I1</text>
  <text id="svg_51" stroke="null" stroke-width="2" text-anchor="start" fill="#ff0000" font-size="11pt" font-family="Verdana" y="117.11172" x="143.02029">I2</text>
  <text id="svg_52" stroke="null" stroke-width="2" text-anchor="start" fill="#ff0000" font-size="11pt" font-family="Verdana" y="85.4711" x="231.93045">I3</text>
 </g>
</svg>