<svg width="220" height="160" xmlns="http://www.w3.org/2000/svg" xmlns:svg="http://www.w3.org/2000/svg"><g><title>Layer 1</title><path id="R1" stroke-width="1.5" stroke="#880000" fill="none" d="m90,20l5,0l3,-5l5,10l5,-10l5,10l5,-10l5,10l3,-5l4,0"/><path id="R2" stroke-width="1.5" stroke="#880000" fill="none" d="m90,140l5,0l3,-5l5,10l5,-10l5,10l5,-10l5,10l3,-5l4,0"/><path id="R3" stroke-width="1.5" stroke="#880000" fill="none" d="m170,30l0,5l5,3l-10,5l10,5l-10,5l10,5l-10,5l5,3l0,4"/><path id="R4" stroke-width="1.5" stroke="#880000" fill="none" d="m170,90l0,5l5,3l-10,5l10,5l-10,5l10,5l-10,5l5,3l0,4"/><g id="s_1"><circle id="Ci1" r="20" y="150" x="100" stroke-width="1.5" stroke="#7f0000" fill="none" cy="80" cx="50"/><path id="S1" stroke-width="1.5" stroke="#ff0000" d="m45,70l10,0m-5,-5l0,10"/><path id="S2" stroke-width="1.5" stroke="#ff0000" d="m45,90l10,0"/></g><polyline id="Li1" points="130,20 170,20 170,20 170,30 " stroke-width="1.5" stroke="#000000" fill="none"/><polyline id="Li2" points="170,70 170,90 " stroke-width="1.5" stroke="#000000" fill="none"/><polyline id="Li3" points="170,130 170,140 170,140 130,140 " stroke-width="1.5" stroke="#000000" fill="none"/><polyline id="Li4" points="90,140 50,140 50,140 50,100 " stroke-width="1.5" stroke="#000000" fill="none"/><polyline id="Li5" points="50,60 50,20 50,20 90,20 " stroke-width="1.5" stroke="#000000" fill="none"/><text fill="#0000ff" font-size="14" text-anchor="middle" font-family="serif" stroke="null" id="s_2" y="40" x="110">8kΩ</text><text fill="#0000ff" font-size="14" text-anchor="middle" font-family="serif" stroke="null" id="s_4" y="130" x="110">12kΩ</text><text fill="#0000ff" font-size="14" text-anchor="middle" font-family="serif" stroke="null" id="s_5" y="116.66667" x="185.33333">R</text><path id="S3" stroke-width="1.5" stroke="#ff0000" d="m152.33333,70l10,0"/><path id="S4" stroke-width="1.5" stroke="#ff0000" d="m151.66667,30.66666l10,0m-5,-5l0,10"/><text text-anchor="middle" font-family="serif" stroke="null" id="s_6" y="54.66667" x="152.66667"><tspan fill="#0000ff" font-size="14" id="s_7">V</tspan><tspan fill="#0000ff" font-size="12" dy="2" id="s_8">1</tspan></text><text text-anchor="middle" font-family="serif" stroke="null" id="s_9" y="83.33333" x="18"><tspan fill="#0000ff" font-size="14" id="s_10">V</tspan><tspan fill="#0000ff" font-size="12" dy="2" id="s_11">s</tspan></text><path id="A1" fill="#ff0000" stroke-width="1.5" stroke="#ff0000" d="m50,50l0,-20l-4,10l4,-5l4,5l-4,-10"/><text text-anchor="middle" font-family="serif" stroke="null" id="s_12" y="44" x="40"><tspan fill="#0000ff" font-size="14" id="s_13">I</tspan><tspan fill="#0000ff" font-size="12" dy="2" id="s_14">s</tspan></text><text fill="#0000ff" font-size="14" text-anchor="middle" font-family="serif" stroke="null" id="s_15" y="55.51042" x="193.66667">10kΩ</text></g></svg>