<svg width="220" height="200" xmlns="http://www.w3.org/2000/svg" xmlns:svg="http://www.w3.org/2000/svg"><g><title>Layer 1</title><path  stroke-width="1.5" stroke="#880000" fill="none" d="m20,103.33333l0,17m10,0l-20,0m5,6l10,0m-5,0l0,17"/><path  stroke-width="1.5" stroke="#880000" fill="none" d="m180,133.33333l0,17m10,0l-20,0m5,6l10,0m-5,0l0,17"/><path  stroke-width="1.5" stroke="#880000" fill="none" d="m80,33.33333l5,0l3,-5l5,10l5,-10l5,10l5,-10l5,10l3,-5l4,0"/><path  stroke-width="1.5" stroke="#880000" fill="none" d="m40,73.33333l5,0l3,-5l5,10l5,-10l5,10l5,-10l5,10l3,-5l4,0"/><path  stroke-width="1.5" stroke="#880000" fill="none" d="m120,73.33333l5,0l3,-5l5,10l5,-10l5,10l5,-10l5,10l3,-5l4,0"/><path  stroke-width="1.5" stroke="#880000" fill="none" d="m100,103.33333l0,5l5,3l-10,5l10,5l-10,5l10,5l-10,5l5,3l0,4"/><path  stroke-width="1.5" stroke="#880000" fill="none" d="m180,93.33333l0,5l5,3l-10,5l10,5l-10,5l10,5l-10,5l5,3l0,4"/><text fill="#0000ff" font-size="14" text-anchor="middle" font-family="serif" stroke="null"  y="130" x="50">60V</text><text fill="#0000ff" font-size="14" text-anchor="middle" font-family="serif" stroke="null"  y="160" x="200">10V</text><text fill="#0000ff" font-size="14" text-anchor="middle" font-family="serif" stroke="null"  y="20" x="100">5Ω</text><text fill="#0000ff" font-size="14" text-anchor="middle" font-family="serif" stroke="null"  y="60" x="60">4Ω</text><text fill="#0000ff" font-size="14" text-anchor="middle" font-family="serif" stroke="null"  y="60" x="140">4Ω</text><text fill="#0000ff" font-size="14" text-anchor="middle" font-family="serif" stroke="null"  y="130" x="120">5Ω</text><text fill="#0000ff" font-size="14" text-anchor="middle" font-family="serif" stroke="null"  y="120" x="200">2Ω</text><polyline points="40,73.33333587646484 20,73.33333587646484 " stroke-width="1.5" stroke="#000000" fill="none" /><polyline points="80,73.33333587646484 120,73.33333587646484 " stroke-width="1.5" stroke="#000000" fill="none" /><polyline points="160,73.33333587646484 180,73.33333587646484 " stroke-width="1.5" stroke="#000000" fill="none" /><polyline points="20,103.33333587646484 20,33.33333206176758 20,33.33333206176758 80,33.33333206176758 " stroke-width="1.5" stroke="#000000" fill="none" /><polyline points="120,33.33333206176758 180,33.33333206176758 180,33.33333206176758 180,93.33333587646484 " stroke-width="1.5" stroke="#000000" fill="none" /><polyline points="180,173.3333282470703 20,173.3333282470703 20,173.3333282470703 20,143.3333282470703 " stroke-width="1.5" stroke="#000000" fill="none" /><polyline points="100,143.3333282470703 100,173.3333282470703 " stroke-width="1.5" stroke="#000000" fill="none" /><polyline points="100,103.33333587646484 100,73.33333587646484 " stroke-width="1.5" stroke="#000000" fill="none" /><path  fill="sRgb" stroke-width="1.5" stroke="#000000" d="m17,73.33333a3,3 0 1 1 6,0a3,3 0 1 1 -6,0"/><path  fill="sRgb" stroke-width="1.5" stroke="#000000" d="m97,73.33333a3,3 0 1 1 6,0a3,3 0 1 1 -6,0"/><path  fill="sRgb" stroke-width="1.5" stroke="#000000" d="m177,73.33333a3,3 0 1 1 6,0a3,3 0 1 1 -6,0"/><path  fill="sRgb" stroke-width="1.5" stroke="#000000" d="m97,173.33333a3,3 0 1 1 6,0a3,3 0 1 1 -6,0"/><text text-anchor="middle" font-family="serif" stroke="null"  y="60" x="100"><tspan fill="#0000ff" font-size="14" >V</tspan><tspan fill="#0000ff" font-size="12" dy="2" >1</tspan></text><text text-anchor="middle" font-family="serif" stroke="null"  y="76" x="194"><tspan fill="#0000ff" font-size="14" >V</tspan><tspan fill="#0000ff" font-size="12" dy="2" >2</tspan></text><text fill="#0000ff" font-size="14" text-anchor="middle" font-family="serif" stroke="null"  y="190" x="100">b</text></g></svg>