<svg width="320" height="140" xmlns="http://www.w3.org/2000/svg" xmlns:svg="http://www.w3.org/2000/svg"><g stroke="null"><title>Layer 1</title><g ><polyline stroke-width="1.5" stroke="#880000" fill="none" points="40,90 40,50 " /><polygon stroke="#880000" fill="#880000" points="35,73 40,68 45,73 40,63 " /><circle stroke-width="1.5" stroke="#880000" fill="none" cx="40" cy="70" r="10" /></g><polyline points="90,50 90,55 95,58 85,63 95,68 85,72 95,77 85,82 90,85 90,90 " fill="none" stroke-width="1.5" stroke="#880000" /><g ><polyline stroke-width="1.5" stroke-linecap="round" stroke="#880000" fill="none" points="126,40 126,20 " /><polyline stroke-width="1.5" stroke-linecap="round" stroke="#880000" fill="none" points="134,35 134,25 " /><path stroke-width="1.5" stroke="#880000" fill="none" d="m110,30l15,0" /><path stroke-width="1.5" stroke="#880000" fill="none" d="m150,30l-15,0" /></g><polyline points="170,30 175,30 178,25 183,35 188,25 192,35 197,25 202,35 205,30 210,30 " fill="none" stroke-width="1.5" stroke="#880000" /><polyline points="230,50 230,55 235,58 225,63 235,68 225,72 235,77 225,82 230,85 230,90 " fill="none" stroke-width="1.5" stroke="#880000" /><text fill="#000000" stroke-width="0" x="210" y="70" font-size="11pt" font-family="serif" text-anchor="middle" xml:space="preserve" stroke="#000000" >3Ω</text><text fill="#000000" stroke-width="0" x="110" y="70" font-size="11pt" font-family="serif" text-anchor="middle" xml:space="preserve" stroke="#000000" >2Ω</text><g ><polyline stroke-width="1.5" stroke="#880000" fill="none" points="270,90 270,50 " /><polygon stroke="#880000" fill="#880000" points="265,73 270,68 275,73 270,63 " /><circle stroke-width="1.5" stroke="#880000" fill="none" cx="270" cy="70" r="10" /></g><polyline points="40,50 40,30 40,30 110,30" stroke-width="1.5" stroke="#000000" fill="none" /><polyline points="150,30 170,30" stroke-width="1.5" stroke="#000000" fill="none" /><polyline points="210,30 270,30 270,30 270,50" stroke-width="1.5" stroke="#000000" fill="none" /><polyline points="40,90 40,110 40,110 270,110" stroke-width="1.5" stroke="#000000" fill="none" /><polyline points="270,110 270,90" stroke-width="1.5" stroke="#000000" fill="none" /><polyline points="230,110 230,90" stroke-width="1.5" stroke="#000000" fill="none" /><polyline points="230,50 230,30" stroke-width="1.5" stroke="#000000" fill="none" /><polyline points="90,50 90,30" stroke-width="1.5" stroke="#000000" fill="none" /><polyline points="90,90 90,110" stroke-width="1.5" stroke="#000000" fill="none" /><circle r="3" cx="230" cy="30" fill="#000000" stroke="#000000" /><circle r="3" cx="90" cy="30" fill="#000000" stroke="#000000" /><g ><polyline stroke-width="1.5" stroke="#880000" fill="none" points="230,122 230,110 " /><polyline stroke-width="1.5" stroke="#880000" fill="none" points="220,122 240,122 " /><polyline stroke-width="1.5" stroke="#880000" fill="none" points="225,126 235,126 " /><polyline stroke-width="1.5" stroke="#880000" fill="none" points="227,130 233,130 " /></g><g ><circle stroke="#000000" fill="#000000" cy="110" cx="230" r="3" /></g><g ><circle stroke="#000000" fill="#000000" cy="110" cx="90" r="3" /></g><text fill="#000000" stroke-width="0" x="20" y="77" font-size="11pt" font-family="serif" text-anchor="middle" xml:space="preserve" stroke="#000000" >2A</text><text xml:space="preserve" text-anchor="middle" font-family="serif" font-size="11pt"  y="16" x="130" stroke-linecap="null" stroke-linejoin="null" stroke-dasharray="null" stroke-width="0" stroke="#000000" fill="#000000">3V</text><text xml:space="preserve" text-anchor="middle" font-family="serif" font-size="11pt"  y="90" x="290" stroke-linecap="null" stroke-linejoin="null" stroke-dasharray="null" stroke-width="0" stroke="#000000" fill="#000000">1A</text><text fill="#000000" stroke-width="0" x="190" y="17" font-size="11pt" font-family="serif" text-anchor="middle" xml:space="preserve" stroke="#000000" >1Ω</text><text text-anchor="middle" font-family="serif" stroke="null"  y="18" x="231"><tspan fill="#000000" font-size="11pt" >V</tspan><tspan dx="0" fill="#000000" font-size="10pt" dy="2" >a</tspan></text></g></svg>