<svg width="300" height="130" xmlns="http://www.w3.org/2000/svg" xmlns:svg="http://www.w3.org/2000/svg"><g><title>Layer 1</title><polyline stroke-width="1.5" stroke="#880000" fill="none" points="50,30 55,30 58,25 63,35 68,25 72,35 77,25 82,35 85,30 90,30 " /><g ><polyline stroke-width="1.5" stroke="#880000" fill="none" points="280,90 280,50 " /><polygon stroke="#880000" fill="#880000" points="275,73 280,68 285,73 280,63 " /><circle stroke-width="1.5" stroke="#880000" fill="none" cx="280" cy="70" r="10" /></g><text xml:space="preserve" text-anchor="middle" font-family="serif" font-size="11pt"  y="20" x="70" stroke-width="0" stroke="#880000" fill="#000000">3Ω</text><g ><polyline stroke-width="1.5" stroke="#880000" fill="none" points="20,66 40,66 " /><polyline stroke-width="1.5" stroke="#880000" fill="none" points="25,74 35,74 " /><path stroke-width="1.5" stroke="#880000" fill="none" d="m30,50l0,16m10,0l-20,0m10,8l0,16" /><path stroke-width="1.5" stroke="#880000" fill="none" d="m30,90l0,-16" /></g><polyline stroke-width="1.5" stroke="#880000" fill="none" points="110,50 110,55 115,58 105,63 115,68 105,72 115,77 105,82 110,85 110,90 " /><g ><polyline stroke-width="1.5" stroke="#880000" fill="none" points="156,40 156,20 " /><polyline stroke-width="1.5" stroke="#880000" fill="none" points="164,35 164,25 " /><path stroke-width="1.5" stroke="#880000" fill="none" d="m140,30l16,0m0,-10l0,20m8,-10l16,0" /><path stroke-width="1.5" stroke="#880000" fill="none" d="m180,30l-16,0" /></g><polyline stroke-width="1.5" stroke="#880000" fill="none" points="210,50 210,55 215,58 205,63 215,68 205,72 215,77 205,82 210,85 210,90 " /><circle stroke="#000000" fill="#000000" cx="110" cy="30" r="3" /><circle stroke="#000000" fill="#000000" cx="210" cy="30" r="3" /><circle stroke="#000000" fill="#000000" cx="110" cy="110" r="3" /><circle stroke="#000000" fill="#000000" cx="210" cy="110" r="3" /><polyline  fill="none" stroke="#000000" stroke-width="1.5" points="30,50 30,30 30,30 50,30"/><polyline  fill="none" stroke="#000000" stroke-width="1.5" points="90,30 140,30"/><polyline  fill="none" stroke="#000000" stroke-width="1.5" points="180,30 280,30 280,30 280,50"/><polyline  fill="none" stroke="#000000" stroke-width="1.5" points="110,50 110,30"/><polyline  fill="none" stroke="#000000" stroke-width="1.5" points="110,90 110,110"/><polyline  fill="none" stroke="#000000" stroke-width="1.5" points="210,90 210,110"/><polyline  fill="none" stroke="#000000" stroke-width="1.5" points="210,50 210,30"/><polyline  fill="none" stroke="#000000" stroke-width="1.5" points="280,90 280,110"/><line fill="none" stroke="#000000" stroke-width="1.5" stroke-dasharray="null" stroke-linejoin="null" stroke-linecap="null" x1="153.96387" y1="74.45702" x2="210.44239" y2="30.31835" /><line fill="none" stroke="#000000" stroke-width="1.5" stroke-dasharray="null" stroke-linejoin="null" stroke-linecap="null" x1="169.15138" y1="77.54198" x2="110.77442" y2="30.55565" /><line fill="none" stroke="#000000" stroke-width="1.5" stroke-dasharray="null" stroke-linejoin="null" stroke-linecap="null" x1="197.62794" y1="99.84862" x2="209.96778" y2="110.29003" /><line fill="none" stroke="#000000" stroke-width="1.5" stroke-dasharray="null" stroke-linejoin="null" stroke-linecap="null" x1="127.38575" y1="96.28905" x2="109.35059" y2="111.00194" /><polyline transform="rotate(50.43069839477539 139.28125000000003,86.74999999999997) " stroke-width="1.5" stroke="#880000" fill="none" points="139.28125,66.75 139.28125,71.75 144.28125,74.75 134.28125,79.75 144.28125,84.75 134.28125,88.75 144.28125,93.75 134.28125,98.75 139.28125,101.75 139.28125,106.75 " /><polyline transform="rotate(-51.97393798828125 184.00000000000003,89.234375) " stroke-width="1.5" stroke="#880000" fill="none" points="184,69.234375 184,74.234375 189,77.234375 179,82.234375 189,87.234375 179,91.234375 189,96.234375 179,101.234375 184,104.234375 184,109.234375 " /><text xml:space="preserve" text-anchor="middle" font-family="serif" font-size="11pt"  y="16" x="161" stroke-width="0" stroke="#880000" fill="#000000">3V</text><text fill="#000000" stroke="#880000" stroke-width="0" stroke-dasharray="null" stroke-linejoin="null" stroke-linecap="null" x="88.5" y="74.5"  font-size="11pt" font-family="serif" text-anchor="middle" xml:space="preserve">24Ω</text><text fill="#000000" stroke="#880000" stroke-width="0" stroke-dasharray="null" stroke-linejoin="null" stroke-linecap="null" x="127.5" y="77.5"  font-size="11pt" font-family="serif" text-anchor="middle" xml:space="preserve">5Ω</text><text fill="#000000" stroke="#880000" stroke-width="0" stroke-dasharray="null" stroke-linejoin="null" stroke-linecap="null" x="190.5" y="80.5"  font-size="11pt" font-family="serif" text-anchor="middle" xml:space="preserve">8Ω</text><text fill="#000000" stroke="#880000" stroke-width="0" stroke-dasharray="null" stroke-linejoin="null" stroke-linecap="null" x="230.5" y="75.5"  font-size="11pt" font-family="serif" text-anchor="middle" xml:space="preserve">20Ω</text><text fill="#000000" stroke="#880000" stroke-width="0" stroke-dasharray="null" stroke-linejoin="null" stroke-linecap="null" x="257.5" y="76.5"  font-size="11pt" font-family="serif" text-anchor="middle" xml:space="preserve">3A</text><polyline  fill="none" stroke="#000000" stroke-width="1.5" points="30,90 30,110 30,110 280,110"/><text fill="#000000" stroke="#880000" stroke-width="0" stroke-dasharray="null" stroke-linejoin="null" stroke-linecap="null" x="54.5" y="73.5"  font-size="11pt" font-family="serif" text-anchor="middle" xml:space="preserve">18V</text><text x="209.5" y="21.5"  stroke="null" font-family="serif" text-anchor="middle"><tspan  font-size="11pt" fill="#000000">V</tspan><tspan  dy="2" font-size="10pt" fill="#000000" dx="0">a</tspan></text></g></svg>