<svg width="300" height="150" xmlns="http://www.w3.org/2000/svg" xmlns:svg="http://www.w3.org/2000/svg"><g><title>Layer 1</title><polyline stroke-width="1.5" stroke="#880000" fill="none" points="30,40 35,40 38,35 43,45 48,35 52,45 57,35 62,45 65,40 70,40 " /><polyline stroke-width="1.5" stroke="#880000" fill="none" points="80,60 80,65 85,68 75,73 85,78 75,82 85,87 75,92 80,95 80,100 " /><polyline stroke-width="1.5" stroke="#880000" fill="none" points="140,100 140,95 135,92 145,87 135,82 145,78 135,73 145,68 140,65 140,60 " /><g ><polyline stroke-width="1.5" stroke="#880000" fill="none" points="20,100 20,60 " /><polygon stroke="#880000" fill="#880000" points="15,83 20,78 25,83 20,73 " /><circle stroke-width="1.5" stroke="#880000" fill="none" cx="20" cy="80" r="10" /></g><polyline stroke-width="1.5" stroke="#880000" fill="none" points="200,60 200,65 205,68 195,73 205,78 195,82 205,87 195,92 200,95 200,100 " /><text xml:space="preserve" text-anchor="middle" font-family="serif" font-size="11pt"  y="84" x="42" stroke-width="0" stroke="#000000" fill="#000000">6A</text><text xml:space="preserve" text-anchor="middle" font-family="serif" font-size="11pt"  y="84" x="98" stroke-width="0" stroke="#000000" fill="#000000">3Ω</text><text xml:space="preserve" text-anchor="middle" font-family="serif" font-size="11pt"  y="84" x="159" stroke-width="0" stroke="#000000" fill="#000000">3Ω</text><text xml:space="preserve" text-anchor="middle" font-family="serif" font-size="11pt"  y="84" x="218" stroke-width="0" stroke="#000000" fill="#000000">6Ω</text><polyline stroke-width="1.5" stroke="#880000" fill="none" points="130,40 125,40 122,45 117,35 112,45 108,35 103,45 98,35 95,40 90,40 " /><polyline stroke-width="1.5" stroke="#880000" fill="none" points="150,40 155,40 158,35 163,45 168,35 172,45 177,35 182,45 185,40 190,40 " /><g ><polyline stroke-width="1.5" stroke-linecap="round" stroke="#880000" fill="none" points="240,76 260,76 " /><polyline stroke-width="1.5" stroke-linecap="round" stroke="#880000" fill="none" points="245,84 255,84 " /><path stroke-width="1.5" stroke="#880000" fill="none" d="m250,60l0,15" /><path stroke-width="1.5" stroke="#880000" fill="none" d="m250,100l0,-15" /></g><text xml:space="preserve" text-anchor="middle" font-family="serif" font-size="11pt"  y="30" x="170" stroke-width="0" stroke="#000000" fill="#000000">2Ω</text><text xml:space="preserve" text-anchor="middle" font-family="serif" font-size="11pt"  y="30" x="110" stroke-width="0" stroke="#000000" fill="#000000">3Ω</text><text xml:space="preserve" text-anchor="middle" font-family="serif" font-size="11pt"  y="30" x="50" stroke-width="0" stroke="#000000" fill="#000000">6Ω</text><polyline points="20,60 20,40 20,40 30,40" stroke-width="1.5" stroke="#000000" fill="none" /><polyline points="70,40 90,40" stroke-width="1.5" stroke="#000000" fill="none" /><polyline points="80,60 80,40" stroke-width="1.5" stroke="#000000" fill="none" /><polyline points="130,40 150,40" stroke-width="1.5" stroke="#000000" fill="none" /><polyline points="140,60 140,40" stroke-width="1.5" stroke="#000000" fill="none" /><polyline points="190,40 250,40 250,40 250,60" stroke-width="1.5" stroke="#000000" fill="none" /><polyline points="200,60 200,40" stroke-width="1.5" stroke="#000000" fill="none" /><polyline points="20,100 20,120 20,120 250,120" stroke-width="1.5" stroke="#000000" fill="none" /><polyline points="250,120 250,100" stroke-width="1.5" stroke="#000000" fill="none" /><polyline points="200,120 200,100" stroke-width="1.5" stroke="#000000" fill="none" /><polyline points="140,120 140,100" stroke-width="1.5" stroke="#000000" fill="none" /><polyline points="80,120 80,100" stroke-width="1.5" stroke="#000000" fill="none" /><g ><circle stroke="#000000" fill="#000000" cy="40" cx="80" r="3" /></g><g ><circle stroke="#000000" fill="#000000" cy="120" cx="80" r="3" /></g><g ><circle stroke="#000000" fill="#000000" cy="40" cx="140" r="3" /></g><g ><circle stroke="#000000" fill="#000000" cy="120" cx="140" r="3" /></g><g ><circle stroke="#000000" fill="#000000" cy="40" cx="200" r="3" /></g><g ><circle stroke="#000000" fill="#000000" cy="120" cx="200" r="3" /></g><text text-anchor="middle" font-family="serif" stroke="null"  y="30.2" x="139.8"><tspan fill="#000000" font-size="11pt" >V</tspan><tspan dx="0" fill="#000000" font-size="10pt" dy="2" >a</tspan></text><text xml:space="preserve" text-anchor="middle" font-family="serif" font-size="11pt"  y="84" x="274" stroke-width="0" stroke="#000000" fill="#000000">10V</text></g></svg>