<svg width="300" height="140" xmlns="http://www.w3.org/2000/svg" xmlns:svg="http://www.w3.org/2000/svg"><g><title>Layer 1</title><path  d="m60,30l5,0l3,-5l5,10l5,-10l5,10l5,-10l5,10l3,-5l4,0" fill="none" stroke="#880000" stroke-width="1.5"/><path  d="m180,30l5,0l3,-5l5,10l5,-10l5,10l5,-10l5,10l3,-5l4,0" fill="none" stroke="#880000" stroke-width="1.5"/><path  d="m160,50l0,5l5,3l-10,5l10,5l-10,5l10,5l-10,5l5,3l0,4" fill="none" stroke="#880000" stroke-width="1.5"/><path  d="m270,50l0,5l5,3l-10,5l10,5l-10,5l10,5l-10,5l5,3l0,4" fill="none" stroke="#880000" stroke-width="1.5"/><path  d="m40,50l0,17m10,0l-20,0m5,6l10,0m-5,0l0,17" fill="none" stroke="#880000" stroke-width="1.5"/><path  d="m120,90l0,-40m0,10a10,10 0 1 1 0,20a10,10 0 1 1 0,-20m0,3l-4,8l4,-6l4,6l-4,-7" fill="none" stroke="#880000" stroke-width="1.5"/><text  x="15.48571" y="73.82857" stroke="null" font-family="serif" text-anchor="middle" font-size="14" fill="#0000ff">18V</text><text  x="176.62857" y="74.97143" stroke="null" font-family="serif" text-anchor="middle" font-size="14" fill="#0000ff">3Ω</text><text  x="201.2" y="20.11429" stroke="null" font-family="serif" text-anchor="middle" font-size="14" fill="#0000ff">3Ω</text><text  x="79.48571" y="20.11429" stroke="null" font-family="serif" text-anchor="middle" font-size="14" fill="#0000ff">6Ω</text><text  x="100.05714" y="73.82857" stroke="null" font-family="serif" text-anchor="middle" font-size="14" fill="#0000ff">3A</text><text  x="288.48571" y="72.68571" stroke="null" font-family="serif" text-anchor="middle"><tspan  font-size="14" fill="#0000ff">R</tspan><tspan  dy="2" font-size="12" fill="#0000ff">L</tspan></text><text  fill="#0000ff" font-size="14" text-anchor="middle" font-family="serif" stroke="null" y="21.71429" x="241.14286">a</text><text  fill="#0000ff" font-size="14" text-anchor="middle" font-family="serif" stroke="null" y="128.85714" x="243.42857">b</text><polyline  points="40,50 40,30 40,30 60,30 " stroke-width="1.5" stroke="#000000" fill="none"/><polyline  points="100,30 180,30 " stroke-width="1.5" stroke="#000000" fill="none"/><polyline  points="220,30 270,30 270,30 270,50 " stroke-width="1.5" stroke="#000000" fill="none"/><polyline  points="270,90 270,110 270,110 40,110 " stroke-width="1.5" stroke="#000000" fill="none"/><polyline  points="40,110 40,90 " stroke-width="1.5" stroke="#000000" fill="none"/><polyline  points="120,90 120,110 " stroke-width="1.5" stroke="#000000" fill="none"/><polyline  points="160,90 160,110 " stroke-width="1.5" stroke="#000000" fill="none"/><polyline  points="160,50 160,30 " stroke-width="1.5" stroke="#000000" fill="none"/><polyline  points="120,50 120,30 " stroke-width="1.5" stroke="#000000" fill="none"/><circle  stroke="#000000" fill="#000000" cy="30" cx="120" r="3"/><circle  stroke="#000000" fill="#000000" cy="30" cx="160" r="3"/><circle  stroke="#000000" fill="#000000" cy="110" cx="160" r="3"/><circle  stroke="#000000" fill="#000000" cy="110" cx="240" r="3"/><circle  stroke="#000000" fill="#000000" cy="30" cx="240" r="3"/><text  x="161" y="20.5" stroke="null" font-family="serif" text-anchor="middle"><tspan  font-size="14" fill="#0000ff">V</tspan><tspan  dy="2" font-size="12" fill="#0000ff">c</tspan></text><path stroke-width="1.5" stroke="#880000" fill="none" d="m120,110l0,12m-10,0l20,0m-5,4l-10,0m2,4l6,0" /><circle  stroke="#000000" fill="#000000" cy="110" cx="120" r="3"/></g></svg>