<svg width="300" height="220" xmlns="http://www.w3.org/2000/svg" xmlns:svg="http://www.w3.org/2000/svg"><g><title>Layer 1</title><polyline  points="120,130 120,135 125,138 115,143 125,148 115,152 125,157 115,162 120,165 120,170 " fill="none" stroke="#880000" stroke-width="1.5"/><polyline  points="120,50 120,55 125,58 115,63 125,68 115,72 125,77 115,82 120,85 120,90 " fill="none" stroke="#880000" stroke-width="1.5"/><circle  r="3" cx="120" cy="110" fill="#000000" stroke="#000000"/><polyline  points="140,110 145,110 148,105 153,115 158,105 162,115 167,105 172,115 175,110 180,110 " fill="none" stroke="#880000" stroke-width="1.5"/><polyline  points="60,110 65,110 68,105 73,115 78,105 82,115 87,105 92,115 95,110 100,110 " fill="none" stroke="#880000" stroke-width="1.5"/><polyline  points="200,130 200,135 205,138 195,143 205,148 195,152 205,157 195,162 200,165 200,170 " fill="none" stroke="#880000" stroke-width="1.5"/><polyline  points="220,110 225,110 228,105 233,115 238,105 242,115 247,105 252,115 255,110 260,110 " fill="none" stroke="#880000" stroke-width="1.5"/><polyline  points="200,50 200,55 205,58 195,63 205,68 195,72 205,77 195,82 200,85 200,90 " fill="none" stroke="#880000" stroke-width="1.5"/><circle  r="3" cx="200" cy="110" fill="#000000" stroke="#000000"/><text fill="#000000" stroke="#000000" stroke-width="0" x="121" y="213"  font-size="11pt" font-family="serif" text-anchor="middle" xml:space="preserve">4V</text><text fill="#000000" stroke="#000000" stroke-width="0" x="17" y="114"  font-size="11pt" font-family="serif" text-anchor="middle" xml:space="preserve">-2V</text><text fill="#000000" stroke="#000000" stroke-width="0" x="121" y="15"  font-size="11pt" font-family="serif" text-anchor="middle" xml:space="preserve">12V</text><polyline  fill="none" stroke="#000000" stroke-width="1.5" points="60,110 40,110"/><polyline  fill="none" stroke="#000000" stroke-width="1.5" points="100,110 140,110"/><polyline  fill="none" stroke="#000000" stroke-width="1.5" points="120,130 120,90"/><polyline  fill="none" stroke="#000000" stroke-width="1.5" points="120,50 120,30"/><polyline  fill="none" stroke="#000000" stroke-width="1.5" points="200,50 200,30"/><polyline  fill="none" stroke="#000000" stroke-width="1.5" points="200,90 200,130"/><polyline  fill="none" stroke="#000000" stroke-width="1.5" points="180,110 220,110"/><polyline  fill="none" stroke="#000000" stroke-width="1.5" points="120,170 120,190"/><polyline  fill="none" stroke="#000000" stroke-width="1.5" points="200,170 200,190"/><polyline  fill="none" stroke="#000000" stroke-width="1.5" points="260,110 280,110"/><text x="132.5" y="99.5"  stroke="null" font-family="serif" text-anchor="middle" fill="black"><tspan  font-size="11pt" fill="#0000ff">V</tspan><tspan  dy="2" font-size="10pt" fill="#0000ff" dx="0">2</tspan></text><text fill="#000000" stroke="#000000" stroke-width="0" stroke-dasharray="null" stroke-linejoin="null" stroke-linecap="null" x="100" y="80"  font-size="11pt" font-family="serif" text-anchor="middle" xml:space="preserve">2立</text><text xml:space="preserve" text-anchor="middle" font-family="serif" font-size="11pt"  y="100" x="70" stroke-linecap="null" stroke-linejoin="null" stroke-dasharray="null" stroke-width="0" stroke="#000000" fill="#000000">3立</text><text xml:space="preserve" text-anchor="middle" font-family="serif" font-size="11pt"  y="160" x="140" stroke-linecap="null" stroke-linejoin="null" stroke-dasharray="null" stroke-width="0" stroke="#000000" fill="#000000">6立</text><text xml:space="preserve" text-anchor="middle" font-family="serif" font-size="11pt"  y="100" x="160" stroke-linecap="null" stroke-linejoin="null" stroke-dasharray="null" stroke-width="0" stroke="#000000" fill="#000000">2立</text><text xml:space="preserve" text-anchor="middle" font-family="serif" font-size="11pt"  y="160" x="230" stroke-linecap="null" stroke-linejoin="null" stroke-dasharray="null" stroke-width="0" stroke="#000000" fill="#000000">4A</text><g ><polyline  points="214,160 214,145 " fill="none" stroke="#FF0000" stroke-linecap="round" stroke-width="1.5"/><polygon  points="210,150 214,145 218,150 214,140 " fill="#FF0000" stroke="#FF0000" stroke-width="0.5"/></g><g ><polyline  points="213,80 213,65 " fill="none" stroke="#FF0000" stroke-linecap="round" stroke-width="1.5"/><polygon  points="209,70 213,65 217,70 213,60 " fill="#FF0000" stroke="#FF0000" stroke-width="0.5"/></g><g ><polyline  points="231,123 246,123 " fill="none" stroke="#FF0000" stroke-linecap="round" stroke-width="1.5"/><polygon  points="241,119 246,123 241,127 251,123 " fill="#FF0000" stroke="#FF0000" stroke-width="0.5"/></g><text xml:space="preserve" text-anchor="middle" font-family="serif" font-size="11pt"  y="138" x="240" stroke-linecap="null" stroke-linejoin="null" stroke-dasharray="null" stroke-width="0" stroke="#000000" fill="#000000">6A</text><text xml:space="preserve" text-anchor="middle" font-family="serif" font-size="11pt"  y="75" x="227" stroke-linecap="null" stroke-linejoin="null" stroke-dasharray="null" stroke-width="0" stroke="#000000" fill="#000000">3A</text><text x="214.5" y="100.5"  stroke="null" font-family="serif" text-anchor="middle" stroke-width="0" fill="none"><tspan  font-size="11pt" fill="#0000ff">V</tspan><tspan  dy="2" font-size="10pt" fill="#0000ff" dx="0">1</tspan></text></g><g><title>Layer 2</title><circle  r="4" cx="120" cy="30" fill="#ffffff" stroke="#000000" stroke-width="1.5"/><circle  r="4" cx="40" cy="110" fill="#ffffff" stroke="#000000" stroke-width="1.5"/><circle  r="4" cx="120" cy="190" fill="#ffffff" stroke="#000000" stroke-width="1.5"/><circle  r="4" cx="200" cy="190" fill="#ffffff" stroke="#000000" stroke-width="1.5"/><circle  r="4" cx="280" cy="110" fill="#ffffff" stroke="#000000" stroke-width="1.5"/><circle  r="4" cx="200" cy="30" fill="#ffffff" stroke="#000000" stroke-width="1.5"/></g></svg>