<svg width="320" height="150" xmlns="http://www.w3.org/2000/svg" xmlns:svg="http://www.w3.org/2000/svg"><g><title>Layer 1</title><polyline  points="40,30 45,30 48,25 53,35 58,25 62,35 67,25 72,35 75,30 80,30 " fill="none" stroke="#880000" stroke-width="1.5"/><polyline  points="100,50 100,55 105,58 95,63 105,68 95,72 105,77 95,82 100,85 100,90 " fill="none" stroke="#880000" stroke-width="1.5"/><polyline  points="160,50 160,55 165,58 155,63 165,68 155,72 165,77 155,82 160,85 160,90 " fill="none" stroke="#880000" stroke-width="1.5"/><g ><polyline  points="20,90 20,50 " fill="none" stroke="#880000" stroke-width="1.5"/><polygon  points="15,73 20,68 25,73 20,63 " fill="#880000" stroke="#880000"/><circle  r="10" cy="70" cx="20" fill="none" stroke="#880000" stroke-width="1.5"/></g><text  fill="#000000" stroke="#000000" stroke-width="0" x="42" y="89" font-size="11pt" font-family="serif" text-anchor="middle" xml:space="preserve">10A</text><text  fill="#000000" stroke="#000000" stroke-width="0" x="60" y="20" font-size="11pt" font-family="serif" text-anchor="middle" xml:space="preserve">10Ω</text><text  fill="#000000" stroke="#000000" stroke-width="0" x="80" y="80" font-size="11pt" font-family="serif" text-anchor="middle" xml:space="preserve">3Ω</text><text  fill="#000000" stroke="#000000" stroke-width="0" x="140" y="80" font-size="11pt" font-family="serif" text-anchor="middle" xml:space="preserve">6Ω</text><text  fill="#000000" stroke="#000000" stroke-width="0" x="190" y="30" font-size="11pt" font-family="serif" text-anchor="middle" xml:space="preserve">a</text><text  fill="#000000" stroke="#000000" stroke-width="0" x="160" y="150" font-size="11pt" font-family="serif" text-anchor="middle" xml:space="preserve"/><polyline  fill="none" stroke="#000000" stroke-width="1.5" points="20,50 20,30 20,30 40,30"/><polyline  fill="none" stroke="#000000" stroke-width="1.5" points="80,30 100,30 100,30 100,50"/><polyline  fill="none" stroke="#000000" stroke-width="1.5" points="100,30 160,30 160,30 160,50"/><polyline  fill="none" stroke="#000000" stroke-width="1.5" points="160,30 180,30"/><polyline  fill="none" stroke="#000000" stroke-width="1.5" points="20,90 20,120 20,120 180,120"/><polyline  fill="none" stroke="#000000" stroke-width="1.5" points="100,90 100,120"/><polyline  fill="none" stroke="#000000" stroke-width="1.5" points="160,90 160,120"/><g ><polyline  points="230,100 230,60 " fill="none" stroke="#880000" stroke-width="1.5"/><circle  r="10" cy="80" cx="230" fill="#ffffff" stroke="#880000" stroke-width="1.5"/></g><polyline  points="280,30 275,30 272,35 267,25 262,35 258,25 253,35 248,25 245,30 240,30 " fill="none" stroke="#880000" stroke-width="1.5"/><g ><circle  r="3" cx="100" cy="30" fill="#000000" stroke="#000000"/></g><g ><circle  r="3" cx="160" cy="30" fill="#000000" stroke="#000000"/></g><g ><circle  r="3" cx="100" cy="120" fill="#000000" stroke="#000000"/></g><g ><circle  r="3" cx="160" cy="120" fill="#000000" stroke="#000000"/></g><g ><circle  r="4" cx="180" cy="120" fill="#ffffff" stroke="#000000" stroke-width="1.5"/></g><polyline  fill="none" stroke="#000000" stroke-width="1.5" points="230,100 230,120 230,120 290,120"/><polyline  fill="none" stroke="#000000" stroke-width="1.5" points="230,60 230,30 230,30 240,30"/><polyline  fill="none" stroke="#000000" stroke-width="1.5" points="280,30 290,30"/><g ><circle  r="4" cx="290" cy="30" stroke-width="1.5" stroke="#000000" fill="#ffffff"/></g><g ><circle  r="4" cx="290" cy="120" stroke-width="1.5" stroke="#000000" fill="#ffffff"/></g><polyline  fill="none" stroke="#FF0000" stroke-width="1.5" points="233.5,60.5 243.5,60.5 238.5,60.5 238.5,55.5 238.5,65.5 "/><polyline  fill="none" stroke="#FF0000" stroke-width="1.5" points="235.5,96.5 245.5,96.5 "/><text  x="265" y="49" stroke="null" font-family="serif" text-anchor="middle"><tspan  font-size="11pt" fill="#000000">R</tspan><tspan  dy="2" font-size="10pt" fill="#000000" dx="0">th</tspan></text><text  x="254" y="84" stroke="null" font-family="serif" text-anchor="middle"><tspan  font-size="11pt" fill="#000000">E</tspan><tspan  dy="2" font-size="10pt" fill="#000000" dx="0">th</tspan></text><text  fill="#000000" stroke="#000000" stroke-width="0" stroke-dasharray="null" stroke-linejoin="null" stroke-linecap="null" x="302" y="33" font-size="11pt" font-family="serif" text-anchor="middle" xml:space="preserve">a</text><text  fill="#000000" stroke="#000000" stroke-width="0" stroke-dasharray="null" stroke-linejoin="null" stroke-linecap="null" x="301" y="124" font-size="11pt" font-family="serif" text-anchor="middle" xml:space="preserve">b</text><g ><circle  r="4" cx="180" cy="30" fill="#ffffff" stroke="#000000" stroke-width="1.5"/></g><text  fill="#000000" stroke="#000000" stroke-width="0" x="191" y="124" font-size="11pt" font-family="serif" text-anchor="middle" xml:space="preserve">b</text></g></svg>