<svg width="230" height="140" xmlns="http://www.w3.org/2000/svg" xmlns:svg="http://www.w3.org/2000/svg">
<g>
<title>Layer 1</title>
<polyline stroke-width="1.5" stroke="#880000" fill="none" points="40,40 45,40 48,35 53,45 58,35 62,45 67,35 72,45 75,40 80,40 " />
<polyline stroke-width="1.5" stroke="#880000" fill="none" points="40,100 45,100 48,95 53,105 58,95 62,105 67,95 72,105 75,100 80,100 " />
<polyline stroke-width="1.5" stroke="#880000" fill="none" points="100,50 100,55 105,58 95,63 105,68 95,72 105,77 95,82 100,85 100,90 " />
<polyline stroke-width="1.5" stroke="#880000" fill="none" points="120,40 125,40 128,35 133,45 138,35 142,45 147,35 152,45 155,40 160,40 " />
<polyline stroke-width="1.5" stroke="#880000" fill="none" points="120,100 125,100 128,95 133,105 138,95 142,105 147,95 152,105 155,100 160,100 " />
<polyline stroke-width="1.5" stroke="#880000" fill="none" points="180,50 180,55 185,58 175,63 185,68 175,72 185,77 175,82 180,85 180,90 " />
<polyline points="80,40 120,40" stroke-width="1.5" stroke="#000000" fill="none" />
<polyline points="100,50 100,40" stroke-width="1.5" stroke="#000000" fill="none" />
<polyline points="80,100 120,100" stroke-width="1.5" stroke="#000000" fill="none" />
<polyline points="100,100 100,90" stroke-width="1.5" stroke="#000000" fill="none" />
<polyline points="160,100 180,100 180,100 180,90" stroke-width="1.5" stroke="#000000" fill="none" />
<polyline points="180,50 180,40 180,40 160,40" stroke-width="1.5" stroke="#000000" fill="none" />
<polyline points="40,100 30,100" stroke-width="1.5" stroke="#000000" fill="none" />
<polyline points="30,100 30,120 30,120 180,120" stroke-width="1.5" stroke="#000000" fill="none" />
<polyline points="180,120 180,100" stroke-width="1.5" stroke="#000000" fill="none" />
<polyline points="180,100 200,100" stroke-width="1.5" stroke="#000000" fill="none" />
<polyline points="180,40 180,10" stroke-width="1.5" stroke="#000000" fill="none" />
<polyline points="180,10 30,10" stroke-width="1.5" stroke="#000000" fill="none" />
<polyline points="30,10 30,40" stroke-width="1.5" stroke="#000000" fill="none" />
<text xml:space="preserve" text-anchor="middle" font-family="serif" font-size="11pt"  y="30" x="140" stroke-width="0" stroke="#000000" fill="#000000">6Ω</text>
<text xml:space="preserve" text-anchor="middle" font-family="serif" font-size="11pt"  y="90" x="60" stroke-width="0" stroke="#000000" fill="#000000">4Ω</text>
<text xml:space="preserve" text-anchor="middle" font-family="serif" font-size="11pt"  y="30" x="60" stroke-width="0" stroke="#000000" fill="#000000">3Ω</text>
<text xml:space="preserve" text-anchor="middle" font-family="serif" font-size="11pt"  y="90" x="140" stroke-width="0" stroke="#000000" fill="#000000">12Ω</text><g ><circle stroke="#000000" fill="#ffffff" cy="100" cx="200" stroke-width="1.5" r="4" /></g><polyline points="40,40 10,40" stroke-width="1.5" stroke="#000000" fill="none" />
<text xml:space="preserve" text-anchor="middle" font-family="serif" font-size="11pt"  y="30" x="10" stroke-width="0" stroke="#000000" fill="#000000">a</text><text xml:space="preserve" text-anchor="middle" font-family="serif" font-size="11pt"  y="100" x="210" stroke-width="0" stroke="#000000" fill="#000000">b</text><g ><circle stroke="#000000" fill="#000000" cy="40" cx="30" r="3" />
</g>
<g >
<circle stroke="#000000" fill="#000000" cy="40" cx="100" r="3" /></g><g ><circle stroke="#000000" fill="#000000" cy="40" cx="180" r="3" />
</g>
<g ><circle stroke="#000000" fill="#000000" cy="100" cx="100" r="3" /></g><g ><circle stroke="#000000" fill="#000000" cy="100" cx="180" r="3" />
</g>
<g >
<circle stroke-width="1.5" stroke="#000000" fill="#ffffff" cy="40" cx="10" r="4" /></g><text xml:space="preserve" text-anchor="middle" font-family="serif" font-size="11pt"  y="77" x="80" stroke-width="0" stroke="#000000" fill="#000000">7Ω</text><text xml:space="preserve" text-anchor="middle" font-family="serif" font-size="11pt"  y="77" x="200" stroke-width="0" stroke="#000000" fill="#000000">12Ω</text></g></svg>