<svg width="320" height="220" xmlns="http://www.w3.org/2000/svg" xmlns:svg="http://www.w3.org/2000/svg"><g><title>Layer 1</title><path  d="m60,90l5,0l3,-5l5,10l5,-10l5,10l5,-10l5,10l3,-5l4,0" fill="none" stroke="#880000" stroke-width="1.5"/><path  d="m120,90l5,0l3,-5l5,10l5,-10l5,10l5,-10l5,10l3,-5l4,0" fill="none" stroke="#880000" stroke-width="1.5"/><path  d="m110,40l0,5l5,3l-10,5l10,5l-10,5l10,5l-10,5l5,3l0,4" fill="none" stroke="#880000" stroke-width="1.5"/><path  d="m30,100l0,5l5,3l-10,5l10,5l-10,5l10,5l-10,5l5,3l0,4" fill="none" stroke="#880000" stroke-width="1.5"/><path  d="m30,190l0,-17m-10,0l20,0m-5,-6l-10,0m5,0l0,-17" fill="none" stroke="#880000" stroke-width="1.5"/><path  d="m100,30l-17,0m0,10l0,-20m-6,5l0,10m0,-5l-17,0" fill="none" stroke="#880000" stroke-width="1.5"/><text  x="83.5" y="16" stroke="null" font-family="serif" text-anchor="middle" font-size="14" fill="#0000ff">50V</text><text  x="57.5" y="176" stroke="null" font-family="serif" text-anchor="middle" font-size="14" fill="#0000ff">100V</text><polyline  fill="none" stroke="#000000" stroke-width="1.5" points="30,100 30,90 30,90 60,90"/><polyline  fill="none" stroke="#000000" stroke-width="1.5" points="100,90 120,90"/><polyline  fill="none" stroke="#000000" stroke-width="1.5" points="110,80 110,90"/><polyline  fill="none" stroke="#000000" stroke-width="1.5" points="110,40 110,30 110,30 100,30"/><polyline  fill="none" stroke="#000000" stroke-width="1.5" points="60,30 50,30 50,30 50,90"/><polyline  fill="none" stroke="#000000" stroke-width="1.5" points="30,190 30,200 30,200 190,200"/><polyline  fill="none" stroke="#000000" stroke-width="1.5" points="160,90 190,90"/><circle  r="3" cx="50" cy="90" fill="#000000" stroke="#000000"/><circle  r="3" cx="110" cy="90" fill="#000000" stroke="#000000"/><circle  r="4" cx="190" cy="90" fill="#ffffff" stroke="#000000"/><circle  r="4" cx="190" cy="200" fill="#ffffff" stroke="#000000"/><polyline  fill="none" stroke="#000000" stroke-width="1.5" points="30,150 30,140"/><text  x="130.5" y="64" stroke="null" font-family="serif" text-anchor="middle" font-size="14" fill="#0000ff">15立</text><text  x="80.5" y="110" stroke="null" font-family="serif" text-anchor="middle" font-size="14" fill="#0000ff">10立</text><text  x="139.5" y="111" stroke="null" font-family="serif" text-anchor="middle" font-size="14" fill="#0000ff">1立</text><text  x="48.5" y="125" stroke="null" font-family="serif" text-anchor="middle" font-size="14" fill="#0000ff">3立</text><text  x="203.5" y="94" stroke="null" font-family="serif" text-anchor="middle" font-size="18" fill="#0000ff">a</text><text  x="201.5" y="200" stroke="null" font-family="serif" text-anchor="middle" font-size="18" fill="#0000ff">b</text><path  stroke-width="1.5" stroke="#880000" fill="none" d="m260,100l0,5l5,3l-10,5l10,5l-10,5l10,5l-10,5l5,3l0,4"/><path stroke-width="1.5" stroke="#880000" fill="none" d="m260,150l0,17m10,0l-20,0m5,6l10,0m-5,0l0,17" /><polyline points="260,140 260,150" stroke-width="1.5" stroke="#000000" fill="none" /><polyline points="260,190 260,200 260,200 290,200" stroke-width="1.5" stroke="#000000" fill="none" /><polyline points="260,100 260,90 260,90 290,90" stroke-width="1.5" stroke="#000000" fill="none" /><circle stroke="#000000" fill="#ffffff" cy="90" cx="290" r="4" /><circle stroke="#000000" fill="#ffffff" cy="200" cx="290" r="4" /><text fill="#0000ff" font-size="18" text-anchor="middle" font-family="serif" stroke="null"  y="94" x="303">a</text><text fill="#0000ff" font-size="18" text-anchor="middle" font-family="serif" stroke="null"  y="206" x="304">b</text><text text-anchor="middle" font-family="serif" stroke="null"  y="126" x="280"><tspan fill="#0000ff" font-size="14" >R</tspan><tspan fill="#0000ff" font-size="12" dy="2" >th</tspan></text><text text-anchor="middle" font-family="serif" stroke="null"  y="174" x="283"><tspan fill="#0000ff" font-size="14" >V</tspan><tspan fill="#0000ff" font-size="12" dy="2" >th</tspan></text></g></svg>