<svg width="300" height="140" xmlns="http://www.w3.org/2000/svg" xmlns:svg="http://www.w3.org/2000/svg"><g><title>Layer 1</title><path stroke-width="1.5" stroke="#880000" fill="none" d="m20,50l0,17m10,0l-20,0m5,6l10,0m-5,0l0,17" /><path  stroke-width="1.5" stroke="#880000" fill="none" d="m40,30l5,0l3,-5l5,10l5,-10l5,10l5,-10l5,10l3,-5l4,0"/><path  stroke-width="1.5" stroke="#880000" fill="none" d="m120,30l5,0l3,-5l5,10l5,-10l5,10l5,-10l5,10l3,-5l4,0"/><path  stroke-width="1.5" stroke="#880000" fill="none" d="m100,50l0,5l5,3l-10,5l10,5l-10,5l10,5l-10,5l5,3l0,4"/><text fill="#0000ff" font-size="14" text-anchor="middle" font-family="serif" stroke="null"  y="74.5" x="44.75">16V</text><text fill="#0000ff" font-size="14" text-anchor="middle" font-family="serif" stroke="null"  y="19.5" x="57.25">12Ω</text><text fill="#0000ff" font-size="14" text-anchor="middle" font-family="serif" stroke="null"  y="19.5" x="141.75">3Ω</text><text fill="#0000ff" font-size="14" text-anchor="middle" font-family="serif" stroke="null"  y="74" x="120.25">4Ω</text><polyline points="20,50 20,30 20,30 40,30 " stroke-width="1.5" stroke="#000000" fill="none" /><polyline points="80,30 120,30" stroke-width="1.5" stroke="#000000" fill="none" /><polyline points="100,50 100,30" stroke-width="1.5" stroke="#000000" fill="none" /><polyline points="20,90 20,110 20,110 180,110" stroke-width="1.5" stroke="#000000" fill="none" /><polyline points="160,30 180,30" stroke-width="1.5" stroke="#000000" fill="none" /><polyline points="100,90 100,110" stroke-width="1.5" stroke="#000000" fill="none" /><circle stroke="#000000" fill="#000000" cy="30" cx="100" r="3" /><circle stroke="#000000" fill="#000000" cy="110" cx="100" r="3" /><circle stroke="#000000" fill="#ffffff" cy="30" cx="180" r="4" /><circle stroke="#000000" fill="#ffffff" cy="110" cx="180" r="4" /><text fill="#0000ff" font-size="14" text-anchor="middle" font-family="serif" stroke="null"  y="32.5" x="191.75">a</text><text fill="#0000ff" font-size="14" text-anchor="middle" font-family="serif" stroke="null"  y="114.5" x="191.25">b</text><path stroke-width="1.5" stroke="#880000" fill="none" d="m230,80l0,17m10,0l-20,0m5,6l10,0m-5,0l0,17" /><path  stroke-width="1.5" stroke="#880000" fill="none" d="m230,30l0,5l5,3l-10,5l10,5l-10,5l10,5l-10,5l5,3l0,4"/><polyline points="230,70 230,80" stroke-width="1.5" stroke="#000000" fill="none" /><polyline points="230,30 230,20 230,20 270,20" stroke-width="1.5" stroke="#000000" fill="none" /><polyline points="230,120 230,130 230,130 270,130" stroke-width="1.5" stroke="#000000" fill="none" /><circle stroke="#000000" fill="#ffffff" cy="20" cx="270" r="4" /><circle stroke="#000000" fill="#ffffff" cy="130" cx="270" r="4" /><text fill="#0000ff" font-size="14" text-anchor="middle" font-family="serif" stroke="null"  y="133.5" x="281.5">b</text><text fill="#0000ff" font-size="14" text-anchor="middle" font-family="serif" stroke="null"  y="22.5" x="281.5">a</text><text text-anchor="middle" font-family="serif" stroke="null"  y="53.5" x="249.5"><tspan fill="#0000ff" font-size="14" >R</tspan><tspan fill="#0000ff" font-size="12" dy="2" >th</tspan></text><text text-anchor="middle" font-family="serif" stroke="null"  y="103.5" x="253.5"><tspan fill="#0000ff" font-size="14" >V</tspan><tspan fill="#0000ff" font-size="12" dy="2" >th</tspan></text></g></svg>