<svg width="200" height="200" xmlns="http://www.w3.org/2000/svg" xmlns:svg="http://www.w3.org/2000/svg"><g><title>Layer 1</title><path d="m40,50l0,5l5,3l-10,5l10,5l-10,5l10,5l-10,5l5,3l0,4" fill="none" stroke="#880000" stroke-width="1.5" /><path d="m40,110l0,5l5,3l-10,5l10,5l-10,5l10,5l-10,5l5,3l0,4" fill="none" stroke="#880000" stroke-width="1.5" /><path d="m150,50l0,5l5,3l-10,5l10,5l-10,5l10,5l-10,5l5,3l0,4" fill="none" stroke="#880000" stroke-width="1.5" /><path  d="m150,110l0,17m10,0l-20,0m5,6l10,0m-5,0l0,17" fill="none" stroke="#880000" stroke-width="1.5"/><path  d="m40,170l0,12m-10,0l20,0m-5,4l-10,0m2,4l6,0" fill="none" stroke="#880000" stroke-width="1.5"/><path  d="m150,170l0,12m-10,0l20,0m-5,4l-10,0m2,4l6,0" fill="none" stroke="#880000" stroke-width="1.5"/><polyline  fill="none" stroke="#000000" stroke-width="1.5" points="40,150 40,170"/><polyline  fill="none" stroke="#000000" stroke-width="1.5" points="150,150 150,170"/><polyline  fill="none" stroke="#000000" stroke-width="1.5" points="40,90 40,110"/><polyline  fill="none" stroke="#000000" stroke-width="1.5" points="40,100 90,100"/><polyline  fill="none" stroke="#000000" stroke-width="1.5" points="40,50 40,30"/><circle  r="3" cx="40" cy="100" fill="#000000" stroke="#000000"/><circle  r="4" cx="40" cy="30" fill="#ffffff" stroke="#000000"/><circle  r="4" cx="90" cy="100" fill="#ffffff" stroke="#000000"/><polyline  fill="none" stroke="#000000" stroke-width="1.5" points="150,90 150,110"/><polyline  fill="none" stroke="#000000" stroke-width="1.5" points="150,50 150,30"/><circle  r="4" cx="150" cy="30" fill="#ffffff" stroke="#000000"/><text x="69.5" y="75"  stroke="null" font-family="serif" text-anchor="middle" font-size="14" fill="#0000ff">200kΩ</text><text x="65.5" y="135"  stroke="null" font-family="serif" text-anchor="middle" font-size="14" fill="#0000ff">50kΩ</text><text x="42.5" y="20"  stroke="null" font-family="serif" text-anchor="middle"><tspan  font-size="14" fill="#0000ff">12V</tspan><tspan  dy="2" font-size="12" fill="#0000ff"/></text><text x="103.5" y="104"  stroke="null" font-family="serif" text-anchor="middle"><tspan  font-size="14" fill="#0000ff">a</tspan><tspan  dy="2" font-size="12" fill="#0000ff"/></text><text x="148.5" y="21"  stroke="null" font-family="serif" text-anchor="middle"><tspan  font-size="14" fill="#0000ff">a</tspan><tspan  dy="2" font-size="12" fill="#0000ff"/></text><text x="173.5" y="135"  stroke="null" font-family="serif" text-anchor="middle"><tspan  font-size="14" fill="#0000ff">V</tspan><tspan  dy="2" font-size="12" fill="#0000ff">th</tspan></text><text x="170.5" y="76"  stroke="null" font-family="serif" text-anchor="middle"><tspan  font-size="14" fill="#0000ff">R</tspan><tspan  dy="2" font-size="12" fill="#0000ff">th</tspan></text></g></svg>