<svg width="250" height="160" xmlns="http://www.w3.org/2000/svg" xmlns:svg="http://www.w3.org/2000/svg"><g><title>Layer 1</title><path id="R1" stroke-width="1.5" stroke="#880000" fill="none" d="m50,40l5,0l3,-5l5,10l5,-10l5,10l5,-10l5,10l3,-5l4,0"/><path id="R2" stroke-width="1.5" stroke="#880000" fill="none" d="m50,80l5,0l3,-5l5,10l5,-10l5,10l5,-10l5,10l3,-5l4,0"/><path id="R3" stroke-width="1.5" stroke="#880000" fill="none" d="m170,70l0,5l5,3l-10,5l10,5l-10,5l10,5l-10,5l5,3l0,4"/><path id="R4" stroke-width="1.5" stroke="#880000" fill="none" d="m230,70l0,5l5,3l-10,5l10,5l-10,5l10,5l-10,5l5,3l0,4"/><path id="C1" stroke-width="1.5" stroke="#880000" fill="none" d="m190,40l7,0m0,-10l0,20m6,0l0,-20m0,10l7,0"/><path id="s1" stroke-width="1.5" stroke="#880000" fill="none" d="m150,40l-6.5,0a3.5,3.5 0 1 0 -7,0a3.5,3.5 0 1 0 7,0m-20,0a3.5,3.5 0 1 0 -7,0a3.5,3.5 0 1 0 7,0m-7,0l-6.5,0m30,-3.5l-20,-8m0,23"/><path id="P2" stroke-width="1.5" stroke="#880000" fill="none" d="m30,100l0,7m10,0l-20,0m5,6l10,0m-5,0l0,7"/><text fill="#0000ff" font-size="14" text-anchor="middle" font-family="serif" stroke="null" id="s_1" y="29" x="69">15kΩ</text><text fill="#0000ff" font-size="14" text-anchor="middle" font-family="serif" stroke="null" id="s_2" y="71" x="71">10kΩ</text><text fill="#0000ff" font-size="14" text-anchor="middle" font-family="serif" stroke="null" id="s_3" y="95" x="150">4kΩ</text><text fill="#0000ff" font-size="14" text-anchor="middle" font-family="serif" stroke="null" id="s_4" y="95" x="209">2kΩ</text><text fill="#0000ff" font-size="14" text-anchor="middle" font-family="serif" stroke="null" id="s_5" y="27" x="211">0.2µF</text><polyline id="Li3" points="90,80 100,80 100,80 100,40 " stroke-width="1.5" stroke="#000000" fill="none"/><polyline id="Li4" points="90,40 110,40 " stroke-width="1.5" stroke="#000000" fill="none"/><polyline id="Li6" points="50,80 30,80 " stroke-width="1.5" stroke="#000000" fill="none"/><polyline id="Li7" points="50,40 30,40 30,40 30,100 " stroke-width="1.5" stroke="#000000" fill="none"/><polyline id="Li8" points="150,40 190,40 " stroke-width="1.5" stroke="#000000" fill="none"/><polyline id="Li9" points="170,70 170,40 " stroke-width="1.5" stroke="#000000" fill="none"/><polyline id="Li10" points="210,40 230,40 230,40 230,70 " stroke-width="1.5" stroke="#000000" fill="none"/><polyline id="Li11" points="30,120 30,140 30,140 170,140 " stroke-width="1.5" stroke="#000000" fill="none"/><polyline id="Li12" points="230,110 230,140 230,140 170,140 " stroke-width="1.5" stroke="#000000" fill="none"/><polyline id="Li13" points="170,110 170,140 " stroke-width="1.5" stroke="#000000" fill="none"/><path id="Do1" fill="#000000" stroke-width="1.5" stroke="#000000" d="m97.5,40a2.5,2.5 0 1 1 5,0a2.5,2.5 0 1 1 -5,0"/><path id="Do2" fill="#000000" stroke-width="1.5" stroke="#000000" d="m167.5,40a2.5,2.5 0 1 1 5,0a2.5,2.5 0 1 1 -5,0"/><path id="Do3" fill="#000000" stroke-width="1.5" stroke="#000000" d="m167.5,140a2.5,2.5 0 1 1 5,0a2.5,2.5 0 1 1 -5,0"/><path id="Do4" fill="#000000" stroke-width="1.5" stroke="#000000" d="m27.5,80a2.5,2.5 0 1 1 5,0a2.5,2.5 0 1 1 -5,0"/><text fill="#0000ff" font-size="14" text-anchor="middle" font-family="serif" stroke="null" id="s_6" y="114" x="55.33333">10V</text><path id="S1" stroke-width="1.5" stroke="#ff0000" d="m34,98.33333l10,0m-5,-5l0,10"/><path id="S2" stroke-width="1.5" stroke="#ff0000" d="m33.66666,122l10,0"/><text fill="#0000ff" font-size="14" text-anchor="middle" font-family="serif" stroke="null" id="s_7" y="26.5" x="131.08333">S</text><path id="Li17" d="m126.08333,43.5l0.06635,-9.99978l0.69515,8.15042l6.23266,-5.2978l-6.99416,7.14715" stroke-width="1.5" stroke="#ff0000" fill="none"/><path id="Li18" d="m127.66667,40.66667q2,-10.66667 8.66667,-13.33333" stroke-width="1.5" stroke="#ff0000" fill="none"/><path id="A-2" fill="#ff0000" stroke-width="1.5" stroke="#ff0000" d="m170,50l0,20l4,-10l-4,5l-4,-5l4,10"/><text fill="#0000ff" font-size="14" text-anchor="middle" font-family="serif" stroke="null" id="s_9" y="66" x="159">I</text></g></svg>