<svg width="220" height="110" xmlns="http://www.w3.org/2000/svg" xmlns:svg="http://www.w3.org/2000/svg"><g><title>Layer 1</title><path  stroke-width="1.5" stroke="#880000" fill="none" d="m180,50l0,7m10,0l-20,0m0,6l20,0m-10,0l0,7"/><path  stroke-width="1.5" stroke="#880000" fill="none" d="m60,30l6.5,0a3.5,3.5 0 1 1 7,0a3.5,3.5 0 1 1 -7,0m20,0a3.5,3.5 0 1 1 7,0a3.5,3.5 0 1 1 -7,0m7,0l6.5,0m-30,-3.5l20,-8m0,23"/><path  stroke-width="1.5" stroke="#880000" fill="none" d="m120,30l5,0l3,-5l5,10l5,-10l5,10l5,-10l5,10l3,-5l4,0"/><path  stroke-width="1.5" stroke="#880000" fill="none" d="m40,40l0,17m10,0l-20,0m5,6l10,0m-5,0l0,17"/><path  d="m86.66667,46.33333l-6.63099,-7.48532l5.96217,5.60046l1.09862,-8.1059l-0.4298,9.99076l-11,-31" stroke-width="1.5" stroke="#000000" fill="none"/><polyline  points="60,30 40,30 40,30 40,40 " stroke-width="1.5" stroke="#000000" fill="none"/><polyline  points="100,30 120,30 " stroke-width="1.5" stroke="#000000" fill="none"/><polyline  points="160,30 180,30 180,30 180,50 " stroke-width="1.5" stroke="#000000" fill="none"/><polyline  points="40,80 40,90 40,90 180,90 " stroke-width="1.5" stroke="#000000" fill="none"/><polyline  points="180,90 180,70 " stroke-width="1.5" stroke="#000000" fill="none"/><polyline  points="194,63 204,63 " stroke="#000000" fill="none"/><polyline  points="194,57 204,57 " stroke="#000000" fill="none"/><path  d="m199,37l0,20l-2.49738,-6.18123l2.49738,4.84789l2.49738,-4.84789l-2.49738,6.18123" stroke="#000000" fill="none"/><path  d="m199,83l0,-20l2.49738,6.18123l-2.49738,-4.84789l-2.49738,4.84789l2.49738,-6.18123" stroke="#000000" fill="none"/><text fill="#0000ff" font-size="14" text-anchor="middle" font-family="serif" stroke="null"  y="63.2" x="209.2">d</text><text fill="#0000ff" font-size="14" text-anchor="middle" font-family="serif" stroke="null"  y="64.4" x="162">C</text><text fill="#0000ff" font-size="14" text-anchor="middle" font-family="serif" stroke="null"  y="26" x="54">SW</text><text fill="#0000ff" font-size="14" text-anchor="middle" font-family="serif" stroke="null"  y="64" x="16.4">10V</text><text fill="#0000ff" font-size="14" text-anchor="middle" font-family="serif" stroke="null"  y="22" x="141.2">100kΩ</text></g></svg>