<svg width="170" height="160" xmlns="http://www.w3.org/2000/svg" xmlns:svg="http://www.w3.org/2000/svg"><g><title>Layer 1</title><path  d="m30,70l0,17m10,0l-20,0m5,6l10,0m-5,0l0,17" fill="none" stroke="#880000" stroke-width="1.5"/><path  d="m130,40l0,17m10,0l-20,0m0,6l20,0m-10,0l0,17" fill="none" stroke="#880000" stroke-width="1.5"/><path  d="m130,100l0,17m10,0l-20,0m0,6l20,0m-10,0l0,17" fill="none" stroke="#880000" stroke-width="1.5"/><path d="m60,30l5,0l3,-5l5,10l5,-10l5,10l5,-10l5,10l3,-5l4,0" fill="none" stroke="#880000" stroke-width="1.5" /><text text-anchor="middle" font-family="serif" stroke="null"  y="64" x="152"><tspan fill="#000000" font-size="11pt" >C</tspan><tspan dx="0" fill="#000000" font-size="10pt" dy="2" >1</tspan></text><text text-anchor="middle" font-family="serif" stroke="null"  y="125" x="152"><tspan fill="#000000" font-size="11pt" >C</tspan><tspan dx="0" fill="#000000" font-size="10pt" dy="2" >2</tspan></text><text fill="#000000" font-size="11pt" text-anchor="middle" font-family="serif" stroke="null"  y="17" x="79">R</text><text fill="#000000" font-size="11pt" text-anchor="middle" font-family="serif" stroke="null"  y="96" x="13">E</text><polyline points="100,30 130,30 130,30 130,40" stroke-width="1.5" stroke="#000000" fill="none" /><polyline points="130,140 130,150" stroke-width="1.5" stroke="#000000" fill="none" /><polyline points="130,100 130,80" stroke-width="1.5" stroke="#000000" fill="none" /><polyline points="30,70 30,30 30,30 60,30" stroke-width="1.5" stroke="#000000" fill="none" /><polyline points="30,110 30,150 30,150 130,150" stroke-width="1.5" stroke="#000000" fill="none" /></g></svg>
