<svg width="240" height="150" xmlns="http://www.w3.org/2000/svg" xmlns:svg="http://www.w3.org/2000/svg"><g><title>Layer 1</title><polyline  fill="none" stroke="#000000" stroke-width="1.5" points="40,100 40,130 40,130 210,130 "/><g ><polyline  points="30,76 50,76 " fill="none" stroke="#880000" stroke-linecap="round" stroke-width="1.5"/><polyline  points="35,84 45,84 " fill="none" stroke="#880000" stroke-linecap="round" stroke-width="1.5"/><path  d="m40,60l0,15" fill="none" stroke="#880000" stroke-width="1.5"/><path  d="m40,100l0,-15" fill="none" stroke="#880000" stroke-width="1.5"/></g><polyline  points="50,30 55,30 58,25 63,35 68,25 72,35 77,25 82,35 85,30 90,30 " fill="none" stroke="#880000" stroke-width="1.5"/><polyline  points="110,60 110,65 115,68 105,73 115,78 105,82 115,87 105,92 110,95 110,100 " fill="none" stroke="#880000" stroke-width="1.5"/><polyline  points="160,60 160,65 165,68 155,73 165,78 155,82 165,87 155,92 160,95 160,100 " fill="none" stroke="#880000" stroke-width="1.5"/><polyline  points="210,60 210,65 215,68 205,73 215,78 205,82 215,87 205,92 210,95 210,100 " fill="none" stroke="#880000" stroke-width="1.5"/><polyline  fill="none" stroke="#000000" stroke-width="1.5" points="40,60 40,30 40,30 50,30 "/><polyline  fill="none" stroke="#000000" stroke-width="1.5" points="90,30 110,30 110,30 110,60 "/><polyline  fill="none" stroke="#000000" stroke-width="1.5" points="110,30 160,30 160,30 160,60 "/><polyline  fill="none" stroke="#000000" stroke-width="1.5" points="160,30 210,30 210,30 210,60 "/><polyline  fill="none" stroke="#000000" stroke-width="1.5" points="210,100 210,130 "/><polyline  fill="none" stroke="#000000" stroke-width="1.5" points="160,100 160,130 "/><polyline  fill="none" stroke="#000000" stroke-width="1.5" points="110,100 110,130 "/><g ><polyline  points="100,100 100,120 " fill="none" stroke="#FF0000" stroke-linecap="round" stroke-width="2"/><polygon  points="105,110 100,115 95,110 100,120 " fill="#FF0000" stroke="#FF0000"/></g><g ><polyline  points="150,100 150,120 " fill="none" stroke="#FF0000" stroke-linecap="round" stroke-width="2"/><polygon  points="155,110 150,115 145,110 150,120 " fill="#FF0000" stroke="#FF0000"/></g><g ><polyline  points="200,100 200,120 " fill="none" stroke="#FF0000" stroke-linecap="round" stroke-width="2"/><polygon  points="205,110 200,115 195,110 200,120 " fill="#FF0000" stroke="#FF0000"/></g><g ><circle  r="3" cx="160" cy="130" fill="#000000" stroke="#000000"/></g><g ><circle  r="3" cx="110" cy="130" fill="#000000" stroke="#000000"/></g><g ><circle  r="3" cx="110" cy="30" fill="#000000" stroke="#000000"/></g><g ><circle  r="3" cx="160" cy="30" fill="#000000" stroke="#000000"/></g><text fill="#000000" stroke="#000000" stroke-width="0" x="70" y="20"  font-size="11pt" font-family="serif" text-anchor="middle" xml:space="preserve">6立</text><text fill="#000000" stroke="#000000" stroke-width="0" x="90" y="80"  font-size="11pt" font-family="serif" text-anchor="middle" xml:space="preserve">1立</text><text fill="#000000" stroke="#000000" stroke-width="0" x="140" y="80"  font-size="11pt" font-family="serif" text-anchor="middle" xml:space="preserve">2立</text><text fill="#000000" stroke="#000000" stroke-width="0" x="190" y="80"  font-size="11pt" font-family="serif" text-anchor="middle" xml:space="preserve">3立</text><text fill="black" x="90" y="120"  stroke="null" font-family="serif" text-anchor="middle"><tspan  font-size="11pt" fill="#000000">I</tspan><tspan  dy="2" font-size="10pt" fill="#000000" dx="0">1</tspan></text><text x="137" y="119"  stroke="null" font-family="serif" text-anchor="middle"><tspan  font-size="11pt" fill="#000000">I</tspan><tspan  dy="2" font-size="10pt" fill="#000000" dx="0">2</tspan></text><text fill="black" x="189" y="118"  stroke="null" font-family="serif" text-anchor="middle"><tspan  font-size="11pt" fill="#000000">I</tspan><tspan  dy="2" font-size="10pt" fill="#000000" dx="0">3</tspan></text><text fill="#000000" stroke="#000000" stroke-width="0" x="15" y="80"  font-size="11pt" font-family="serif" text-anchor="middle" xml:space="preserve">12V</text></g></svg>