<svg width="220" height="150" xmlns="http://www.w3.org/2000/svg" xmlns:svg="http://www.w3.org/2000/svg"><g><title>Layer 1</title><path  stroke-width="1.5" stroke="#880000" fill="none" d="m170,40l7,0m0,-10l0,20m6,0l0,-20m0,10l7,0"/><path  stroke-width="1.5" stroke="#880000" fill="none" d="m140,80l7,0m0,-10l0,20m6,0l0,-20m0,10l7,0"/><path  stroke-linejoin="round" stroke-width="1.5" stroke="#880000" fill="none" d="m40,80l17,0m0,-10l0,20m6,0l0,-20m0,10l17,0m-32,15l24,-30l-5,2l4.5,-1l-0.3,4.5l0.9,-5.2"/><path  stroke-width="1.5" stroke="#880000" fill="none" d="m90,130l17,0m0,-10l0,20m6,-5l0,-10m0,5l17,0"/><path  stroke-width="1.5" stroke="#880000" fill="none" d="m110,40l6.5,0a3.5,3.5 0 1 1 7,0a3.5,3.5 0 1 1 -7,0m20,0a3.5,3.5 0 1 1 7,0a3.5,3.5 0 1 1 -7,0m7,0l6.5,0m-30,-3.5l20,-8m0,23"/><polyline  points="170,40 150,40 " stroke-width="1.5" stroke="#000000" fill="none"/><text text-anchor="middle" font-family="serif" stroke="null"  y="23.2" x="181.2"><tspan fill="#0000ff" font-size="14" >C</tspan><tspan fill="#0000ff" font-size="12" dy="2" >x</tspan></text><text fill="#0000ff" font-size="14" text-anchor="middle" font-family="serif" stroke="null"  y="24" x="129.2">SW</text><text fill="#0000ff" font-size="14" text-anchor="middle" font-family="serif" stroke="null"  y="66.4" x="150">2μF</text><text text-anchor="middle" font-family="serif" stroke="null"  y="61.8" x="60.2"><tspan fill="#0000ff" font-size="14" >C</tspan><tspan fill="#0000ff" font-size="12" dy="2" >a</tspan></text><polyline  points="110,40 100,40 100,40 100,80 " stroke-width="1.5" stroke="#000000" fill="none"/><polyline  points="190,40 200,40 200,40 200,80 " stroke-width="1.5" stroke="#000000" fill="none"/><polyline  points="160,80 200,80 " stroke-width="1.5" stroke="#000000" fill="none"/><polyline  points="140,80 80,80 " stroke-width="1.5" stroke="#000000" fill="none"/><polyline  points="40,80 20,80 20,80 20,130 " stroke-width="1.5" stroke="#000000" fill="none"/><text fill="#0000ff" font-size="14" text-anchor="middle" font-family="serif" stroke="null"  y="115.2" x="110.8">E</text><text text-anchor="middle" font-family="serif" stroke="null"  y="108.8" x="62.8"><tspan fill="#0000ff" font-size="14" >V</tspan><tspan fill="#0000ff" font-size="12" dy="2" >ab</tspan></text><text text-anchor="middle" font-family="serif" stroke="null"  y="106" x="151.8"><tspan transform="matrix(1,0,0,1,0,0) " fill="#0000ff" font-size="14" >V</tspan><tspan transform="matrix(1,0,0,1,0,0) " fill="#0000ff" font-size="12" dy="2" >bc</tspan></text><path  fill="sRgb" stroke-width="1.5" stroke="#000000" d="m97,80a3,3 0 1 1 6,0a3,3 0 1 1 -6,0"/><path  fill="sRgb" stroke-width="1.5" stroke="#000000" d="m17,80a3,3 0 1 1 6,0a3,3 0 1 1 -6,0"/><path  fill="sRgb" stroke-width="1.5" stroke="#000000" d="m197,80a3,3 0 1 1 6,0a3,3 0 1 1 -6,0"/><text fill="#0000ff" font-size="14" text-anchor="middle" font-family="serif" stroke="null"  y="82.4" x="9.2">a</text><text fill="#0000ff" font-size="14" text-anchor="middle" font-family="serif" stroke="null"  y="75.2" x="108.4">b</text><text fill="#0000ff" font-size="14" text-anchor="middle" font-family="serif" stroke="null"  y="83.2" x="210.8">c</text><path  stroke-width="1.5" stroke="#ff0000" d="m34.6,90.39999l10,0m-5,-5l0,10"/><path  stroke-width="1.5" stroke="#ff0000" d="m127.39999,89.60001l10,0m-5,-5l0,10"/><path  stroke-width="1.5" stroke="#ff0000" d="m93.8,119.2l10,0m-5,-5l0,10"/><path  stroke-width="1.5" stroke="#ff0000" d="m71.4,91.2l10,0"/><path  stroke-width="1.5" stroke="#ff0000" d="m161,90.39999l10,0"/><path  stroke-width="1.5" stroke="#ff0000" d="m121,119.2l10,0"/><polyline  points="90,130 20,130 " stroke-width="1.5" stroke="#000000" fill="none"/><polyline  points="130,130 200,130 200,130 200,80 " stroke-width="1.5" stroke="#000000" fill="none"/></g></svg>