<svg width="180" height="180" xmlns="http://www.w3.org/2000/svg" xmlns:svg="http://www.w3.org/2000/svg"><g><title>Layer 1</title><path d="m70,40l5,0l3,-5l5,10l5,-10l5,10l5,-10l5,10l3,-5l4,0" fill="none" stroke="#880000" stroke-width="1.5" /><path d="m70,140l5,0l3,-5l5,10l5,-10l5,10l5,-10l5,10l3,-5l4,0" fill="none" stroke="#880000" stroke-width="1.5" /><path d="m40,70l0,5l5,3l-10,5l10,5l-10,5l10,5l-10,5l5,3l0,4" fill="none" stroke="#880000" stroke-width="1.5" /><path d="m140,70l0,5l5,3l-10,5l10,5l-10,5l10,5l-10,5l5,3l0,4" fill="none" stroke="#880000" stroke-width="1.5" /><g ><polyline  fill="none" stroke="#000000" stroke-width="1.5" points="40,140 78,102 "/><polyline  fill="none" stroke="#000000" stroke-width="1.5" points="100,80 140,40 "/><path d="m90,70l0,5l5,3l-10,5l10,5l-10,5l10,5l-10,5l5,3l0,4" fill="none" stroke="#880000" stroke-width="1.5"  transform="rotate(45 90.00000000000003,89.99999999999999) "/></g><polyline  fill="none" stroke="#000000" stroke-width="1.5" points="110,40 170,40 "/><polyline  fill="none" stroke="#000000" stroke-width="1.5" points="110,140 170,140 "/><polyline  fill="none" stroke="#000000" stroke-width="1.5" points="70,40 10,40"/><polyline  fill="none" stroke="#000000" stroke-width="1.5" points="70,140 10,140"/><path  d="m140,40l20,0l-10,-4l5,4l-5,4l10,-4" fill="none" stroke="#ff0000" stroke-width="1.5"/><path  d="m140,140l20,0l-10,-4l5,4l-5,4l10,-4" fill="none" stroke="#ff0000" stroke-width="1.5"/><path  d="m40,40l-20,0l10,4l-5,-4l5,-4l-10,4" fill="none" stroke="#ff0000" stroke-width="1.5"/><path  d="m10,140l20,0l-10,-4l5,4l-5,4l10,-4" fill="none" stroke="#ff0000" stroke-width="1.5"/><polyline  fill="none" stroke="#FF0000" stroke-width="1.5" points="110.17142486572266,31.08571434020996 120.17142486572266,31.08571434020996 115.17142486572266,31.08571434020996 115.17142486572266,26.08571434020996 115.17142486572266,36.08571434020996 "/><polyline  fill="none" stroke="#FF0000" stroke-width="1.5" points="56.4571418762207,32.228572845458984 66.4571418762207,32.228572845458984 "/><text x="88.45714" y="29.94286"  stroke="null" font-family="serif" text-anchor="middle"><tspan  font-size="12" fill="#0000ff">V</tspan><tspan  dy="2" font-size="10" fill="#0000ff">1</tspan></text><text x="50.17143" y="18.51429"  stroke="null" font-family="serif" text-anchor="middle"><tspan  font-size="12" fill="#0000ff">I</tspan><tspan  dy="2" font-size="10" fill="#0000ff">1</tspan></text><text x="149.02857" y="163.65714"  stroke="null" font-family="serif" text-anchor="middle" font-size="12" fill="#0000ff">I</text><text x="153.6" y="133.94286"  stroke="null" font-family="serif" text-anchor="middle" font-size="12" fill="#0000ff">5A</text><text x="154.74286" y="55.08571"  stroke="null" font-family="serif" text-anchor="middle" font-size="12" fill="#0000ff">1A</text><text x="54.17143" y="157.94286"  stroke="null" font-family="serif" text-anchor="middle" font-size="12" fill="#0000ff">6A</text><text x="152.45714" y="24.22857"  stroke="null" font-family="serif" text-anchor="middle" font-size="12" fill="#0000ff">7A</text><text x="22.17143" y="33.37143"  stroke="null" font-family="serif" text-anchor="middle" font-size="12" fill="#0000ff">4A</text><text x="27.31429" y="64.22857"  stroke="null" font-family="serif" text-anchor="middle" font-size="12" fill="#0000ff">2A</text><text x="19.88571" y="154.51429"  stroke="null" font-family="serif" text-anchor="middle" font-size="12" fill="#0000ff">3A</text><text x="25.6" y="93.65714"  stroke="null" font-family="serif" text-anchor="middle" font-size="12" fill="#0000ff">3Ω</text><text x="90.74286" y="57.37143"  stroke="null" font-family="serif" text-anchor="middle" font-size="12" fill="#0000ff">2Ω</text><text x="102.17143" y="105.37143"  stroke="null" font-family="serif" text-anchor="middle" font-size="12" fill="#0000ff">32Ω</text><text x="90.74286" y="157.94286"  stroke="null" font-family="serif" text-anchor="middle" font-size="12" fill="#0000ff">16Ω</text><text x="159.31429" y="93.65714"  stroke="null" font-family="serif" text-anchor="middle" font-size="12" fill="#0000ff">16Ω</text><polyline  fill="none" stroke="#000000" stroke-width="1.5" points="40,70 40,10"/><polyline  fill="none" stroke="#000000" stroke-width="1.5" points="140,70 140,10"/><polyline  fill="none" stroke="#000000" stroke-width="1.5" points="40,110 40,170"/><polyline  fill="none" stroke="#000000" stroke-width="1.5" points="140,110 140,170"/><path  d="m40,140l0,20l4,-10l-4,5l-4,-5l4,10" fill="none" stroke="#ff0000" stroke-width="1.5"/><path  d="m140,170l0,-20l-4,10l4,-5l4,5l-4,-10" fill="none" stroke="#ff0000" stroke-width="1.5"/><path  d="m140,10l0,20l4,-10l-4,5l-4,-5l4,10" fill="none" stroke="#ff0000" stroke-width="1.5"/><path  d="m40,10l0,20l4,-10l-4,5l-4,-5l4,10" fill="none" stroke="#ff0000" stroke-width="1.5"/><path  d="m40,50l0,20l4,-10l-4,5l-4,-5l4,10" fill="none" stroke="#ff0000" stroke-width="1.5"/><circle  r="3" cx="40" cy="40" fill="#000000" stroke="#000000"/><circle  r="3" cx="140" cy="40" fill="#000000" stroke="#000000"/><circle  r="3" cx="140" cy="140" fill="#000000" stroke="#000000"/><circle  r="3" cx="40" cy="140" fill="#000000" stroke="#000000"/></g></svg>