<svg width="150" height="160" xmlns="http://www.w3.org/2000/svg" xmlns:svg="http://www.w3.org/2000/svg"><g><title>Layer 1</title><g /><g /><polyline  fill="none" stroke="#000000" stroke-width="1.5" points="100,10 100,150"/><polyline  fill="none" stroke="#000000" stroke-width="1.5" points="10,50 140,50"/><polyline  fill="none" stroke="#000000" stroke-width="1.5" points="10,110 140,110"/><g ><circle  r="3" cx="100" cy="50" fill="#000000" stroke="#000000"/></g><g ><circle  r="3" cx="100" cy="110" fill="#000000" stroke="#000000"/></g><g ><polyline  points="100,36 100,16 " fill="none" stroke="#FF0000" stroke-linecap="round" stroke-width="2"/><polygon  points="95,26 100,21 105,26 100,16 " fill="#FF0000" stroke="#FF0000"/></g><g ><polyline  points="113,110 133,110 " fill="none" stroke="#FF0000" stroke-linecap="round" stroke-width="2"/><polygon  points="123,105 128,110 123,115 133,110 " fill="#FF0000" stroke="#FF0000"/></g><polyline  fill="none" stroke="#000000" stroke-width="1.5" points="50,10 50,150 "/><g ><circle  r="3" cx="50" cy="50" fill="#000000" stroke="#000000"/></g><g ><circle  r="3" cx="50" cy="110" fill="#000000" stroke="#000000"/></g><g ><polyline  points="50,16 50,36 " fill="none" stroke="#FF0000" stroke-linecap="round" stroke-width="2"/><polygon  points="55,26 50,31 45,26 50,36 " fill="#FF0000" stroke="#FF0000"/></g><g ><polyline  points="18,50 38,50 " fill="none" stroke="#FF0000" stroke-linecap="round" stroke-width="2"/><polygon  points="28,45 33,50 28,55 38,50 " fill="#FF0000" stroke="#FF0000"/></g><text  fill="#000000" stroke="#880000" stroke-width="0" stroke-dasharray="null" stroke-linejoin="null" stroke-linecap="null" x="23" y="68" font-size="11pt" font-family="serif" text-anchor="middle" xml:space="preserve">7A</text><g ><polyline  points="50,120 50,140 " fill="none" stroke="#FF0000" stroke-linecap="round" stroke-width="2"/><polygon  points="55,130 50,135 45,130 50,140 " fill="#FF0000" stroke="#FF0000"/></g><g ><polyline  points="37,110 17,110 " fill="none" stroke="#FF0000" stroke-linecap="round" stroke-width="2"/><polygon  points="27,115 22,110 27,105 17,110 " fill="#FF0000" stroke="#FF0000"/></g><text  fill="#000000" stroke="#880000" stroke-width="0" stroke-dasharray="null" stroke-linejoin="null" stroke-linecap="null" x="27" y="130" font-size="11pt" font-family="serif" text-anchor="middle" xml:space="preserve">8A</text><g ><polyline  points="130,50 110,50 " fill="none" stroke="#FF0000" stroke-linecap="round" stroke-width="2"/><polygon  points="120,55 115,50 120,45 110,50 " fill="#FF0000" stroke="#FF0000"/></g><text  fill="#000000" stroke="#880000" stroke-width="0" stroke-dasharray="null" stroke-linejoin="null" stroke-linecap="null" x="116" y="30" font-size="11pt" font-family="serif" text-anchor="middle" xml:space="preserve">6A</text><text  fill="#000000" stroke="#880000" stroke-width="0" x="35" y="30" font-size="11pt" font-family="serif" text-anchor="middle" xml:space="preserve">2A</text><text  fill="#000000" stroke="#880000" stroke-width="0" stroke-dasharray="null" stroke-linejoin="null" stroke-linecap="null" x="126" y="67" font-size="11pt" font-family="serif" text-anchor="middle" xml:space="preserve">3A</text><text  fill="#000000" stroke="#880000" stroke-width="0" stroke-dasharray="null" stroke-linejoin="null" stroke-linecap="null" x="121" y="103" font-size="11pt" font-family="serif" text-anchor="middle" xml:space="preserve">4A</text><text  fill="#000000" stroke="#880000" stroke-width="0" stroke-dasharray="null" stroke-linejoin="null" stroke-linecap="null" x="116" y="136" font-size="11pt" font-family="serif" text-anchor="middle" xml:space="preserve">5A</text><text  fill="#000000" stroke="#880000" stroke-width="0" stroke-dasharray="null" stroke-linejoin="null" stroke-linecap="null" x="61" y="135" font-size="11pt" font-family="serif" text-anchor="middle" xml:space="preserve">I</text><g ><polyline  points="100,140 100,120 " fill="none" stroke="#FF0000" stroke-linecap="round" stroke-width="2"/><polygon  points="95,130 100,125 105,130 100,120 " fill="#FF0000" stroke="#FF0000"/></g></g></svg>