<svg width="250" height="160" xmlns="http://www.w3.org/2000/svg" xmlns:svg="http://www.w3.org/2000/svg"><g><title>Layer 1</title><polyline stroke-width="1.5" stroke="#880000" fill="none" points="30,20 30,25 35,28 25,33 35,38 25,42 35,47 25,52 30,55 30,60 " /><polyline stroke-width="1.5" stroke="#880000" fill="none" points="90,20 90,25 95,28 85,33 95,38 85,42 95,47 85,52 90,55 90,60 " /><polyline stroke-width="1.5" stroke="#880000" fill="none" points="170,20 170,25 175,28 165,33 175,38 165,42 175,47 165,52 170,55 170,60 " /><polyline stroke-width="1.5" stroke="#880000" fill="none" points="150,80 145,80 142,85 137,75 132,85 128,75 123,85 118,75 115,80 110,80 " /><polyline stroke-width="1.5" stroke="#880000" fill="none" points="230,80 225,80 222,85 217,75 212,85 208,75 203,85 198,75 195,80 190,80 " /><polyline stroke-width="1.5" stroke="#880000" fill="none" points="170,100 170,105 175,108 165,113 175,118 165,122 175,127 165,132 170,135 170,140 " /><g ><polyline stroke-width="2" stroke-linecap="round" stroke="#FF0000" fill="none" points="10,90 30,90 " /><polygon stroke="#FF0000" fill="#FF0000" points="20,85 25,90 20,95 30,90 " /></g><polyline points="30,60 30,80" stroke-width="1.5" stroke="#000000" fill="none" /><polyline points="90,60 90,80" stroke-width="1.5" stroke="#000000" fill="none" /><polyline points="110,80 10,80" stroke-width="1.5" stroke="#000000" fill="none" /><polyline points="30,20 30,10" stroke-width="1.5" stroke="#000000" fill="none" /><polyline points="90,20 90,10" stroke-width="1.5" stroke="#000000" fill="none" /><polyline points="150,80 190,80" stroke-width="1.5" stroke="#000000" fill="none" /><polyline points="170,100 170,60" stroke-width="1.5" stroke="#000000" fill="none" /><polyline points="170,20 170,10" stroke-width="1.5" stroke="#000000" fill="none" /><polyline points="230,80 240,80" stroke-width="1.5" stroke="#000000" fill="none" /><polyline points="170,140 170,150" stroke-width="1.5" stroke="#000000" fill="none" /><g ><circle stroke="#000000" fill="#000000" cy="80" cx="90" r="3" /></g><g ><g ><circle stroke="#000000" fill="#000000" cy="80" cx="30" r="3" /></g></g><g ><circle stroke="#000000" fill="#000000" cy="80" cx="170" r="3" /></g><g ><polyline stroke-width="2" stroke-linecap="round" stroke="#FF0000" fill="none" points="44,30 44,50 " /><polygon stroke="#FF0000" fill="#FF0000" points="49,40 44,45 39,40 44,50 " /></g><text xml:space="preserve" text-anchor="middle" font-family="serif" font-size="11pt"  y="45" x="59" stroke-width="0" stroke="#880000" fill="#000000">1A</text><g ><polyline stroke-width="2" stroke-linecap="round" stroke="#FF0000" fill="none" points="105,30 105,50 " /><polygon stroke="#FF0000" fill="#FF0000" points="110,40 105,45 100,40 105,50 " /></g><text  xml:space="preserve" text-anchor="middle" font-family="serif" font-size="11pt" y="45" x="123" stroke-width="0" stroke="#880000" fill="#000000">2A</text><g ><polyline stroke-width="2" stroke-linecap="round" stroke="#FF0000" fill="none" points="184,30 184,50 " /><polygon stroke="#FF0000" fill="#FF0000" points="189,40 184,45 179,40 184,50 " /></g><text text-anchor="middle" font-family="serif" stroke="null"  y="113" x="132"><tspan fill="#000000" font-size="11pt" >I</tspan><tspan dx="0" fill="#000000" font-size="10pt" dy="2" >1</tspan></text><text xml:space="preserve" text-anchor="middle" font-family="serif" font-size="11pt"  y="107" x="20" stroke-width="0" stroke="#880000" fill="#000000">2A</text><g ><text text-anchor="middle" font-family="serif" stroke="null"  y="113" x="212"><tspan fill="#000000" font-size="11pt" >I</tspan><tspan fill="#000000" font-size="10pt" dy="2" >2</tspan></text></g><g ><polyline stroke-width="2" stroke-linecap="round" stroke="#FF0000" fill="none" points="200,95 220,95 " /><polygon stroke="#FF0000" fill="#FF0000" points="210,90 215,95 210,100 220,95 " /></g><g ><polyline stroke-width="2" stroke-linecap="round" stroke="#FF0000" fill="none" points="120,94 140,94 " /><polygon stroke="#FF0000" fill="#FF0000" points="130,89 135,94 130,99 140,94 " /></g><g ><polyline stroke-width="2" stroke-linecap="round" stroke="#FF0000" fill="none" points="184,130 184,110 " /><polygon stroke="#FF0000" fill="#FF0000" points="179,120 184,115 189,120 184,110 " /></g><g ><text  xml:space="preserve" text-anchor="middle" font-family="serif" font-size="11pt" y="46" x="201" stroke-width="0" stroke="#880000" fill="#000000">2A</text></g><text  xml:space="preserve" text-anchor="middle" font-family="serif" font-size="11pt" y="126" x="201" stroke-width="0" stroke="#880000" fill="#000000">2A</text></g></svg>