<svg width="200" height="200" xmlns="http://www.w3.org/2000/svg" xmlns:svg="http://www.w3.org/2000/svg"><g><title>Layer 1</title><line  fill="none" stroke="#000000" stroke-width="1.5" x1="100" y1="10" x2="180" y2="150"/><line  fill="none" stroke="#000000" stroke-width="1.5" x1="20" y1="150" x2="180" y2="150"/><line  fill="none" stroke="#000000" stroke-width="1.5" x1="20" y1="50" x2="100" y2="190"/><line  fill="none" stroke="#000000" stroke-width="1.5" x1="100" y1="190" x2="180" y2="50"/><g ><polyline  points="110,150 90,150 " fill="none" stroke="#FF0000" stroke-linecap="round" stroke-width="2"/><polygon  points="100,155 95,150 100,145 90,150 " fill="#FF0000" stroke="#FF0000"/></g><g ><polyline  points="140,150 160,150 " fill="none" stroke="#FF0000" stroke-linecap="round" stroke-width="2"/><polygon  points="150,145 155,150 150,155 160,150 " fill="#FF0000" stroke="#FF0000"/></g><text  x="100" y="40" stroke="null" font-family="serif" text-anchor="middle"><tspan  font-size="11pt" fill="#000000">i</tspan><tspan  dy="2" font-size="10pt" fill="#000000" dx="0">1</tspan></text><text  fill="#000000" stroke="#000000" stroke-width="0" stroke-dasharray="null" stroke-linejoin="null" stroke-linecap="null" x="50" y="42" font-size="11pt" font-family="serif" text-anchor="middle" xml:space="preserve">3A</text><line  fill="none" stroke="#000000" stroke-width="1.5" x1="180" y1="50" x2="20" y2="50"/><g ><circle  r="3" cx="78" cy="50" fill="#000000" stroke="#000000"/></g><g ><circle  r="3" cx="122" cy="50" fill="#000000" stroke="#000000"/></g><g ><circle  r="3" cx="49" cy="100" fill="#000000" stroke="#000000"/></g><g ><circle  r="3" cx="151" cy="100" fill="#000000" stroke="#000000"/></g><g ><circle  r="3" cx="78" cy="150" fill="#000000" stroke="#000000"/></g><g ><circle  r="3" cx="122" cy="150" fill="#000000" stroke="#000000"/></g><g ><polyline  points="60,50 40,50 " fill="none" stroke="#FF0000" stroke-linecap="round" stroke-width="2"/><polygon  points="50,55 45,50 50,45 40,50 " fill="#FF0000" stroke="#FF0000"/></g><g ><polyline  points="110,50 90,50 " fill="none" stroke="#FF0000" stroke-linecap="round" stroke-width="2"/><polygon  points="100,55 95,50 100,45 90,50 " fill="#FF0000" stroke="#FF0000"/></g><g  transform="rotate(61.11341857910156 60.00000000000003,120) "><polyline  points="50,120 70,120 " fill="none" stroke="#FF0000" stroke-linecap="round" stroke-width="2"/><polygon  points="60,115 65,120 60,125 70,120 " fill="#FF0000" stroke="#FF0000"/></g><g  transform="rotate(-121.82744598388672 111.5,29.999999999999986) "><polyline  points="101.5,30 121.5,30 " fill="none" stroke="#FF0000" stroke-linecap="round" stroke-width="2"/><polygon  points="111.5,25 116.5,30 111.5,35 121.5,30 " fill="#FF0000" stroke="#FF0000"/></g><g  transform="rotate(57.7243537902832 134.50000000000003,69.99999999999999) "><polyline  points="124.5,70 144.5,70 " fill="none" stroke="#FF0000" stroke-linecap="round" stroke-width="2"/><polygon  points="134.5,65 139.5,70 134.5,75 144.5,70 " fill="#FF0000" stroke="#FF0000"/></g><g  transform="rotate(-60.802513122558594 140.50000000000003,118.50000000000001) "><polyline  points="130.5,118.5 150.5,118.5 " fill="none" stroke="#FF0000" stroke-linecap="round" stroke-width="2"/><polygon  points="140.5,113.5 145.5,118.5 140.5,123.5 150.5,118.5 " fill="#FF0000" stroke="#FF0000"/></g><line  fill="none" stroke="#000000" x1="20" y1="150" x2="100" y2="10" stroke-width="1.5"/><g  transform="rotate(120 37.000000000000014,119.99999999999999) "><polyline  points="27,120 47,120 " fill="none" stroke="#FF0000" stroke-linecap="round" stroke-width="2"/><polygon  points="37,115 42,120 37,125 47,120 " fill="#FF0000" stroke="#FF0000"/></g><g  transform="rotate(62.3005256652832 89.50000000000001,171.49999999999997) "><polyline  points="79.5,171.5 99.5,171.5 " fill="none" stroke="#FF0000" stroke-linecap="round" stroke-width="2"/><polygon  points="89.5,166.5 94.5,171.5 89.5,176.5 99.5,171.5 " fill="#FF0000" stroke="#FF0000"/></g><g  transform="rotate(-60.592811584472656 59.999999999999986,80) "><polyline  points="50,80 70,80 " fill="none" stroke="#FF0000" stroke-linecap="round" stroke-width="2"/><polygon  points="60,75 65,80 60,85 70,80 " fill="#FF0000" stroke="#FF0000"/></g><text  xml:space="preserve" text-anchor="middle" font-family="serif" font-size="11pt" y="120" x="20" stroke-width="0" stroke="#FF0000" fill="#000000">5A</text><g  transform="rotate(-61.60697937011719 169.00000000000003,70) "><polyline  points="159,70 179,70 " fill="none" stroke="#FF0000" stroke-linecap="round" stroke-width="2"/><polygon  points="169,65 174,70 169,75 179,70 " fill="#FF0000" stroke="#FF0000"/></g><text  xml:space="preserve" text-anchor="middle" font-family="serif" font-size="11pt" y="80" x="120" stroke-width="0" stroke="#FF0000" fill="#000000">-2A</text><text  x="130" y="120" stroke="null" font-family="serif" text-anchor="middle"><tspan  font-size="11pt" fill="#000000">i</tspan><tspan  dy="2" font-size="10pt" fill="#000000" dx="0">5</tspan></text><text  x="73" y="120" stroke="null" font-family="serif" text-anchor="middle"><tspan  font-size="11pt" fill="#000000">i</tspan><tspan  dy="2" font-size="10pt" fill="#000000" dx="0">3</tspan></text><text  x="70" y="90" stroke="null" font-family="serif" text-anchor="middle"><tspan  font-size="11pt" fill="#000000">i</tspan><tspan  dy="2" font-size="10pt" fill="#000000" dx="0">2</tspan></text><text  x="100" y="141" stroke="null" font-family="serif" text-anchor="middle"><tspan  font-size="11pt" fill="#000000">i</tspan><tspan  dy="2" font-size="10pt" fill="#000000" dx="0">4</tspan></text><text  xml:space="preserve" text-anchor="middle" font-family="serif" font-size="11pt" y="30" x="125" stroke-width="0" stroke="#FF0000" fill="#000000">1A</text><text  xml:space="preserve" text-anchor="middle" font-family="serif" font-size="11pt" y="178" x="76" stroke-width="0" stroke="#FF0000" fill="#000000">2A</text><text  xml:space="preserve" text-anchor="middle" font-family="serif" font-size="11pt" y="167" x="150" stroke-width="0" stroke="#FF0000" fill="#000000">4A</text><text  xml:space="preserve" text-anchor="middle" font-family="serif" font-size="11pt" y="83" x="181" stroke-width="0" stroke="#FF0000" fill="#000000">6A</text></g></svg>