<svg width="390" height="110" xmlns="http://www.w3.org/2000/svg" xmlns:svg="http://www.w3.org/2000/svg"><g><title>Layer 1</title><path id="R1" stroke-width="1.5" stroke="#880000" fill="none" d="m70,80l9,-9l-1.6,-6.1l11.2,4.2l-4.2,-11.2l11.2,4.2l-4.2,-11.2l11.2,4.2l-1.6,-6.1l9,-9"/><path id="R2" stroke-width="1.5" stroke="#880000" fill="none" d="m190,80l9,-9l-1.6,-6.1l11.2,4.2l-4.2,-11.2l11.2,4.2l-4.2,-11.2l11.2,4.2l-1.6,-6.1l9,-9"/><path id="R4" stroke-width="1.5" stroke="#880000" fill="none" d="m130,40l9,9l6.1,-1.6l-4.2,11.2l11.2,-4.2l-4.2,11.2l11.2,-4.2l-4.2,11.2l6.1,-1.6l9,9"/><path id="R5" stroke-width="1.5" stroke="#880000" fill="none" d="m250,40l9,9l6.1,-1.6l-4.2,11.2l11.2,-4.2l-4.2,11.2l11.2,-4.2l-4.2,11.2l6.1,-1.6l9,9"/><polyline id="Li1" points="110,40 120,30 " stroke-width="1.5" stroke="#000000" fill="none"/><polyline id="Li2" points="130,40 120,30 " stroke-width="1.5" stroke="#000000" fill="none"/><polyline id="Li3" points="170,80 180,90 " stroke-width="1.5" stroke="#000000" fill="none"/><polyline id="Li4" points="180,90 190,80 " stroke-width="1.5" stroke="#000000" fill="none"/><polyline id="Li5" points="230,40 240,30 " stroke-width="1.5" stroke="#000000" fill="none"/><polyline id="Li6" points="250,40 240,30 " stroke-width="1.5" stroke="#000000" fill="none"/><polyline id="Li7" points="70,80 60,90 " stroke-width="1.5" stroke="#000000" fill="none"/><polyline id="Li8" points="290,80 300,90 " stroke-width="1.5" stroke="#000000" fill="none"/><path id="R6" stroke-width="1.5" stroke="#880000" fill="none" d="m110,30l-5,0l-3,5l-5,-10l-5,10l-5,-10l-5,10l-5,-10l-3,5l-4,0"/><path id="R7" stroke-width="1.5" stroke="#880000" fill="none" d="m200,30l-5,0l-3,5l-5,-10l-5,10l-5,-10l-5,10l-5,-10l-3,5l-4,0"/><path id="R8" stroke-width="1.5" stroke="#880000" fill="none" d="m330,30l-5,0l-3,5l-5,-10l-5,10l-5,-10l-5,10l-5,-10l-3,5l-4,0"/><polyline id="Li9" points="110,30 160,30 " stroke-width="1.5" stroke="#000000" fill="none"/><polyline id="Li10" points="290,30 200,30 " stroke-width="1.5" stroke="#000000" fill="none"/><polyline id="Li11" points="60,90 300,90 " stroke-width="1.5" stroke="#000000" fill="none"/><polyline id="Li12" points="300,90 370,30 " stroke-width="1.5" stroke="#000000" fill="none"/><polyline id="Li13" points="330,30 370,30 " stroke-width="1.5" stroke="#000000" fill="none"/><path id="Do1" fill="#000000" stroke-width="1.5" stroke="#000000" d="m117.5,30a2.5,2.5 0 1 1 5,0a2.5,2.5 0 1 1 -5,0"/><path id="Do2" fill="#000000" stroke-width="1.5" stroke="#000000" d="m177.5,90a2.5,2.5 0 1 1 5,0a2.5,2.5 0 1 1 -5,0"/><path id="Do3" fill="#000000" stroke-width="1.5" stroke="#000000" d="m237.5,30a2.5,2.5 0 1 1 5,0a2.5,2.5 0 1 1 -5,0"/><path id="Do4" fill="#000000" stroke-width="1.5" stroke="#000000" d="m297.5,90a2.5,2.5 0 1 1 5,0a2.5,2.5 0 1 1 -5,0"/><path id="Do5" fill="#000000" stroke-width="1.5" stroke="#000000" d="m57.5,90a2.5,2.5 0 1 1 5,0a2.5,2.5 0 1 1 -5,0"/><text text-anchor="middle" font-family="serif" stroke="null" id="s_1" y="18" x="87"><tspan fill="#0000ff" font-size="14" id="s_2">R</tspan><tspan fill="#0000ff" font-size="12" dy="2" id="s_3">1</tspan></text><text text-anchor="middle" font-family="serif" stroke="null" id="s_4" y="59" x="74"><tspan fill="#0000ff" font-size="14" id="s_5">R</tspan><tspan fill="#0000ff" font-size="12" dy="2" id="s_6">2</tspan></text><text text-anchor="middle" font-family="serif" stroke="null" id="s_7" y="58" x="165"><tspan fill="#0000ff" font-size="14" id="s_8">R</tspan><tspan fill="#0000ff" font-size="12" dy="2" id="s_9">3</tspan></text><text text-anchor="middle" font-family="serif" stroke="null" id="s_10" y="19" x="179"><tspan fill="#0000ff" font-size="14" id="s_11">R</tspan><tspan fill="#0000ff" font-size="12" dy="2" id="s_12">4</tspan></text><text text-anchor="middle" font-family="serif" stroke="null" id="s_13" y="59" x="193"><tspan fill="#0000ff" font-size="14" id="s_14">R</tspan><tspan fill="#0000ff" font-size="12" dy="2" id="s_15">5</tspan></text><text text-anchor="middle" font-family="serif" stroke="null" id="s_16" y="60" x="288"><tspan fill="#0000ff" font-size="14" id="s_17">R</tspan><tspan fill="#0000ff" font-size="12" dy="2" id="s_18">6</tspan></text><text text-anchor="middle" font-family="serif" stroke="null" id="s_19" y="20" x="311"><tspan fill="#0000ff" font-size="14" id="s_20">R</tspan><tspan fill="#0000ff" font-size="12" dy="2" id="s_21">7</tspan></text><path id="S1" stroke-width="1.5" stroke="#ff0000" d="m283.85715,37.14286l10,0m-5,-5l0,10"/><path id="S2" stroke-width="1.5" stroke="#ff0000" d="m325.57144,37.71429l10,0"/><text text-anchor="middle" font-family="serif" stroke="null" id="s_22" y="51.42857" x="310"><tspan fill="#ff0000" font-size="14" id="s_23">V</tspan><tspan fill="#ff0000" font-size="12" dy="2" id="s_24">x</tspan></text><path id="Li14" d="m91,74l3.90731,-9.20505l-2.4931,7.79083l7.79083,-2.4931l-9.20505,3.90731l20,-20" stroke-width="1.5" stroke="#ff0000" fill="none"/><path id="Li15" d="m146,72l-9.20505,-3.90731l7.79083,2.4931l-2.4931,-7.79083l3.90731,9.20505l-20,-20" stroke-width="1.5" stroke="#ff0000" fill="none"/><path id="Do6" fill="#ffffff" stroke-width="1.5" stroke="#000000" d="m126.5,40a3.5,3.5 0 1 1 7,0a3.5,3.5 0 1 1 -7,0"/><path id="Do7" fill="#ffffff" stroke-width="1.5" stroke="#000000" d="m166.5,80a3.5,3.5 0 1 1 7,0a3.5,3.5 0 1 1 -7,0"/><text fill="#ff0000" font-size="14" text-anchor="middle" font-family="serif" stroke="null" id="s_25" y="41.14286" x="139.14286">a</text><text fill="#ff0000" font-size="14" text-anchor="middle" font-family="serif" stroke="null" id="s_26" y="78.85714" x="177.42857">b</text><path id="Li16" d="m193,41l-9.27184,3.74607l7.27184,-3.74607l-7.27184,-3.74607l9.27184,3.74607l-30,0" stroke-width="1.5" stroke="#ff0000" fill="none"/><text text-anchor="middle" font-family="serif" stroke="null" id="s_27" y="45.71429" x="201.42857"><tspan fill="#ff0000" font-size="14" id="s_28">I</tspan><tspan fill="#ff0000" font-size="12" dy="2" id="s_29">3</tspan></text><text text-anchor="middle" font-family="serif" stroke="null" id="s_30" y="82.85714" x="88.85714"><tspan fill="#ff0000" font-size="14" id="s_31">I</tspan><tspan fill="#ff0000" font-size="12" dy="2" id="s_32">1</tspan></text><text text-anchor="middle" font-family="serif" stroke="null" id="s_33" y="84" x="154"><tspan fill="#ff0000" font-size="14" id="s_34">I</tspan><tspan fill="#ff0000" font-size="12" dy="2" id="s_35">2</tspan></text><g id="s_43"><circle id="Ci1" r="10" y="250" x="90" stroke-width="1.5" stroke="#880000" fill="none" cy="60" cx="50"/><text font-weight="bold" fill="#ff0000" font-size="14" text-anchor="middle" font-family="serif" stroke="null" id="s_37" y="61.14286" x="49.85714">+</text><text fill="#ff0000" font-size="20" text-anchor="middle" font-family="serif" stroke="null" id="s_42" y="69.71429" x="49.71429">-</text></g><polyline id="Li17" points="50,50 50,30 50,30 70,30 " stroke-width="1.5" stroke="#000000" fill="none"/><polyline id="Li18" points="50,70 50,90 50,90 60,90 " stroke-width="1.5" stroke="#000000" fill="none"/><text fill="#0000ff" font-size="14" text-anchor="middle" font-family="serif" stroke="null" id="s_45" y="65" x="23">12V</text></g></svg>