<svg width="190" height="120" xmlns="http://www.w3.org/2000/svg" xmlns:svg="http://www.w3.org/2000/svg"><g><title>Layer 1</title><path  stroke-width="1.5" stroke="#880000" fill="none" d="m50,50l0,17m10,0l-20,0m5,6l10,0m-5,0l0,17"/><path  stroke-width="1.5" stroke="#880000" fill="none" d="m130,90l0,-40m0,10a10,10 0 1 1 0,20a10,10 0 1 1 0,-20m0,3l-4,8l4,-6l4,6l-4,-7"/><path  stroke-width="1.5" stroke="#880000" fill="none" d="m70,30l5,0l3,-5l5,10l5,-10l5,10l5,-10l5,10l3,-5l4,0"/><text fill="#0000ff" font-size="14" text-anchor="middle" font-family="serif" stroke="null"  y="19" x="90">6kΩ</text><text fill="#0000ff" font-size="14" text-anchor="middle" font-family="serif" stroke="null"  y="75" x="22">10V</text><text fill="#0000ff" font-size="14" text-anchor="middle" font-family="serif" stroke="null"  y="73" x="159">1mA</text><polyline  points="50,50 50,30 50,30 70,30 " stroke-width="1.5" stroke="#000000" fill="none"/><polyline  points="110,30 130,30 130,30 130,60 " stroke-width="1.5" stroke="#000000" fill="none"/><polyline  points="130,90 130,110 130,110 50,110 " stroke-width="1.5" stroke="#000000" fill="none"/><polyline  points="50,110 50,90 " stroke-width="1.5" stroke="#000000" fill="none"/><path  stroke-width="1.5" stroke="#ff0000" d="m113,42l10,0m-5,-5l0,10"/><path  stroke-width="1.5" stroke="#ff0000" d="m114,103l10,0"/><text fill="#0000ff" font-size="14" text-anchor="middle" font-family="serif" stroke="null"  y="75" x="107">V</text></g></svg>