<svg width="280" height="170" xmlns="http://www.w3.org/2000/svg" xmlns:svg="http://www.w3.org/2000/svg"><g><title>Layer 1</title><g id="s_25"><text fill="#0000ff" font-size="14" text-anchor="middle" font-family="serif" stroke="null" id="s_18" y="134.5" x="169.5">C</text><rect id="s_19" height="20" width="40" y="120" x="150" stroke-width="1.5" stroke="#000000" fill="none"/></g><g id="s_26"><rect id="s_20" height="20" width="40" y="20" x="150" stroke-width="1.5" stroke="#000000" fill="none"/><text fill="#0000ff" font-size="14" text-anchor="middle" font-family="serif" stroke="null" id="s_24" y="34.5" x="169.5">B</text></g><g id="s_27"><rect id="Re3" height="40" width="20" y="60" x="240" stroke-width="1.5" stroke="#000000" fill="none"/><text fill="#0000ff" font-size="14" text-anchor="middle" font-family="serif" stroke="null" id="s_23" y="83.5" x="249.5">A</text></g><polyline id="Li30" points="190,30 250,30 250,30 250,60 " stroke-width="1.5" stroke="#000000" fill="none"/><polyline id="Li31" points="250,100 250,130 250,130 190,130 " stroke-width="1.5" stroke="#000000" fill="none"/><g id="s_28"><rect id="s_21" height="40" width="20" y="60" x="40" stroke-width="1.5" stroke="#000000" fill="none"/><text fill="#0000ff" font-size="14" text-anchor="middle" font-family="serif" stroke="null" id="s_10" y="83.5" x="49.5">E</text></g><g id="s_30"><rect id="s_22" height="40" width="20" y="60" x="100" stroke-width="1.5" stroke="#000000" fill="none"/><text fill="#0000ff" font-size="14" text-anchor="middle" font-family="serif" stroke="null" id="s_29" y="83.5" x="110.5">D</text></g><polyline id="Li32" points="50,60 50,30 50,30 150,30 " stroke-width="1.5" stroke="#000000" fill="none"/><polyline id="Li33" points="50,100 50,130 50,130 150,130 " stroke-width="1.5" stroke="#000000" fill="none"/><polyline id="Li34" points="110,100 110,130 " stroke-width="1.5" stroke="#000000" fill="none"/><polyline id="Li35" points="110,60 110,30 " stroke-width="1.5" stroke="#000000" fill="none"/><path id="Do6" fill="#000000" stroke-width="1.5" stroke="#000000" d="m107.5,30a2.5,2.5 0 1 1 5,0a2.5,2.5 0 1 1 -5,0"/><path id="Do7" fill="#000000" stroke-width="1.5" stroke="#000000" d="m107.5,130a2.5,2.5 0 1 1 5,0a2.5,2.5 0 1 1 -5,0"/><path id="A3" fill="#000000" stroke-width="1.5" stroke="#000000" d="m50,30l0,20l4,-10l-4,5l-4,-5l4,10"/><path id="A4" fill="#000000" stroke-width="1.5" stroke="#000000" d="m110,104l0,20l4,-10l-4,5l-4,-5l4,10"/><text fill="#0000ff" font-size="14" text-anchor="middle" font-family="serif" stroke="null" id="s_31" y="49.5" x="68.5">4A</text><text fill="#0000ff" font-size="14" text-anchor="middle" font-family="serif" stroke="null" id="s_32" y="116.5" x="126.5">6A</text><text fill="#0000ff" font-size="14" text-anchor="middle" font-family="serif" stroke="null" id="s_33" y="156.5" x="172.5">10V</text><text fill="#0000ff" font-size="14" text-anchor="middle" font-family="serif" stroke="null" id="s_34" y="14.5" x="170.5">6V</text><text fill="#0000ff" font-size="14" text-anchor="middle" font-family="serif" stroke="null" id="s_35" y="84.5" x="20">20V</text><path id="S3" stroke-width="1.5" stroke="#000000" d="m15.5,61.5l10,0m-5,-5l0,10"/><path id="S4" stroke-width="1.5" stroke="#000000" d="m144.5,9.5l10,0m-5,-5l0,10"/><path id="S5" stroke-width="1.5" stroke="#000000" d="m146.5,150.5l10,0m-5,-5l0,10"/><path id="S6" stroke-width="1.5" stroke="#000000" d="m15.5,101.5l10,0"/><path id="S7" stroke-width="1.5" stroke="#000000" d="m182.5,9.5l10,0"/><path id="S8" stroke-width="1.5" stroke="#000000" d="m189.5,150.5l10,0"/></g></svg>