<svg width="219.99999999999997" height="130" xmlns="http://www.w3.org/2000/svg" xmlns:svg="http://www.w3.org/2000/svg"><g><title>Layer 1</title><polyline  points="90,30 85,30 82,35 77,25 72,35 68,25 63,35 58,25 55,30 50,30 " fill="none" stroke="#880000" stroke-width="1.5"/><text fill="#000000" stroke="#000000" stroke-width="0" x="70" y="20"  font-size="11pt" font-family="serif" text-anchor="middle" xml:space="preserve">6Ω</text><polyline  points="100,50 100,55 105,58 95,63 105,68 95,72 105,77 95,82 100,85 100,90 " fill="none" stroke="#880000" stroke-width="1.5"/><text fill="#000000" stroke="#000000" stroke-width="0" x="80" y="70"  font-size="11pt" font-family="serif" text-anchor="middle" xml:space="preserve">9Ω</text><text fill="#000000" stroke="#000000" stroke-width="0" x="130" y="70"  font-size="11pt" font-family="serif" text-anchor="middle" xml:space="preserve">RL</text><polyline  points="200,50 200,55 205,58 195,63 205,68 195,72 205,77 195,82 200,85 200,90 " fill="none" stroke="#880000" stroke-width="1.5"/><text fill="#000000" stroke="#000000" stroke-width="0" x="180" y="70"  font-size="11pt" font-family="serif" text-anchor="middle" xml:space="preserve">18Ω</text><g ><polyline  points="30,66 50,66 " fill="none" stroke="#880000" stroke-linecap="round" stroke-width="1.5"/><polyline  points="35,74 45,74 " fill="none" stroke="#880000" stroke-linecap="round" stroke-width="1.5"/><path  d="m40,50l0,15" fill="none" stroke="#880000" stroke-width="1.5"/><path  d="m40,90l0,-15" fill="none" stroke="#880000" stroke-width="1.5"/></g><text fill="#000000" stroke="#000000" stroke-width="0" x="14" y="74"  font-size="11pt" font-family="serif" text-anchor="middle" xml:space="preserve">12V</text><polyline  fill="none" stroke="#000000" stroke-width="1.5" points="40,50 40,30 40,30 50,30"/><polyline  fill="none" stroke="#000000" stroke-width="1.5" points="90,30 100,30 100,30 100,50"/><polyline  fill="none" stroke="#000000" stroke-width="1.5" points="100,30 150,30 150,30 150,50"/><polyline  fill="none" stroke="#000000" stroke-width="1.5" points="150,30 200,30 200,30 200,50"/><polyline  fill="none" stroke="#000000" stroke-width="1.5" points="40,90 40,110 40,110 200,110"/><polyline  fill="none" stroke="#000000" stroke-width="1.5" points="100,90 100,110"/><polyline  fill="none" stroke="#000000" stroke-width="1.5" points="150,90 150,110"/><polyline  fill="none" stroke="#000000" stroke-width="1.5" points="200,90 200,110"/><g ><circle stroke="#000000" fill="#000000" cy="30" cx="100" r="3" /></g><g ><circle stroke="#000000" fill="#000000" cy="110" cx="100" r="3" /></g><g ><circle stroke="#000000" fill="#000000" cy="30" cx="150" r="3" /></g><g ><circle stroke="#000000" fill="#000000" cy="110" cx="150" r="3" /></g><g ><polyline  points="150,90 150,85 145,82 155,77 145,72 155,68 145,63 155,58 150,55 150,50 " fill="none" stroke-width="1.5" stroke="#880000"/><polyline  fill="none" stroke-width="1.5" points="140,80 160,60 " stroke="#000000"/><path transform="rotate(-47.20867919921875 160.083984375,59.845703125) " stroke="#000000"  d="m162.64844,59.8457l-5.12891,1.99414l1.53867,-1.99414l-1.53867,-1.99414l5.12891,1.99414z" fill="#000000"/></g></g></svg>