<svg width="300" height="200" xmlns="http://www.w3.org/2000/svg" xmlns:svg="http://www.w3.org/2000/svg"><g><title>Layer 1</title><path stroke-width="1.5" stroke="#880000" fill="none" d="m40,80l0,17m10,0l-20,0m5,6l10,0m-5,0l0,17" /><path  stroke-width="1.5" stroke="#880000" fill="none" d="m60,30l5,0l3,-5l5,10l5,-10l5,10l5,-10l5,10l3,-5l4,0"/><path  stroke-width="1.5" stroke="#880000" fill="none" d="m200,30l5,0l3,-5l5,10l5,-10l5,10l5,-10l5,10l3,-5l4,0"/><path  stroke-width="1.5" stroke="#880000" fill="none" d="m270,80l0,5l5,3l-10,5l10,5l-10,5l10,5l-10,5l5,3l0,4"/><path  stroke-width="1.5" stroke="#880000" fill="none" d="m180,50l0,5l5,3l-10,5l10,5l-10,5l10,5l-10,5l5,3l0,4"/><path  stroke-width="1.5" stroke="#880000" fill="none" d="m180,110l0,5l5,3l-10,5l10,5l-10,5l10,5l-10,5l5,3l0,4"/><path stroke-width="1.5" stroke="#880000" fill="none" d="m120,90l0,-40m0,10a10,10 0 1 1 0,20a10,10 0 1 1 0,-20m0,3l-4,8l4,-6l4,6l-4,-7" /><path stroke-width="1.5" stroke="#880000" fill="none" d="m120,150l0,-40m0,10a10,10 0 1 1 0,20a10,10 0 1 1 0,-20m0,3l-4,8l4,-6l4,6l-4,-7" /><text xml:space="preserve" text-anchor="middle" font-family="serif" font-size="11pt"  y="99.42857" x="16.57143" stroke-width="0" stroke="#000000" fill="#000000">36V</text><text xml:space="preserve" text-anchor="middle" font-family="serif" font-size="11pt"  y="18.85714" x="80.28571" stroke-width="0" stroke="#000000" fill="#000000">6立</text><text xml:space="preserve" text-anchor="middle" font-family="serif" font-size="11pt"  y="76.28571" x="97.42857" stroke-width="0" stroke="#000000" fill="#000000">3A</text><text xml:space="preserve" text-anchor="middle" font-family="serif" font-size="11pt"  y="133.42857" x="98" stroke-width="0" stroke="#000000" fill="#000000">6A</text><text xml:space="preserve" text-anchor="middle" font-family="serif" font-size="11pt"  y="76" x="198.85714" stroke-width="0" stroke="#000000" fill="#000000">4立</text><text xml:space="preserve" text-anchor="middle" font-family="serif" font-size="11pt"  y="136.57143" x="199.42857" stroke-width="0" stroke="#000000" fill="#000000">8立</text><text xml:space="preserve" text-anchor="middle" font-family="serif" font-size="11pt"  y="20.85714" x="219.42857" stroke-width="0" stroke="#000000" fill="#000000">7立</text><text text-anchor="middle" font-family="serif" stroke="null"  y="106.14286" x="288.42857"><tspan fill="#000000" font-size="11pt" >R</tspan><tspan dx="0" fill="#000000" font-size="10pt" dy="2" >L</tspan></text><polyline points="40,80 40,30 40,30 60,30" stroke-width="1.5" stroke="#000000" fill="none" /><polyline points="120,90 120,110 " stroke-width="1.5" stroke="#000000" fill="none" /><polyline points="180,110 180,90 " stroke-width="1.5" stroke="#000000" fill="none" /><polyline points="180,100 120,100 " stroke-width="1.5" stroke="#000000" fill="none" /><polyline points="100,30 200,30" stroke-width="1.5" stroke="#000000" fill="none" /><polyline points="240,30 270,30 270,30 270,80" stroke-width="1.5" stroke="#000000" fill="none" /><polyline points="40,120 40,170 40,170 270,170" stroke-width="1.5" stroke="#000000" fill="none" /><polyline points="270,170 270,120" stroke-width="1.5" stroke="#000000" fill="none" /><polyline points="180,170 180,150" stroke-width="1.5" stroke="#000000" fill="none" /><polyline points="120,170 120,150" stroke-width="1.5" stroke="#000000" fill="none" /><polyline points="120,50 120,30" stroke-width="1.5" stroke="#000000" fill="none" /><polyline points="180,50 180,30" stroke-width="1.5" stroke="#000000" fill="none" /><circle stroke="#000000" fill="#000000" cy="30" cx="120" r="3" /><circle stroke="#000000" fill="#000000" cy="30" cx="180" r="3" /><circle stroke="#000000" fill="#000000" cy="100" cx="180" r="3" /><circle stroke="#000000" fill="#000000" cy="100" cx="120" r="3" /><circle stroke="#000000" fill="#000000" cy="170" cx="120" r="3" /><circle stroke="#000000" fill="#000000" cy="170" cx="180" r="3" /><circle stroke="#000000" fill="#000000" cy="30" cx="250" r="3" /><circle stroke="#000000" fill="#000000" cy="170" cx="250" r="3" /><text xml:space="preserve" text-anchor="middle" font-family="serif" font-size="11pt"  y="20.85714" x="256" stroke-width="0" stroke="#000000" fill="#000000">a</text><text xml:space="preserve" text-anchor="middle" font-family="serif" font-size="11pt"  y="186" x="259.71429" stroke-width="0" stroke="#000000" fill="#000000">b</text></g></svg>