<svg width="260" height="180" xmlns="http://www.w3.org/2000/svg" xmlns:svg="http://www.w3.org/2000/svg"><g><title>Layer 1</title><path  stroke-width="1.5" stroke="#880000" fill="none" d="m80,30l5,0l3,-5l5,10l5,-10l5,10l5,-10l5,10l3,-5l4,0"/><path  stroke-width="1.5" stroke="#880000" fill="none" d="m50,70l0,17m10,0l-20,0m5,6l10,0m-5,0l0,17"/><text fill="#0000ff" font-size="14" text-anchor="middle" font-family="serif" stroke="null"  y="20" x="130">I</text><path  stroke-width="1.5" stroke="#880000" fill="none" d="m190,40l9,9l6.1,-1.6l-4.2,11.2l11.2,-4.2l-4.2,11.2l11.2,-4.2l-4.2,11.2l6.1,-1.6l9,9"/><path  stroke-width="1.5" stroke="#880000" fill="none" d="m230,100l-9,9l1.6,6.1l-11.2,-4.2l4.2,11.2l-11.2,-4.2l4.2,11.2l-11.2,-4.2l1.6,6.1l-9,9"/><path  stroke-width="1.5" stroke="#880000" fill="none" d="m170,40l-9,9l1.6,6.1l-11.2,-4.2l4.2,11.2l-11.2,-4.2l4.2,11.2l-11.2,-4.2l1.6,6.1l-9,9"/><path  stroke-width="1.5" stroke="#880000" fill="none" d="m170,140l-9,-9l-6.1,1.6l4.2,-11.2l-11.2,4.2l4.2,-11.2l-11.2,4.2l4.2,-11.2l-6.1,1.6l-9,-9"/><path  stroke-width="1.5" stroke="#880000" fill="none" d="m80,150l5,0l3,-5l5,10l5,-10l5,10l5,-10l5,10l3,-5l4,0"/><path  stroke-width="1.5" stroke="#880000" fill="none" d="m160,90l5,0l3,-5l5,10l5,-10l5,10l5,-10l5,10l3,-5l4,0"/><polyline  points="170,40 180,30 " stroke-width="1.5" stroke="#000000" fill="none"/><polyline  points="180,30 190,40 " stroke-width="1.5" stroke="#000000" fill="none"/><polyline  points="230,100 240,90 " stroke-width="1.5" stroke="#000000" fill="none"/><polyline  points="240,90 230,80 " stroke-width="1.5" stroke="#000000" fill="none"/><polyline  points="190,140 180,150 " stroke-width="1.5" stroke="#000000" fill="none"/><polyline  points="180,150 170,140 " stroke-width="1.5" stroke="#000000" fill="none"/><polyline  points="130,100 120,90 " stroke-width="1.5" stroke="#000000" fill="none"/><polyline  points="120,90 130,80 " stroke-width="1.5" stroke="#000000" fill="none"/><polyline  points="120,90 160,90 " stroke-width="1.5" stroke="#000000" fill="none"/><polyline  points="200,90 240,90 " stroke-width="1.5" stroke="#000000" fill="none"/><polyline  points="120,30 180,30 " stroke-width="1.5" stroke="#000000" fill="none"/><polyline  points="120,150 180,150 " stroke-width="1.5" stroke="#000000" fill="none"/><polyline  points="80,150 50,150 50,150 50,110 " stroke-width="1.5" stroke="#000000" fill="none"/><polyline  points="50,70 50,30 50,30 80,30 " stroke-width="1.5" stroke="#000000" fill="none"/><path  fill="#ff0000" stroke-width="1.5" stroke="#ff0000" d="m130,30l20,0l-10,-4l5,4l-5,4l10,-4"/><text fill="#0000ff" font-size="14" text-anchor="middle" font-family="serif" stroke="null"  y="100" x="20">150V</text><text fill="#0000ff" font-size="14" text-anchor="middle" font-family="serif" stroke="null"  y="60" x="130">15Ω</text><text fill="#0000ff" font-size="14" text-anchor="middle" font-family="serif" stroke="null"  y="20" x="100">15Ω</text><text fill="#0000ff" font-size="14" text-anchor="middle" font-family="serif" stroke="null"  y="60" x="230">24Ω</text><text fill="#0000ff" font-size="14" text-anchor="middle" font-family="serif" stroke="null"  y="80" x="180">30Ω</text><text fill="#0000ff" font-size="14" text-anchor="middle" font-family="serif" stroke="null"  y="130" x="130">50Ω</text><text fill="#0000ff" font-size="14" text-anchor="middle" font-family="serif" stroke="null"  y="140" x="230">20Ω</text><text fill="#0000ff" font-size="14" text-anchor="middle" font-family="serif" stroke="null"  y="170" x="100">10Ω</text><path  fill="sRgb" stroke-width="1.5" stroke="#000000" d="m117,90a3,3 0 1 1 6,0a3,3 0 1 1 -6,0"/><path  fill="sRgb" stroke-width="1.5" stroke="#000000" d="m177,30a3,3 0 1 1 6,0a3,3 0 1 1 -6,0"/><path  fill="sRgb" stroke-width="1.5" stroke="#000000" d="m237,90a3,3 0 1 1 6,0a3,3 0 1 1 -6,0"/><path  fill="sRgb" stroke-width="1.5" stroke="#000000" d="m177,150a3,3 0 1 1 6,0a3,3 0 1 1 -6,0"/></g></svg>