<svg width="240" height="160" xmlns="http://www.w3.org/2000/svg" xmlns:svg="http://www.w3.org/2000/svg"><g><title>Layer 1</title><g ><text xml:space="preserve" text-anchor="middle" font-family="serif" font-size="11pt"  y="23" x="79" stroke-width="0" stroke="#000000" fill="#000000">6Ω</text></g><polyline stroke-width="1.5" stroke="#880000" fill="none" points="100,30 95,30 92,35 87,25 82,35 78,25 73,35 68,25 65,30 60,30 " /><g ><line fill="none" stroke-width="1.5" x1="143.5" y1="30" x2="160.25" y2="19.75"  stroke="#880000"/><line fill="none" stroke="#880000" stroke-width="1.5" x1="137" y1="30" x2="130" y2="30" /><line fill="none" stroke="#880000" stroke-width="1.5" x1="163" y1="30" x2="170" y2="30" /><circle  r="3" cx="160" cy="30" fill="none" stroke="#880000" stroke-width="1.5"/><circle  r="3" cx="140" cy="30" fill="none" stroke="#880000" stroke-width="1.5"/></g><g ><polyline stroke-width="1.5" stroke="#880000" fill="none" points="60,60 65,60 68,55 73,65 78,55 82,65 87,55 92,65 95,60 100,60 " /></g><g ><polyline stroke-width="1.5" stroke-linecap="round" stroke="#880000" fill="none" points="20,96 40,96 " /><polyline stroke-width="1.5" stroke-linecap="round" stroke="#880000" fill="none" points="25,104 35,104 " /><path stroke-width="1.5" stroke="#880000" fill="none" d="m30,80l0,15" /><path stroke-width="1.5" stroke="#880000" fill="none" d="m30,120l0,-15" /></g><polyline  points="60,60 65,60 68,55 73,65 78,55 82,65 87,55 92,65 95,60 100,60 " fill="none" stroke="#880000" stroke-width="1.5"/><polyline stroke-width="1.5" stroke="#880000" fill="none" points="120,80 120,85 125,88 115,93 125,98 115,102 125,107 115,112 120,115 120,120 " /><polyline stroke-width="1.5" stroke="#880000" fill="none" points="140,60 145,60 148,55 153,65 158,55 162,65 167,55 172,65 175,60 180,60 " /><text xml:space="preserve" text-anchor="middle" font-family="serif" font-size="11pt"  y="110" x="140" stroke-width="0" stroke="#000000" fill="#000000">6Ω</text><polyline stroke-width="1.5" stroke="#880000" fill="none" points="200,80 200,85 205,88 195,93 205,98 195,102 205,107 195,112 200,115 200,120 " /><text xml:space="preserve" text-anchor="middle" font-family="serif" font-size="11pt"  y="110" x="220" stroke-width="0" stroke="#000000" fill="#000000">2Ω</text><text fill="#000000" stroke="#000000" stroke-width="0" x="80" y="80"  font-size="11pt" font-family="serif" text-anchor="middle" xml:space="preserve">18Ω</text><text xml:space="preserve" text-anchor="middle" font-family="serif" font-size="11pt"  y="80" x="160" stroke-width="0" stroke="#000000" fill="#000000">1Ω</text><text fill="#000000" stroke="#000000" stroke-width="0" x="150" y="20"  font-size="11pt" font-family="serif" text-anchor="middle" xml:space="preserve">S</text><polyline points="100,60 140,60" stroke-width="1.5" stroke="#000000" fill="none" /><polyline points="100,30 130,30" stroke-width="1.5" stroke="#000000" fill="none" /><polyline points="120,80 120,60" stroke-width="1.5" stroke="#000000" fill="none" /><polyline points="200,80 200,60 200,60 180,60" stroke-width="1.5" stroke="#000000" fill="none" /><polyline points="200,60 200,30 200,30 170,30" stroke-width="1.5" stroke="#000000" fill="none" /><polyline points="30,80 30,60 30,60 60,60" stroke-width="1.5" stroke="#000000" fill="none" /><polyline points="30,60 30,30 30,30 60,30" stroke-width="1.5" stroke="#000000" fill="none" /><polyline points="30,120 30,140 30,140 200,140" stroke-width="1.5" stroke="#000000" fill="none" /><polyline points="120,120 120,140" stroke-width="1.5" stroke="#000000" fill="none" /><polyline points="200,120 200,140" stroke-width="1.5" stroke="#000000" fill="none" /><g ><circle stroke="#000000" fill="#000000" cy="140" cx="120" r="3" /></g><g ><circle stroke="#000000" fill="#000000" cy="60" cx="120" r="3" /></g><g ><circle stroke="#000000" fill="#000000" cy="60" cx="30" r="3" /></g><g ><circle stroke="#000000" fill="#000000" cy="60" cx="200" r="3" /></g><text xml:space="preserve" text-anchor="middle" font-family="serif" font-size="11pt"  y="105" x="11" stroke-width="0" stroke="#000000" fill="#000000">E</text><g ><polyline stroke-width="2" stroke-linecap="round" stroke="#FF0000" fill="none" points="30,90 30,70 " /><polygon stroke="#FF0000" fill="#FF0000" points="25,80 30,75 35,80 30,70 " /></g><text fill="#000000" stroke="#000000" stroke-width="0" x="19" y="81"  font-size="11pt" font-family="serif" text-anchor="middle" xml:space="preserve">I</text></g></svg>