<svg width="250" height="170" xmlns="http://www.w3.org/2000/svg" xmlns:svg="http://www.w3.org/2000/svg"><g><title>Layer 1</title><path d="m80,60l9,-9l-1.6,-6.1l11.2,4.2l-4.2,-11.2l11.2,4.2l-4.2,-11.2l11.2,4.2l-1.6,-6.1l9,-9" fill="none" stroke="#880000" stroke-width="1.5" /><path d="m140,120l9,-9l-1.6,-6.1l11.2,4.2l-4.2,-11.2l11.2,4.2l-4.2,-11.2l11.2,4.2l-1.6,-6.1l9,-9" fill="none" stroke="#880000" stroke-width="1.5" /><path d="m140,20l9,9l6.1,-1.6l-4.2,11.2l11.2,-4.2l-4.2,11.2l11.2,-4.2l-4.2,11.2l6.1,-1.6l9,9" fill="none" stroke="#880000" stroke-width="1.5" /><path d="m80,80l9,9l6.1,-1.6l-4.2,11.2l11.2,-4.2l-4.2,11.2l11.2,-4.2l-4.2,11.2l6.1,-1.6l9,9" fill="none" stroke="#880000" stroke-width="1.5" /><path d="m130,50l0,5l5,3l-10,5l10,5l-10,5l10,5l-10,5l5,3l0,4" fill="none" stroke="#880000" stroke-width="1.5" /><path d="m220,90l0,5l5,3l-10,5l10,5l-10,5l10,5l-10,5l5,3l0,4" fill="none" stroke="#880000" stroke-width="1.5" /><polyline  fill="none" stroke="#000000" stroke-width="1.5" points="80,80 70,70 "/><polyline  fill="none" stroke="#000000" stroke-width="1.5" points="70,70 80,60 "/><polyline  fill="none" stroke="#000000" stroke-width="1.5" points="120,20 130,10 "/><polyline  fill="none" stroke="#000000" stroke-width="1.5" points="130,10 140,20 "/><polyline  fill="none" stroke="#000000" stroke-width="1.5" points="180,60 190,70 "/><polyline  fill="none" stroke="#000000" stroke-width="1.5" points="190,70 180,80 "/><polyline  fill="none" stroke="#000000" stroke-width="1.5" points="140,120 130,130 "/><polyline  fill="none" stroke="#000000" stroke-width="1.5" points="130,130 120,120 "/><polyline  fill="none" stroke="#000000" stroke-width="1.5" points="130,130 130,90 "/><polyline  fill="none" stroke="#000000" stroke-width="1.5" points="130,50 130,10 "/><path  d="m40,90l0,17m10,0l-20,0m5,6l10,0m-5,0l0,17" fill="none" stroke="#880000" stroke-width="1.5"/><polyline  fill="none" stroke="#000000" stroke-width="1.5" points="220,150 220,130 "/><polyline  fill="none" stroke="#000000" stroke-width="1.5" points="40,130 40,150 40,150 220,150 "/><polyline  fill="none" stroke="#000000" stroke-width="1.5" points="40,90 40,70 40,70 70,70 "/><polyline  fill="none" stroke="#000000" stroke-width="1.5" points="190,70 220,70 220,70 220,90 "/><path  d="m40,70l20,0l-10,-4l5,4l-5,4l10,-4" fill="none" stroke="#ff0000" stroke-width="1.5"/><path  d="m118,60l0,20l4,-10l-4,5l-4,-5l4,10" fill="none" stroke="#ff0000" stroke-width="1.5"/><text x="49.71429" y="63.6"  stroke="null" font-family="serif" text-anchor="middle"><tspan  font-size="12" fill="#0000ff">I</tspan><tspan  dy="2" font-size="10" fill="#0000ff">1</tspan></text><text x="106.14286" y="71.6"  stroke="null" font-family="serif" text-anchor="middle"><tspan  font-size="12" fill="#0000ff">I</tspan><tspan  dy="2" font-size="10" fill="#0000ff">2</tspan></text><text x="82.28571" y="38.45714"  stroke="null" font-family="serif" text-anchor="middle" font-size="12" fill="#0000ff">4Ω</text><text x="237.14286" y="117.31429"  stroke="null" font-family="serif" text-anchor="middle" font-size="12" fill="#0000ff">4Ω</text><text x="84" y="111.6"  stroke="null" font-family="serif" text-anchor="middle" font-size="12" fill="#0000ff">6Ω</text><text x="174.28571" y="113.88571"  stroke="null" font-family="serif" text-anchor="middle" font-size="12" fill="#0000ff">9Ω</text><text x="146.85714" y="75.02857"  stroke="null" font-family="serif" text-anchor="middle" font-size="12" fill="#0000ff">3Ω</text><text x="170.85714" y="35.02857"  stroke="null" font-family="serif" text-anchor="middle" font-size="12" fill="#0000ff">R</text><text x="17.71429" y="115.02857"  stroke="null" font-family="serif" text-anchor="middle" font-size="12" fill="#0000ff">30V</text><circle  r="3" cx="70" cy="70" fill="#000000" stroke="#000000"/><circle  r="3" cx="130" cy="10" fill="#000000" stroke="#000000"/><circle  r="3" cx="130" cy="130" fill="#000000" stroke="#000000"/><circle  r="3" cx="190" cy="70" fill="#000000" stroke="#000000"/></g></svg>