<svg width="250" height="170" xmlns="http://www.w3.org/2000/svg" xmlns:svg="http://www.w3.org/2000/svg"><g><title>Layer 1</title><path  stroke-width="1.5" stroke="#880000" fill="none" d="m50,30l5,0l3,-5l5,10l5,-10l5,10l5,-10l5,10l3,-5l4,0"/><path  stroke-width="1.5" stroke="#880000" fill="none" d="m110,30l5,0l3,-5l5,10l5,-10l5,10l5,-10l5,10l3,-5l4,0"/><path  stroke-width="1.5" stroke="#880000" fill="none" d="m170,30l5,0l3,-5l5,10l5,-10l5,10l5,-10l5,10l3,-5l4,0"/><path  stroke-width="1.5" stroke="#880000" fill="none" d="m100,40l0,5l5,3l-10,5l10,5l-10,5l10,5l-10,5l5,3l0,4"/><path  stroke-width="1.5" stroke="#880000" fill="none" d="m160,40l0,5l5,3l-10,5l10,5l-10,5l10,5l-10,5l5,3l0,4"/><path  stroke-width="1.5" stroke="#880000" fill="none" d="m130,100l0,5l5,3l-10,5l10,5l-10,5l10,5l-10,5l5,3l0,4"/><path  stroke-width="1.5" stroke="#880000" fill="none" d="m90,150l-5,0l-3,5l-5,-10l-5,10l-5,-10l-5,10l-5,-10l-3,5l-4,0"/><path  stroke-width="1.5" stroke="#880000" fill="none" d="m210,150l-5,0l-3,5l-5,-10l-5,10l-5,-10l-5,10l-5,-10l-3,5l-4,0"/><polyline  points="110,30 90,30 " stroke-width="1.5" stroke="#000000" fill="none"/><polyline  points="150,30 170,30 " stroke-width="1.5" stroke="#000000" fill="none"/><polyline  points="100,40 100,30 " stroke-width="1.5" stroke="#000000" fill="none"/><polyline  points="160,40 160,30 " stroke-width="1.5" stroke="#000000" fill="none"/><polyline  points="100,80 100,90 100,90 160,90 " stroke-width="1.5" stroke="#000000" fill="none"/><polyline  points="160,90 160,80 " stroke-width="1.5" stroke="#000000" fill="none"/><polyline  points="130,100 130,90 " stroke-width="1.5" stroke="#000000" fill="none"/><polyline  points="90,150 170,150 " stroke-width="1.5" stroke="#000000" fill="none"/><polyline  points="130,140 130,150 " stroke-width="1.5" stroke="#000000" fill="none"/><polyline  points="50,150 30,150 " stroke-width="1.5" stroke="#000000" fill="none"/><polyline  points="210,150 230,150 " stroke-width="1.5" stroke="#000000" fill="none"/><polyline  points="210,30 220,30 220,30 220,150 " stroke-width="1.5" stroke="#000000" fill="none"/><polyline  points="50,30 40,30 40,30 40,150 " stroke-width="1.5" stroke="#000000" fill="none"/><path  fill="sRgb" stroke-width="1.5" stroke="#000000" d="m97,30a3,3 0 1 1 6,0a3,3 0 1 1 -6,0"/><path  fill="sRgb" stroke-width="1.5" stroke="#000000" d="m157,30a3,3 0 1 1 6,0a3,3 0 1 1 -6,0"/><path  fill="sRgb" stroke-width="1.5" stroke="#000000" d="m127,90a3,3 0 1 1 6,0a3,3 0 1 1 -6,0"/><path  fill="sRgb" stroke-width="1.5" stroke="#000000" d="m127,150a3,3 0 1 1 6,0a3,3 0 1 1 -6,0"/><path  fill="sRgb" stroke-width="1.5" stroke="#000000" d="m37,150a3,3 0 1 1 6,0a3,3 0 1 1 -6,0"/><path  fill="sRgb" stroke-width="1.5" stroke="#000000" d="m217,150a3,3 0 1 1 6,0a3,3 0 1 1 -6,0"/><path  fill="#ffffff" stroke-width="1.5" stroke="#000000" d="m26,150a4,4 0 1 1 8,0a4,4 0 1 1 -8,0"/><path  fill="#ffffff" stroke-width="1.5" stroke="#000000" d="m226,150a4,4 0 1 1 8,0a4,4 0 1 1 -8,0"/><text fill="#0000ff" font-size="14" text-anchor="middle" font-family="serif" stroke="null"  y="155.33333" x="16.66667">A</text><text fill="#0000ff" font-size="14" text-anchor="middle" font-family="serif" stroke="null"  y="154" x="240">B</text><text fill="#0000ff" font-size="14" text-anchor="middle" font-family="serif" stroke="null"  y="20" x="67.33333">4Ω</text><text fill="#0000ff" font-size="14" text-anchor="middle" font-family="serif" stroke="null"  y="19.33333" x="192.66667">4Ω</text><text fill="#0000ff" font-size="14" text-anchor="middle" font-family="serif" stroke="null"  y="20" x="128.66667">15Ω</text><text fill="#0000ff" font-size="14" text-anchor="middle" font-family="serif" stroke="null"  y="64" x="84">5Ω</text><text fill="#0000ff" font-size="14" text-anchor="middle" font-family="serif" stroke="null"  y="64.66667" x="176">5Ω</text><text fill="#0000ff" font-size="14" text-anchor="middle" font-family="serif" stroke="null"  y="125.33333" x="146.66667">8Ω</text><text fill="#0000ff" font-size="14" text-anchor="middle" font-family="serif" stroke="null"  y="138" x="67.33333">7Ω</text><text fill="#0000ff" font-size="14" text-anchor="middle" font-family="serif" stroke="null"  y="138" x="190.66667">7Ω</text></g></svg>