<svg width="200" height="170" xmlns="http://www.w3.org/2000/svg" xmlns:svg="http://www.w3.org/2000/svg"><g><title>Layer 1</title><polyline id="Li3" points="40,130 40,160 40,160 180,160 " stroke-width="1.5" stroke="#000000" fill="none"/><path d="m60,30l5,0l3,-5l5,10l5,-10l5,10l5,-10l5,10l3,-5l4,0" fill="none" stroke="#880000" stroke-width="1.5" id="R1"/><path d="m120,110l0,5l5,3l-10,5l10,5l-10,5l10,5l-10,5l5,3l0,4" fill="none" stroke="#880000" stroke-width="1.5" id="R2"/><path d="m120,50l0,5l5,3l-10,5l10,5l-10,5l10,5l-10,5l5,3l0,4" fill="none" stroke="#880000" stroke-width="1.5" id="R3"/><path d="m180,120l0,7m10,0l-20,0m0,6l20,0m-10,0l0,7" fill="none" stroke="#880000" stroke-width="1.5" id="C1"/><path d="m40,110l0,7m10,0l-20,0m5,6l10,0m-5,0l0,7" fill="none" stroke="#880000" stroke-width="1.5" id="P2"/><text x="80" y="20" id="s_2" stroke="null" font-family="serif" text-anchor="middle" font-size="14" fill="#0000ff">10kΩ</text><text x="99" y="135" id="s_3" stroke="null" font-family="serif" text-anchor="middle" font-size="14" fill="#0000ff">4kΩ</text><path d="m117.5,30a2.5,2.5 0 1 1 5,0a2.5,2.5 0 1 1 -5,0" stroke="#000000" stroke-width="1.5" fill="#000000" id="Do1"/><path d="m117.5,100a2.5,2.5 0 1 1 5,0a2.5,2.5 0 1 1 -5,0" stroke="#000000" stroke-width="1.5" fill="#000000" id="Do2"/><path d="m117.5,160a2.5,2.5 0 1 1 5,0a2.5,2.5 0 1 1 -5,0" stroke="#000000" stroke-width="1.5" fill="#000000" id="Do3"/><path d="m44,106.33333l10,0m-5,-5l0,10" stroke="#ff0000" stroke-width="1.5" id="S1"/><path d="m43.66666,132l10,0" stroke="#ff0000" stroke-width="1.5" id="S2"/><text x="30.08333" y="49.5" id="s_7" stroke="null" font-family="serif" text-anchor="middle" font-size="14" fill="#0000ff">S</text><path d="m90,160l-20,0l10,4l-5,-4l5,-4l-10,4" stroke="#ff0000" stroke-width="1.5" fill="#ff0000" id="A-2"/><text x="79" y="153" id="s_9" stroke="null" font-family="serif" text-anchor="middle" font-size="14" fill="#0000ff">I</text><g id="s_10"><path d="m39.98333,40.01667l0,6.5a3.5,3.5 0 1 0 0,7a3.5,3.5 0 1 0 0,-7m0,20a3.5,3.5 0 1 0 0,7a3.5,3.5 0 1 0 0,-7m0,7l0,6.5m-3.5,-30l-8,20m23,0" fill="none" stroke="#880000" stroke-width="1.5" id="s1"/><g id="s_8"><path fill="none" stroke="#ff0000" stroke-width="1.5" d="m43.48333,63.93334l-9.99978,-0.06635l8.15042,-0.69515l-5.2978,-6.23266l7.14715,6.99416" id="Li17"/><path fill="none" stroke="#ff0000" stroke-width="1.5" d="m40.65,62.35q-10.66667,-2 -13.33333,-8.66667" id="Li18"/></g></g><path id="L1" stroke-width="1.5" stroke="#880000" fill="none" d="m180,50l0,4a6,4.8 0 1 1 -6,8a6,6 0 1 1 0,8a6,6 0 1 1 0,8a6,4.8 0 1 1 6,8l0,4m10,0m-20,0"/><text fill="#0000ff" font-size="14" text-anchor="middle" font-family="serif" stroke="null" id="s_11" y="75.33333" x="100.16667">8kΩ</text><text fill="#0000ff" font-size="14" text-anchor="middle" font-family="serif" stroke="null" id="s_12" y="74.33333" x="157.83333">4mH</text><text fill="#0000ff" font-size="14" text-anchor="middle" font-family="serif" stroke="null" id="s_13" y="134.66667" x="156.16667">2µF</text><polyline id="Li2" points="40,40 40,30 40,30 60,30 " stroke-width="1.5" stroke="#000000" fill="none"/><text fill="#0000ff" font-size="14" text-anchor="middle" font-family="serif" stroke="null" id="s_14" y="125" x="16.16667">28V</text><polyline id="Li4" points="120,150 120,160 " stroke-width="1.5" stroke="#000000" fill="none"/><polyline id="Li5" points="180,140 180,160 " stroke-width="1.5" stroke="#000000" fill="none"/><polyline id="Li6" points="180,90 180,120 " stroke-width="1.5" stroke="#000000" fill="none"/><polyline id="Li7" points="120,90 120,110 " stroke-width="1.5" stroke="#000000" fill="none"/><polyline id="Li8" points="120,100 180,100 " stroke-width="1.5" stroke="#000000" fill="none"/><polyline id="Li9" points="100,30 180,30 180,30 180,50 " stroke-width="1.5" stroke="#000000" fill="none"/><polyline id="Li10" points="120,30 120,50 " stroke-width="1.5" stroke="#000000" fill="none"/><polyline id="Li11" points="40,80 40,110 " stroke-width="1.5" stroke="#000000" fill="none"/><path id="Do4" fill="#000000" stroke-width="1.5" stroke="#000000" d="m177.5,100a2.5,2.5 0 1 1 5,0a2.5,2.5 0 1 1 -5,0"/></g></svg>