<svg width="270" height="130" xmlns="http://www.w3.org/2000/svg" xmlns:svg="http://www.w3.org/2000/svg"><g><title>Layer 1</title><path id="L1" stroke-width="1.5" stroke="#880000" fill="none" d="m100,50l0,4a6,4.8 0 1 1 -6,8a6,6 0 1 1 0,8a6,6 0 1 1 0,8a6,4.8 0 1 1 6,8l0,4m10,0m-20,0"/><path id="C1" stroke-width="1.5" stroke="#880000" fill="none" d="m170,60l0,7m10,0l-20,0m0,6l20,0m-10,0l0,7"/><path id="R1" stroke-width="1.5" stroke="#880000" fill="none" d="m240,50l0,5l5,3l-10,5l10,5l-10,5l10,5l-10,5l5,3l0,4"/><text fill="#0000ff" font-size="14" text-anchor="middle" font-family="serif" stroke="null" id="s_1" y="74" x="127">50mH</text><path id="P2" stroke-width="1.5" stroke="#880000" fill="none" d="m50,70a10,10 0 1 1 -20,0a10,10 0 1 1 20,0m-10,-20l0,10m0,20l0,10m-7,-20a3.5,3.5 0 1 1 7,0a3.5,3.5 0 1 0 7,0"/><polyline id="Li1" points="40,50 40,30 40,30 170,30 " stroke-width="1.5" stroke="#000000" fill="none"/><polyline id="Li2" points="240,50 240,30 240,30 170,30 " stroke-width="1.5" stroke="#000000" fill="none"/><polyline id="Li3" points="170,60 170,30 " stroke-width="1.5" stroke="#000000" fill="none"/><polyline id="Li4" points="100,50 100,30 " stroke-width="1.5" stroke="#000000" fill="none"/><polyline id="Li5" points="40,90 40,110 40,110 170,110 " stroke-width="1.5" stroke="#000000" fill="none"/><polyline id="Li6" points="240,90 240,110 240,110 170,110 " stroke-width="1.5" stroke="#000000" fill="none"/><polyline id="Li7" points="170,110 170,80 " stroke-width="1.5" stroke="#000000" fill="none"/><polyline id="Li8" points="100,110 100,90 " stroke-width="1.5" stroke="#000000" fill="none"/><path id="Do1" fill="#000000" stroke-width="1.5" stroke="#000000" d="m97.5,30a2.5,2.5 0 1 1 5,0a2.5,2.5 0 1 1 -5,0"/><path id="Do2" fill="#000000" stroke-width="1.5" stroke="#000000" d="m167.5,30a2.5,2.5 0 1 1 5,0a2.5,2.5 0 1 1 -5,0"/><path id="Do3" fill="#000000" stroke-width="1.5" stroke="#000000" d="m97.5,110a2.5,2.5 0 1 1 5,0a2.5,2.5 0 1 1 -5,0"/><path id="Do4" fill="#000000" stroke-width="1.5" stroke="#000000" d="m167.5,110a2.5,2.5 0 1 1 5,0a2.5,2.5 0 1 1 -5,0"/><path id="Li9" d="m80,30l-9.27184,3.74607l7.27184,-3.74607l-7.27184,-3.74607l9.27184,3.74607l-30,0" stroke-width="1.5" stroke="#ff0000" fill="none"/><path id="Li10" d="m150,30l-9.27184,3.74607l7.27184,-3.74607l-7.27184,-3.74607l9.27184,3.74607l-30,0" stroke-width="1.5" stroke="#ff0000" fill="none"/><path id="Li11" d="m170,60l-3.74607,-9.27184l3.74607,7.27184l3.74607,-7.27184l-3.74607,9.27184l0,-20" stroke-width="1.5" stroke="#ff0000" fill="none"/><text text-anchor="middle" font-family="serif" stroke="null" id="s_2" y="22" x="62.4"><tspan fill="#0000ff" font-size="14" id="s_3">I</tspan><tspan fill="#0000ff" font-size="12" dy="2" id="s_4">T</tspan></text><text text-anchor="middle" font-family="serif" stroke="null" id="s_5" y="21.2" x="131.2"><tspan fill="#0000ff" font-size="14" id="s_6">I</tspan><tspan fill="#0000ff" font-size="12" dy="2" id="s_7">1</tspan></text><text text-anchor="middle" font-family="serif" stroke="null" id="s_8" y="52.4" x="182.4"><tspan fill="#0000ff" font-size="14" id="s_9">I</tspan><tspan fill="#0000ff" font-size="12" dy="2" id="s_10">C</tspan></text><text fill="#0000ff" font-size="14" text-anchor="middle" font-family="serif" stroke="null" id="s_11" y="74.8" x="188.8">C</text><text fill="#0000ff" font-size="14" text-anchor="middle" font-family="serif" stroke="null" id="s_12" y="74" x="254.4">R</text><text fill="#0000ff" font-size="14" text-anchor="middle" font-family="serif" stroke="null" id="s_13" y="75.14286" x="16">v(t)</text></g></svg>