<svg width="210" height="150" xmlns="http://www.w3.org/2000/svg" xmlns:svg="http://www.w3.org/2000/svg"><g><title>Layer 1</title><polyline fill="none" stroke="#000000" stroke-width="1.5" points="30,100 30,140 30,140 170,140 " id="Li1"/><polyline fill="none" stroke="#000000" stroke-width="1.5" points="30,60 30,30 30,30 170,30 " id="Li6"/><path id="S1" stroke-width="1.5" stroke="#ff0000" d="m15,62.33333l10,0m-5,-5l0,10"/><path id="S2" stroke-width="1.5" stroke="#ff0000" d="m13.66666,97l10,0"/><path d="m40,80a10,10 0 1 1 -20,0a10,10 0 1 1 20,0m-10,-20l0,10m0,20l0,10m-7,-20a3.5,3.5 0 1 1 7,0a3.5,3.5 0 1 0 7,0" fill="none" stroke="#880000" stroke-width="1.5" id="P2"/><path id="A-2" fill="#ff0000" stroke-width="1.5" stroke="#ff0000" d="m50,30l20,0l-10,-4l5,4l-5,4l10,-4"/><text transform="matrix(1,0,0,1,0,0) " x="11.66667" y="84.83681" id="s_1" stroke="null" font-family="serif" text-anchor="middle" font-size="14" fill="#0000ff">V</text><text transform="matrix(1,0,0,1,0,0) " x="61.55556" y="23.28125" id="s_2" stroke="null" font-family="serif" text-anchor="middle" font-size="14" fill="#0000ff">I</text><path d="m170,40l0,5l5,3l-10,5l10,5l-10,5l10,5l-10,5l5,3l0,4" fill="none" stroke="#880000" stroke-width="1.5" id="R1"/><path d="m90,40l0,5l5,3l-10,5l10,5l-10,5l10,5l-10,5l5,3l0,4" fill="none" stroke="#880000" stroke-width="1.5" id="R2"/><path d="m170,90l0,4a6,4.8 0 1 1 -6,8a6,6 0 1 1 0,8a6,6 0 1 1 0,8a6,4.8 0 1 1 6,8l0,4m10,0m-20,0" fill="none" stroke="#880000" stroke-width="1.5" id="L1"/><path d="m90,100l0,7m10,0l-20,0m0,6l20,0m-10,0l0,7" fill="none" stroke="#880000" stroke-width="1.5" id="C1"/><text transform="matrix(1,0,0,1,0,0) " x="101.27778" y="129.77778" id="s_8" stroke="null" font-family="serif" text-anchor="middle"><tspan transform="matrix(1,0,0,1,0,0) " id="s_9" font-size="14" fill="#0000ff">X</tspan><tspan transform="matrix(1,0,0,1,0,0) " id="s_10" dy="2" font-size="12" fill="#0000ff">C</tspan></text><text transform="matrix(1,0,0,1,0,0) " x="185.94444" y="129.77778" id="s_3" stroke="null" font-family="serif" text-anchor="middle"><tspan transform="matrix(1,0,0,1,0,0) " id="s_4" font-size="14" fill="#0000ff">X</tspan><tspan transform="matrix(1,0,0,1,0,0) " id="s_5" dy="2" font-size="12" fill="#0000ff">L</tspan></text><polyline fill="none" stroke="#000000" stroke-width="1.5" points="170,130 170,140 170,140 160,140 " id="Li2"/><polyline fill="none" stroke="#000000" stroke-width="1.5" points="170,80 170,90 " id="Li3"/><polyline fill="none" stroke="#000000" stroke-width="1.5" points="90,80 90,100 " id="Li4"/><polyline fill="none" stroke="#000000" stroke-width="1.5" points="90,120 90,140 " id="Li5"/><polyline fill="none" stroke="#000000" stroke-width="1.5" points="170,40 170,30 170,30 160,30 " id="Li7"/><polyline fill="none" stroke="#000000" stroke-width="1.5" points="90,40 90,30 " id="Li8"/><text transform="matrix(1,0,0,1,0,0) " x="11.64286" y="70.36161" id="s_17" stroke="null" font-family="serif" text-anchor="middle" font-size="14" fill="#0000ff" font-weight="bold">_</text><text transform="matrix(1,0,0,1,0,0) " x="61.5" y="8.93304" id="s_18" stroke="null" font-family="serif" text-anchor="middle" font-size="14" fill="#0000ff" font-weight="bold">_</text><path d="m50,70l20,0l-10,-4l5,4l-5,4l10,-4" stroke="#ff0000" stroke-width="1.5" fill="#ff0000" id="A1"/><polyline fill="none" stroke="#ff0000" stroke-width="1.5" points="60,70 50,70 50,70 50,110 " id="Li9"/><text transform="matrix(1,0,0,1,0,0) " x="49.71429" y="110.5" id="s_19" stroke="null" font-family="serif" text-anchor="middle" font-size="14" fill="#0000ff" font-weight="bold">_</text><text transform="matrix(1,0,0,1,0,0) " x="49.71429" y="124.78571" id="s_20" stroke="null" font-family="serif" text-anchor="middle" font-size="14" fill="#0000ff" font-weight="bold">Z</text><path d="m87.5,30a2.5,2.5 0 1 1 5,0a2.5,2.5 0 1 1 -5,0" stroke="#000000" stroke-width="1.5" fill="#000000" id="Do1"/><path d="m87.5,140a2.5,2.5 0 1 1 5,0a2.5,2.5 0 1 1 -5,0" stroke="#000000" stroke-width="1.5" fill="#000000" id="Do2"/><text transform="matrix(1,0,0,1,0,0) " x="110.28571" y="64.5" id="s_22" stroke="null" font-family="serif" text-anchor="middle" font-size="14" fill="#0000ff">10立</text><text transform="matrix(1,0,0,1,0,0) " x="189.42857" y="64.21429" id="s_23" stroke="null" font-family="serif" text-anchor="middle" font-size="14" fill="#0000ff">10立</text><text transform="matrix(1,0,0,1,0,0) " x="113" y="113.07143" id="s_24" stroke="null" font-family="serif" text-anchor="middle" font-size="14" fill="#0000ff">10立</text><text transform="matrix(1,0,0,1,0,0) " x="190.14286" y="113.78571" id="s_25" stroke="null" font-family="serif" text-anchor="middle" font-size="14" fill="#0000ff">10立</text></g></svg>