<svg width="320" height="180" xmlns="http://www.w3.org/2000/svg" xmlns:svg="http://www.w3.org/2000/svg"><g><title>Layer 1</title><path id="R1" stroke-width="1.5" stroke="#880000" fill="none" d="m80,30l5,0l3,-5l5,10l5,-10l5,10l5,-10l5,10l3,-5l4,0"/><path id="R2" stroke-width="1.5" stroke="#880000" fill="none" d="m160,30l5,0l3,-5l5,10l5,-10l5,10l5,-10l5,10l3,-5l4,0"/><path id="R3" stroke-width="1.5" stroke="#880000" fill="none" d="m220,40l0,5l5,3l-10,5l10,5l-10,5l10,5l-10,5l5,3l0,4"/><path id="R4" stroke-width="1.5" stroke="#880000" fill="none" d="m240,100l0,5l5,3l-10,5l10,5l-10,5l10,5l-10,5l5,3l0,4"/><g id="s_1"><circle id="Ci1" r="20" stroke-width="1.5" stroke="#7f0000" fill="none" cy="90" cx="60"/><path id="S1" stroke-width="1.5" stroke="#ff0000" d="m55,80l10,0m-5,-5l0,10"/><path id="S2" stroke-width="1.5" stroke="#ff0000" d="m55,100l10,0"/></g><path id="A1" fill="#ff0000" stroke-width="1.5" stroke="#ff0000" d="m210,110l0,20l4,-10l-4,5l-4,-5l4,10"/><path id="R5" stroke-width="1.5" stroke="#880000" fill="none" d="m140,110l0,-5l-5,-3l10,-5l-10,-5l10,-5l-10,-5l10,-5l-5,-3l0,-4"/><path id="R6" stroke-width="1.5" stroke="#880000" fill="none" d="m200,140l0,-5l-5,-3l10,-5l-10,-5l10,-5l-10,-5l10,-5l-5,-3l0,-4"/><path id="R7" stroke-width="1.5" stroke="#880000" fill="none" d="m280,110l0,-5l-5,-3l10,-5l-10,-5l10,-5l-10,-5l10,-5l-5,-3l0,-4"/><text fill="#0000ff" font-size="14" text-anchor="middle" font-family="serif" stroke="null" id="s_16" y="20.51042" x="100.33333">R</text><text fill="#0000ff" font-size="14" text-anchor="middle" font-family="serif" stroke="null" id="s_17" y="63.84375" x="237">2Ω</text><text fill="#0000ff" font-size="14" text-anchor="middle" font-family="serif" stroke="null" id="s_18" y="124.51042" x="181.66667">8Ω</text><text fill="#0000ff" font-size="14" text-anchor="middle" font-family="serif" stroke="null" id="s_19" y="124.51042" x="257">8Ω</text><text fill="#0000ff" font-size="14" text-anchor="middle" font-family="serif" stroke="null" id="s_20" y="123.51042" x="218.33333">I</text><text fill="#0000ff" font-size="14" text-anchor="middle" font-family="serif" stroke="null" id="s_21" y="94.51042" x="299.66667">30Ω</text><text fill="#0000ff" font-size="14" text-anchor="middle" font-family="serif" stroke="null" id="s_22" y="95.17708" x="118.33333">20Ω</text><text fill="#0000ff" font-size="14" text-anchor="middle" font-family="serif" stroke="null" id="s_23" y="21.17708" x="181">5Ω</text><polyline fill="none" stroke="#000000" stroke-width="1.5" points="200,100 200,90 200,90 220,90 " id="Li8"/><polyline fill="none" stroke="#000000" stroke-width="1.5" points="220,80 220,90 220,90 230,90 " id="Li9"/><polyline fill="none" stroke="#000000" stroke-width="1.5" points="230,90 240,90 240,90 240,100 " id="Li10"/><polyline fill="none" stroke="#000000" stroke-width="1.5" points="200,140 200,150 200,150 220,150 " id="Li11"/><polyline fill="none" stroke="#000000" stroke-width="1.5" points="240,140 240,150 240,150 220,150 " id="Li12"/><polyline fill="none" stroke="#000000" stroke-width="1.5" points="220,150 220,160 " id="Li13"/><polyline fill="none" stroke="#000000" stroke-width="1.5" points="200,30 280,30 280,30 280,70 " id="Li14"/><polyline fill="none" stroke="#000000" stroke-width="1.5" points="120,30 160,30 " id="Li15"/><polyline fill="none" stroke="#000000" stroke-width="1.5" points="60,70 60,30 60,30 80,30 " id="Li16"/><polyline fill="none" stroke="#000000" stroke-width="1.5" points="280,110 280,160 280,160 60,160 " id="Li17"/><polyline fill="none" stroke="#000000" stroke-width="1.5" points="60,110 60,160 " id="Li18"/><polyline fill="none" stroke="#000000" stroke-width="1.5" points="140,30 140,70 " id="Li19"/><polyline fill="none" stroke="#000000" stroke-width="1.5" points="140,110 140,160 " id="Li20"/><polyline fill="none" stroke="#000000" stroke-width="1.5" points="220,40 220,30 220,30 230,30 " id="Li21"/><path d="m137.5,30a2.5,2.5 0 1 1 5,0a2.5,2.5 0 1 1 -5,0" stroke="#000000" stroke-width="1.5" fill="#000000" id="Do1"/><path d="m137.5,160a2.5,2.5 0 1 1 5,0a2.5,2.5 0 1 1 -5,0" stroke="#000000" stroke-width="1.5" fill="#000000" id="Do2"/><path d="m217.5,160a2.5,2.5 0 1 1 5,0a2.5,2.5 0 1 1 -5,0" stroke="#000000" stroke-width="1.5" fill="#000000" id="Do3"/><path d="m217.5,150a2.5,2.5 0 1 1 5,0a2.5,2.5 0 1 1 -5,0" stroke="#000000" stroke-width="1.5" fill="#000000" id="Do4"/><path d="m217.5,90a2.5,2.5 0 1 1 5,0a2.5,2.5 0 1 1 -5,0" stroke="#000000" stroke-width="1.5" fill="#000000" id="Do5"/><path d="m217.5,30a2.5,2.5 0 1 1 5,0a2.5,2.5 0 1 1 -5,0" stroke="#000000" stroke-width="1.5" fill="#000000" id="Do6"/><text x="21.66667" y="93.84375" id="s_2" stroke="null" font-family="serif" text-anchor="middle" font-size="14" fill="#0000ff">50V</text><text text-anchor="middle" font-family="serif" stroke="null" id="s_3" y="22.5" x="219.5"><tspan fill="#0000ff" font-size="14" id="s_4">V</tspan><tspan fill="#0000ff" font-size="12" dy="2" id="s_5">x</tspan></text></g></svg>