<svg width="200" height="150" xmlns="http://www.w3.org/2000/svg" xmlns:svg="http://www.w3.org/2000/svg"><g><title>Layer 1</title><path d="m170,50l0,4a6,4.8 0 1 1 -6,8a6,6 0 1 1 0,8a6,6 0 1 1 0,8a6,4.8 0 1 1 6,8l0,4m10,0m-20,0" fill="none" stroke="#880000" stroke-width="1.5" id="L1"/><path d="m110,110l-7,0m0,10l0,-20m-6,0l0,20m0,-10l-7,0" fill="none" stroke="#880000" stroke-width="1.5" id="C1"/><path d="m120,30l-5,0l-3,5l-5,-10l-5,10l-5,-10l-5,10l-5,-10l-3,5l-4,0" fill="none" stroke="#880000" stroke-width="1.5" id="R1"/><path d="m50,70a10,10 0 1 1 -20,0a10,10 0 1 1 20,0m-10,-20l0,10m0,20l0,10m-7,-20a3.5,3.5 0 1 1 7,0a3.5,3.5 0 1 0 7,0" fill="none" stroke="#880000" stroke-width="1.5" id="P2"/><text transform="matrix(1,0,0,1,0,0) " x="16" y="75.14286" id="s_13" stroke="null" font-family="serif" text-anchor="middle" font-size="14" fill="#0000ff">v(t)</text><text transform="matrix(1,0,0,1,0,0) " fill="#0000ff" font-size="14" text-anchor="middle" font-family="serif" stroke="null" id="s_18" y="47" x="100.6">5Ω</text><text transform="matrix(1,0,0,1,0,0) " fill="#0000ff" font-size="14" text-anchor="middle" font-family="serif" stroke="null" id="s_19" y="96.4" x="100.2">1F</text><text transform="matrix(1,0,0,1,0,0) " fill="#0000ff" font-size="14" text-anchor="middle" font-family="serif" stroke="null" id="s_20" y="71.6" x="187">4H</text><polyline id="Li2" points="40,90 40,110 40,110 90,110 " stroke-width="1.5" stroke="#000000" fill="none"/><polyline id="Li3" points="110,110 170,110 170,110 170,90 " stroke-width="1.5" stroke="#000000" fill="none"/><polyline id="Li4" points="170,50 170,30 170,30 120,30 " stroke-width="1.5" stroke="#000000" fill="none"/><polyline id="Li5" points="80,30 40,30 40,30 40,50 " stroke-width="1.5" stroke="#000000" fill="none"/><path id="Li6" d="m78,24l-9.27184,3.74607l7.27184,-3.74607l-7.27184,-3.74607l9.27184,3.74607l-30,0" stroke-width="1.5" stroke="#ff0000" fill="none"/><text transform="matrix(1,0,0,1,0,0) " fill="#0000ff" font-size="14" text-anchor="middle" font-family="serif" stroke="null" id="s_21" y="16.8" x="74.2">i(t)=Im sin(ωt+θ) A</text><g id="s_24"><polyline id="Li1" points="64.4000244140625,125.0999984741211 71.80003356933594,125.0999984741211 " stroke-width="0.6" stroke="#0000ff" fill="none"/><text fill="#0000ff" font-size="14" text-anchor="middle" font-family="serif" stroke="null" id="s_22" y="137.6" x="83.6">v(t)=100√2 sin(ωt - 45°) V</text></g></g></svg>