<svg width="270" height="130" xmlns="http://www.w3.org/2000/svg" xmlns:svg="http://www.w3.org/2000/svg"><g><title>Layer 1</title><path d="m100,50l0,4a6,4.8 0 1 1 -6,8a6,6 0 1 1 0,8a6,6 0 1 1 0,8a6,4.8 0 1 1 6,8l0,4m10,0m-20,0" fill="none" stroke="#880000" stroke-width="1.5" id="L1"/><path d="m170,60l0,7m10,0l-20,0m0,6l20,0m-10,0l0,7" fill="none" stroke="#880000" stroke-width="1.5" id="C1"/><path d="m240,50l0,5l5,3l-10,5l10,5l-10,5l10,5l-10,5l5,3l0,4" fill="none" stroke="#880000" stroke-width="1.5" id="R1"/><path d="m50,70a10,10 0 1 1 -20,0a10,10 0 1 1 20,0m-10,-20l0,10m0,20l0,10m-7,-20a3.5,3.5 0 1 1 7,0a3.5,3.5 0 1 0 7,0" fill="none" stroke="#880000" stroke-width="1.5" id="P2"/><polyline fill="none" stroke="#000000" stroke-width="1.5" points="40,50 40,30 40,30 170,30 " id="Li1"/><polyline fill="none" stroke="#000000" stroke-width="1.5" points="240,50 240,30 240,30 170,30 " id="Li2"/><polyline fill="none" stroke="#000000" stroke-width="1.5" points="170,60 170,30 " id="Li3"/><polyline fill="none" stroke="#000000" stroke-width="1.5" points="100,50 100,30 " id="Li4"/><polyline fill="none" stroke="#000000" stroke-width="1.5" points="40,90 40,110 40,110 170,110 " id="Li5"/><polyline fill="none" stroke="#000000" stroke-width="1.5" points="240,90 240,110 240,110 170,110 " id="Li6"/><polyline fill="none" stroke="#000000" stroke-width="1.5" points="170,110 170,80 " id="Li7"/><polyline fill="none" stroke="#000000" stroke-width="1.5" points="100,110 100,90 " id="Li8"/><path d="m97.5,30a2.5,2.5 0 1 1 5,0a2.5,2.5 0 1 1 -5,0" stroke="#000000" stroke-width="1.5" fill="#000000" id="Do1"/><path d="m167.5,30a2.5,2.5 0 1 1 5,0a2.5,2.5 0 1 1 -5,0" stroke="#000000" stroke-width="1.5" fill="#000000" id="Do2"/><path d="m97.5,110a2.5,2.5 0 1 1 5,0a2.5,2.5 0 1 1 -5,0" stroke="#000000" stroke-width="1.5" fill="#000000" id="Do3"/><path d="m167.5,110a2.5,2.5 0 1 1 5,0a2.5,2.5 0 1 1 -5,0" stroke="#000000" stroke-width="1.5" fill="#000000" id="Do4"/><text x="254.4" y="74" id="s_12" stroke="null" font-family="serif" text-anchor="middle" font-size="14" fill="#0000ff">R</text><text x="16" y="75.14286" id="s_13" stroke="null" font-family="serif" text-anchor="middle" font-size="14" fill="#0000ff">v(t)</text><text fill="#0000ff" font-size="14" text-anchor="middle" font-family="serif" stroke="null" id="s_15" y="74.90625" x="114">L</text><text fill="#0000ff" font-size="14" text-anchor="middle" font-family="serif" stroke="null" id="s_16" y="74.10625" x="197.4">10mF</text><g id="s_17"><text fill="#0000ff" font-size="14" text-anchor="middle" font-family="serif" stroke="null" id="s_14" y="19.26563" x="72">v(t)=50√2 sin(t+30°) V</text><polyline id="Li1" points="56,6.200000762939453 63.400001525878906,6.200000762939453 " stroke-width="0.6" stroke="#0000ff" fill="none"/></g></g></svg>