<svg width="320" height="210" xmlns="http://www.w3.org/2000/svg" xmlns:svg="http://www.w3.org/2000/svg"><g><title>Layer 1</title><rect id="s_4" height="40" width="60" y="130" x="220" stroke-width="1.5" stroke="#7f0000" fill="none"/><path id="P2" stroke-width="1.5" stroke="#880000" fill="none" d="m90,70a10,10 0 1 1 -20,0a10,10 0 1 1 20,0m-10,-20l0,10m0,20l0,10m-7,-20a3.5,3.5 0 1 1 7,0a3.5,3.5 0 1 0 7,0"/><path id="R1" stroke-width="1.5" stroke="#880000" fill="none" d="m130,30l5,0l3,-5l5,10l5,-10l5,10l5,-10l5,10l3,-5l4,0"/><path id="R2" stroke-width="1.5" stroke="#880000" fill="none" d="m130,110l5,0l3,-5l5,10l5,-10l5,10l5,-10l5,10l3,-5l4,0"/><path id="R3" stroke-width="1.5" stroke="#880000" fill="none" d="m130,190l5,0l3,-5l5,10l5,-10l5,10l5,-10l5,10l3,-5l4,0"/><path id="P3" stroke-width="1.5" stroke="#880000" fill="none" d="m90,150a10,10 0 1 1 -20,0a10,10 0 1 1 20,0m-10,-20l0,10m0,20l0,10m-7,-20a3.5,3.5 0 1 1 7,0a3.5,3.5 0 1 0 7,0"/><text fill="#0000ff" font-size="16" text-anchor="middle" font-family="serif" stroke="null" id="s_2" y="74" x="250">設備A</text><text fill="#0000ff" font-size="16" text-anchor="middle" font-family="serif" stroke="null" id="s_3" y="157" x="250">設備B</text><rect id="Re2" height="40" width="60" y="50" x="220" stroke-width="1.5" stroke="#7f0000" fill="none"/><polyline id="Li1" points="250,90 250,130 " stroke-width="1.5" stroke="#000000" fill="none"/><polyline id="Li2" points="170,110 250,110 " stroke-width="1.5" stroke="#000000" fill="none"/><polyline id="Li3" points="170,30 250,30 250,30 250,50 " stroke-width="1.5" stroke="#000000" fill="none"/><polyline id="Li4" points="250,170 250,190 250,190 170,190 " stroke-width="1.5" stroke="#000000" fill="none"/><polyline id="Li5" points="80,170 80,190 80,190 130,190 " stroke-width="1.5" stroke="#000000" fill="none"/><polyline id="Li6" points="80,90 80,130 " stroke-width="1.5" stroke="#000000" fill="none"/><polyline id="Li7" points="80,110 130,110 " stroke-width="1.5" stroke="#000000" fill="none"/><polyline id="Li8" points="80,50 80,30 80,30 130,30 " stroke-width="1.5" stroke="#000000" fill="none"/><path id="Do1" fill="#000000" stroke-width="1.5" stroke="#000000" d="m77.5,110a2.5,2.5 0 1 1 5,0a2.5,2.5 0 1 1 -5,0"/><path id="Do2" fill="#000000" stroke-width="1.5" stroke="#000000" d="m247.5,110a2.5,2.5 0 1 1 5,0a2.5,2.5 0 1 1 -5,0"/><polyline id="Li9" points="170,120 200,120 200,120 200,140 " stroke-dasharray="2,2" stroke-width="1.5" stroke="#0000ff" fill="none"/><polyline id="Li10" points="200,140 200,180 200,180 180,180 " stroke-dasharray="2,2" stroke-width="1.5" stroke="#0000ff" fill="none"/><path id="Li11" d="m180,180l9.27184,-3.74607l-7.27184,3.74607l7.27184,3.74607l-9.27184,-3.74607" stroke-width="1.5" stroke="#0000ff" fill="none"/><polyline id="Li12" points="210,110 210,190 " stroke-width="1.5" stroke="#000000" fill="none"/><path id="Li13" d="m210,150l-3.74607,-9.27184l3.74607,7.27184l3.74607,-7.27184l-3.74607,9.27184" stroke-width="1.5" stroke="#000000" fill="none"/><path id="Li14" d="m210,150l3.74607,9.27184l-3.74607,-7.27184l-3.74607,7.27184l3.74607,-9.27184" stroke-width="1.5" stroke="#000000" fill="none"/><text fill="#0000ff" font-size="14" text-anchor="middle" font-family="serif" stroke="null" id="s_5" y="154" x="183">短路</text><path id="Do3" fill="#000000" stroke-width="1.5" stroke="#000000" d="m207.5,110a2.5,2.5 0 1 1 5,0a2.5,2.5 0 1 1 -5,0"/><path id="Do4" fill="#000000" stroke-width="1.5" stroke="#000000" d="m207.5,190a2.5,2.5 0 1 1 5,0a2.5,2.5 0 1 1 -5,0"/><polyline id="s_6" points="180,40 210,40 210,40 210,60 " stroke-dasharray="2,2" stroke-width="1.5" stroke="#0000ff" fill="none"/><polyline id="s_7" points="210,60 210,100 210,100 190,100 " stroke-dasharray="2,2" stroke-width="1.5" stroke="#0000ff" fill="none"/><path id="s_8" d="m190,100l9.27184,-3.74607l-7.27184,3.74607l7.27184,3.74607l-9.27184,-3.74607" stroke-width="1.5" stroke="#0000ff" fill="none"/><text text-anchor="middle" font-family="serif" stroke="null" id="s_9" y="57" x="187"><tspan fill="#0000ff" font-size="14" id="s_10">I</tspan><tspan fill="#0000ff" font-size="12" dy="2" id="s_11">1</tspan></text><text text-anchor="middle" font-family="serif" stroke="null" id="s_12" y="134" x="176"><tspan fill="#0000ff" font-size="14" id="s_13">I</tspan><tspan fill="#0000ff" font-size="12" dy="2" id="s_14">2</tspan></text><text fill="#0000ff" font-size="14" text-anchor="middle" font-family="serif" stroke="null" id="s_18" y="20" x="150">0.1Ω</text><text fill="#0000ff" font-size="14" text-anchor="middle" font-family="serif" stroke="null" id="s_19" y="99" x="149">0.1Ω</text><text fill="#0000ff" font-size="14" text-anchor="middle" font-family="serif" stroke="null" id="s_20" y="179" x="148">0.1Ω</text><text fill="#0000ff" font-size="14" text-anchor="middle" font-family="serif" stroke="null" id="s_21" y="75" x="296">2Ω</text><text fill="#0000ff" font-size="14" text-anchor="middle" font-family="serif" stroke="null" id="s_22" y="158" x="297">2Ω</text><text fill="#0000ff" font-size="14" text-anchor="middle" font-family="serif" stroke="null" id="s_24" y="76" x="37">110∠0° V</text><text fill="#0000ff" font-size="14" text-anchor="middle" font-family="serif" stroke="null" id="s_25" y="157" x="38">110∠0° V</text><path id="S1" stroke-width="1.5" stroke="#ff0000" d="m65,51l10,0m-5,-5l0,10"/><path id="S2" stroke-width="1.5" stroke="#ff0000" d="m64,130l10,0m-5,-5l0,10"/><path id="S3" stroke-width="1.5" stroke="#ff0000" d="m65,91l10,0"/><path id="S4" stroke-width="1.5" stroke="#ff0000" d="m65,171l10,0"/></g></svg>