<svg width="310" height="140" xmlns="http://www.w3.org/2000/svg" xmlns:svg="http://www.w3.org/2000/svg"><g><title>Layer 1</title><g id="s_1"><circle cx="90" cy="80" fill="none" stroke="#7f0000" stroke-width="1.5" r="10" id="Ci1"/><path fill="none" stroke="#7f0000" stroke-width="1.5" d="m82,80c9.14286,-14 6,14 15.14286,0" id="Li6"/></g><polyline id="Li7" points="90,70 90,40 " stroke-width="1.5" stroke="#7f0000" fill="none"/><polyline id="Li8" points="90,90 90,120 " stroke-width="1.5" stroke="#7f0000" fill="none"/><g id="s_2"><circle id="s_3" cx="120" cy="100.66667" fill="none" stroke="#7f0000" stroke-width="1.5" r="10"/><path id="s_4" fill="none" stroke="#7f0000" stroke-width="1.5" d="m112,100.66667c9.14286,-14 6,14 15.14286,0"/></g><polyline id="Li9" points="90.33331298828125,120.66667175292969 111.66668701171875,106.33334350585938 " stroke-width="1.5" stroke="#7f0000" fill="none"/><polyline id="Li10" points="150,80 128,95.33334350585938 " stroke-width="1.5" stroke="#7f0000" fill="none"/><g id="s_15"><g id="s_16"><circle cx="120" cy="60" fill="none" stroke="#7f0000" stroke-width="1.5" r="10" id="s_17"/><path fill="none" stroke="#7f0000" stroke-width="1.5" d="m112,60c9.14286,-14 6,14 15.14286,0" id="s_18"/></g><polyline points="90.33332824707031,40 111.66667175292969,54.33332824707031 " stroke-width="1.5" stroke="#7f0000" fill="none" id="s_19"/><polyline points="150,80.66667175292969 128,65.33332824707031 " stroke-width="1.5" stroke="#7f0000" fill="none" id="s_20"/></g><g id="s_11"><path stroke-width="1.5" stroke="#7f0000" id="s_10" fill="none" d="m299.82394,120.44444l-21.82394,-14.62911"/><polyline stroke-width="1.5" stroke="#7f0000" points="274.84613037109375,109.9658203125 280.6922912597656,101.81196594238281 " id="s_9" fill="none"/><path stroke-width="1.5" stroke="#7f0000" id="s_8" fill="none" d="m265.80173,91.57089l15.40683,10.7026"/><path stroke-width="1.5" stroke="#7f0000" id="s_7" fill="none" d="m259.77951,99.59311l15.75894,10.52654"/><path stroke-width="1.5" stroke="#7f0000" id="s_6" fill="none" d="m260.44961,100.09908l6.02222,-8.50597"/><path stroke-width="1.5" stroke="#7f0000" id="s_5" fill="none" d="m240.17606,80.35211l23.15728,15.63929"/></g><g id="s_12"><path stroke-width="1.5" stroke="#7f0000" fill="none" d="m299.82394,40.35211l-21.82394,14.62911" id="s_13"/><polyline stroke-width="1.5" stroke="#7f0000" points="274.84613037109375,50.83073425292969 280.6922912597656,58.984588623046875 " fill="none" id="s_14"/><path stroke-width="1.5" stroke="#7f0000" fill="none" d="m265.80173,69.22566l15.40683,-10.7026" id="s_21"/><path stroke-width="1.5" stroke="#7f0000" fill="none" d="m259.77951,61.20344l15.75894,-10.52654" id="s_22"/><path stroke-width="1.5" stroke="#7f0000" fill="none" d="m260.44961,60.69747l6.02222,8.50597" id="s_23"/><path stroke-width="1.5" stroke="#7f0000" fill="none" d="m240.17606,80.44444l23.15728,-15.63929" id="s_24"/></g><polyline fill="none" stroke="#7f0000" stroke-width="1.5" points="295,70 295,90 " id="Li24"/><polyline fill="none" stroke="#7f0000" stroke-width="1.5" points="295,70 305,70 " id="Li25"/><polyline fill="none" stroke="#7f0000" stroke-width="1.5" points="305,70 305,90 " id="Li26"/><polyline fill="none" stroke="#7f0000" stroke-width="1.5" points="295,90 305,90 " id="Li27"/><polyline fill="none" stroke="#7f0000" stroke-width="1.5" points="300,70 300,40 " id="Li28"/><polyline fill="none" stroke="#7f0000" stroke-width="1.5" points="300,90 300,120 " id="Li29"/><text x="161.66667" y="57.33333" id="s_33" stroke="null" font-family="serif" text-anchor="middle" font-size="14" fill="#0000ff">240∠0°V</text><path d="m87.5,40a2.5,2.5 0 1 1 5,0a2.5,2.5 0 1 1 -5,0" stroke="#000000" stroke-width="1.5" fill="#000000" id="Do1"/><path d="m147.5,80a2.5,2.5 0 1 1 5,0a2.5,2.5 0 1 1 -5,0" stroke="#000000" stroke-width="1.5" fill="#000000" id="Do2"/><path d="m237.5,80a2.5,2.5 0 1 1 5,0a2.5,2.5 0 1 1 -5,0" stroke="#000000" stroke-width="1.5" fill="#000000" id="Do3"/><path d="m297.5,40a2.5,2.5 0 1 1 5,0a2.5,2.5 0 1 1 -5,0" stroke="#000000" stroke-width="1.5" fill="#000000" id="Do4"/><path d="m297.5,120a2.5,2.5 0 1 1 5,0a2.5,2.5 0 1 1 -5,0" stroke="#000000" stroke-width="1.5" fill="#000000" id="Do5"/><path d="m87.5,120a2.5,2.5 0 1 1 5,0a2.5,2.5 0 1 1 -5,0" stroke="#000000" stroke-width="1.5" fill="#000000" id="Do6"/><text x="41.66667" y="83.33333" id="s_36" stroke="null" font-family="serif" text-anchor="middle" font-size="14" fill="#0000ff">240∠120°V</text><text x="171.33333" y="108" id="s_37" stroke="null" font-family="serif" text-anchor="middle" font-size="14" fill="#0000ff">240∠-120°V</text><text x="270" y="63.33333" id="s_40" stroke="null" font-family="serif" text-anchor="middle" font-size="14" fill="#0000ff">z</text><text x="269.66667" y="103.66667" id="s_41" stroke="null" font-family="serif" text-anchor="middle" font-size="14" fill="#0000ff">z</text><text x="300.33333" y="83" id="s_42" stroke="null" font-family="serif" text-anchor="middle" font-size="14" fill="#0000ff">z</text><path d="m77.66667,95.66667l10,0m-5,-5l0,10" stroke="#ff0000" stroke-width="1.5" id="S1"/><path d="m124.66667,85.66667l10,0m-5,-5l0,10" stroke="#ff0000" stroke-width="1.5" id="S2"/><path d="m97.66667,57.66667l10,0m-5,-5l0,10" stroke="#ff0000" stroke-width="1.5" id="S3"/><path d="m77,65.66667l10,0" stroke="#ff0000" stroke-width="1.5" id="S4"/><path d="m124.33333,74.33333l10,0" stroke="#ff0000" stroke-width="1.5" id="S5"/><path d="m97.33333,107.33333l10,0" stroke="#ff0000" stroke-width="1.5" id="S6"/><path d="m170,34l20,0l-10,-4l5,4l-5,4l10,-4" stroke="#ff0000" stroke-width="1.5" fill="#ff0000" id="A0"/><text x="180.66667" y="26" id="s_43" stroke="null" font-family="serif" text-anchor="middle"><tspan id="s_44" font-size="14" fill="#0000ff">I</tspan><tspan id="s_45" dy="2" font-size="12" fill="#0000ff">A</tspan></text><polyline fill="none" stroke="#0000ff" stroke-width="1.5" points="171,14 181,14 " id="Li34"/><text fill="#0000ff" font-size="14" text-anchor="middle" font-family="serif" stroke="null" id="s_25" y="34.5" x="88">a</text><text fill="#0000ff" font-size="14" text-anchor="middle" font-family="serif" stroke="null" id="s_26" y="77.5" x="156">b</text><text fill="#0000ff" font-size="14" text-anchor="middle" font-family="serif" stroke="null" id="s_27" y="132.5" x="89">c</text><text fill="#0000ff" font-size="14" text-anchor="middle" font-family="serif" stroke="null" id="s_28" y="135" x="265.7">Z = 12∠60°Ω</text><polyline id="Li38" points="90,120 300,120 " stroke-width="1.5" stroke="#000000" fill="none"/><polyline id="Li39" points="90,40 300,40 " stroke-width="1.5" stroke="#000000" fill="none"/><polyline id="Li40" points="150,80 240,80 " stroke-width="1.5" stroke="#000000" fill="none"/></g></svg>