<svg  encoding="utf-8" width="160" height="120" xmlns="http://www.w3.org/2000/svg" xmlns:svg="http://www.w3.org/2000/svg"><g><title>Layer 1</title><g><path stroke-width="1.5" stroke="#880000" fill="none" d="m60,30l5,0l3,-5l5,10l5,-10l5,10l5,-10l5,10l3,-5l4,0"></path><path stroke-width="1.5" stroke="#880000" fill="none" d="m130,50l0,5l5,3l-10,5l10,5l-10,5l10,5l-10,5l5,3l0,4"></path><path stroke-width="1.5" stroke="#880000" fill="none" d="m30,50l0,17m10,0l-20,0m5,6l10,0m-5,0l0,17"></path><text fill="#0000ff" font-size="14" text-anchor="middle" font-family="serif" stroke="null" y="76" x="47">E</text><text text-anchor="middle" font-family="serif" stroke="null" y="17" x="80"><tspan fill="#0000ff" font-size="14">R</tspan><tspan fill="#0000ff" font-size="12" dy="2">1</tspan></text><text text-anchor="middle" font-family="serif" stroke="null" y="77" x="147"><tspan fill="#0000ff" font-size="14">R</tspan><tspan fill="#0000ff" font-size="12" dy="2">2</tspan></text><polyline points="30,50 30,30 30,30 60,30 " stroke-width="1.5" stroke="#000000" fill="none"></polyline><polyline points="100,30 130,30 130,30 130,50 " stroke-width="1.5" stroke="#000000" fill="none"></polyline><polyline points="130,90 130,110 130,110 30,110 " stroke-width="1.5" stroke="#000000" fill="none"></polyline><polyline points="30,110 30,90 " stroke-width="1.5" stroke="#000000" fill="none"></polyline></g></g></svg>