<svg  encoding="utf-8" width="249.99999999999997" height="150" xmlns="http://www.w3.org/2000/svg" xmlns:svg="http://www.w3.org/2000/svg" style="vector-effect: non-scaling-stroke;" stroke="null"> <!-- Created with SVG-edit - http://svg-edit.googlecode.com/ --> <g stroke="null">  <title stroke="null">Layer 1</title>  <text stroke="null" id="svg_1" text-anchor="start" fill="#000080" font-size="11pt" font-family="Arial" y="84.60156" x="50">33V</text>  <path stroke="#880000" id="svg_2" fill="none" d="m35,55l0,10"></path>  <path stroke="#880000" id="svg_3" fill="none" d="m35,95l0,-10"></path>  <polyline stroke="#880000" id="svg_4" stroke-linecap="round" fill="none" stroke-width="2" points="25,77.5 45,77.5 "></polyline>  <polyline stroke="#880000" id="svg_5" stroke-linecap="round" fill="none" stroke-width="2" points="25,66 45,66 "></polyline>  <polyline stroke="#880000" id="svg_6" stroke-linecap="round" fill="none" stroke-width="2" points="29,71.5 41,71.5 "></polyline>  <polyline stroke="#880000" id="svg_7" stroke-linecap="round" fill="none" stroke-width="2" points="29,84 41,84 "></polyline>  <text stroke="null" id="svg_8" text-anchor="start" fill="#000080" font-size="11pt" font-family="Arial" y="23.59375" x="90.00781">R1=100Ω</text>  <polyline stroke="#A00000" id="svg_9" stroke-linecap="round" fill="none" points="130,35 127,40 "></polyline>  <polyline stroke="#A00000" id="svg_10" stroke-linecap="round" fill="none" points="122,30 117,40 "></polyline>  <polyline stroke="#A00000" id="svg_11" stroke-linecap="round" fill="none" points="127,40 122,30 "></polyline>  <path stroke="#800" id="svg_12" fill="none" d="m135,35l-5,0"></path>  <polyline stroke="#A00000" id="svg_13" stroke-linecap="round" fill="none" points="108,40 103,30 "></polyline>  <polyline stroke="#A00000" id="svg_14" stroke-linecap="round" fill="none" points="117,40 113,30 "></polyline>  <polyline stroke="#A00000" id="svg_15" stroke-linecap="round" fill="none" points="113,30 108,40 "></polyline>  <polyline stroke="#A00000" id="svg_16" stroke-linecap="round" fill="none" points="103,30 100,35 "></polyline>  <path stroke="#800" id="svg_17" fill="none" d="m95,35l5,0"></path>  <text style="vector-effect: non-scaling-stroke;" id="svg_18" text-anchor="start" fill="#000080" font-size="11pt" font-family="Arial" y="108.59375" x="90.00781">R3=2.2kΩ</text>  <polyline stroke="#A00000" id="svg_19" stroke-linecap="round" fill="none" points="130,120 127,125 "></polyline>  <polyline stroke="#A00000" id="svg_20" stroke-linecap="round" fill="none" points="122,115 117,125 "></polyline>  <polyline stroke="#A00000" id="svg_21" stroke-linecap="round" fill="none" points="127,125 122,115 "></polyline>  <path stroke="#800" id="svg_22" fill="none" d="m135,120l-5,0"></path>  <polyline stroke="#A00000" id="svg_23" stroke-linecap="round" fill="none" points="108,125 103,115 "></polyline>  <polyline stroke="#A00000" id="svg_24" stroke-linecap="round" fill="none" points="117,125 113,115 "></polyline>  <polyline stroke="#A00000" id="svg_25" stroke-linecap="round" fill="none" points="113,115 108,125 "></polyline>  <polyline stroke="#A00000" id="svg_26" stroke-linecap="round" fill="none" points="103,115 100,120 "></polyline>  <text stroke="null" id="svg_27" text-anchor="start" fill="#000080" font-size="11pt" font-family="Arial" y="83.60156" x="180.00781">R2=1kΩ</text>  <polyline stroke="#A00000" id="svg_28" stroke-linecap="round" fill="none" points="170,60 175,63 "></polyline>  <polyline stroke="#A00000" id="svg_29" stroke-linecap="round" fill="none" points="165,68 175,73 "></polyline>  <polyline stroke="#A00000" id="svg_30" stroke-linecap="round" fill="none" points="175,63 165,68 "></polyline>  <path stroke="#800" id="svg_31" fill="none" d="m170,55l0,5"></path>  <polyline stroke="#A00000" id="svg_32" stroke-linecap="round" fill="none" points="175,82 165,87 "></polyline>  <polyline stroke="#A00000" id="svg_33" stroke-linecap="round" fill="none" points="175,73 165,77 "></polyline>  <polyline stroke="#A00000" id="svg_34" stroke-linecap="round" fill="none" points="165,77 175,82 "></polyline>  <polyline stroke="#A00000" id="svg_35" stroke-linecap="round" fill="none" points="165,87 170,90 "></polyline>  <path stroke="#800" id="svg_36" fill="none" d="m170,95l0,-5"></path>  <polyline stroke="#008800" id="svg_37" fill="none" points="35,55 35,35 95,35 "></polyline>  <polyline stroke="#008800" id="svg_38" fill="none" points="95,120 35,120 35,95 "></polyline>  <polyline stroke="#008800" id="svg_39" fill="none" points="135,120 170,120 170,95 "></polyline>  <polyline stroke="#008800" id="svg_40" fill="none" points="170,55 170,35 135,35 "></polyline>  <text stroke="null" id="svg_41" text-anchor="start" fill="#0000FF" font-size="11pt" font-family="Verdana" y="57" x="175">+</text>  <text stroke="null" id="svg_42" text-anchor="start" fill="#0000FF" font-size="11pt" font-family="Verdana" y="99.39063" x="175.8125">─</text>  <text stroke="null" id="svg_43" text-anchor="start" fill="#0000FF" font-size="11pt" font-family="Verdana" y="57" x="90">＋ V1 ─</text>  <text stroke="null" id="svg_44" text-anchor="start" fill="#0000FF" font-size="11pt" font-family="Verdana" y="79.39063" x="140.8125">V2</text>  <text stroke="null" id="svg_45" text-anchor="start" fill="#0000FF" font-size="11pt" font-family="Verdana" y="144.39063" x="95">─ V3 ＋</text>  <polyline stroke="#FF0000" id="svg_46" fill="none" stroke-width="2" points="40,35 75,35 "></polyline>  <polygon stroke="#FF0000" id="svg_47" fill="#FF0000" stroke-width="2" points="70,30 75,35 70,40 80,35 "></polygon>  <text stroke="null" id="svg_48" font-weight="undefined" font-style="undefined" text-anchor="start" fill="#0000FF" font-size="11pt" font-family="Verdana" y="29.8125" x="50">IT</text>  <path id="svg_56" stroke="#800" fill="none" d="m100.34001,119.68l-5,0"></path> </g></svg>