<svg width="270" height="130" xmlns="http://www.w3.org/2000/svg" xmlns:svg="http://www.w3.org/2000/svg"><g><title>Layer 1</title><g ><path  stroke-width="1.5" stroke="#880000" fill="none" d="m50,30l5,0l3,-5l5,10l5,-10l5,10l5,-10l5,10l3,-5l4,0"/><path  stroke-width="1.5" stroke="#880000" fill="none" d="m110,30l5,0l3,-5l5,10l5,-10l5,10l5,-10l5,10l3,-5l4,0"/><path  stroke-width="1.5" stroke="#880000" fill="none" d="m170,50l0,5l5,3l-10,5l10,5l-10,5l10,5l-10,5l5,3l0,4"/><path  stroke-width="1.5" stroke="#880000" fill="none" d="m220,50l0,5l5,3l-10,5l10,5l-10,5l10,5l-10,5l5,3l0,4"/><path  stroke-width="1.5" stroke="#880000" fill="none" d="m150,110l-5,0l-3,5l-5,-10l-5,10l-5,-10l-5,10l-5,-10l-3,5l-4,0"/><path  stroke-width="1.5" stroke="#880000" fill="none" d="m90,110l-5,0l-3,5l-5,-10l-5,10l-5,-10l-5,10l-5,-10l-3,5l-4,0"/><text fill="#0000ff" font-size="14" text-anchor="middle" font-family="serif" stroke="null"  y="20" x="72">20kΩ</text><text fill="#0000ff" font-size="14" text-anchor="middle" font-family="serif" stroke="null"  y="72" x="194">60kΩ</text><text fill="#0000ff" font-size="14" text-anchor="middle" font-family="serif" stroke="null"  y="72" x="244">40kΩ</text><text fill="#0000ff" font-size="14" text-anchor="middle" font-family="serif" stroke="null"  y="21" x="131">16kΩ</text><text fill="#0000ff" font-size="14" text-anchor="middle" font-family="serif" stroke="null"  y="73" x="126">150kΩ</text><text fill="#0000ff" font-size="14" text-anchor="middle" font-family="serif" stroke="null"  y="102" x="130">10kΩ</text><text fill="#0000ff" font-size="14" text-anchor="middle" font-family="serif" stroke="null"  y="102" x="71">2.5kΩ</text><path  stroke-width="1.5" stroke="#880000" fill="none" d="m100,90l0,-5l-5,-3l10,-5l-10,-5l10,-5l-10,-5l10,-5l-5,-3l0,-4"/><polyline  points="90,110 110,110 " stroke-width="1.5" stroke="#000000" fill="none"/><polyline  points="100,110 100,90 " stroke-width="1.5" stroke="#000000" fill="none"/><polyline  points="100,50 100,30 " stroke-width="1.5" stroke="#000000" fill="none"/><polyline  points="90,30 110,30 " stroke-width="1.5" stroke="#000000" fill="none"/><polyline  points="150,110 220,110 220,110 220,90 " stroke-width="1.5" stroke="#000000" fill="none"/><polyline  points="220,50 220,30 220,30 150,30 " stroke-width="1.5" stroke="#000000" fill="none"/><polyline  points="170,50 170,30 " stroke-width="1.5" stroke="#000000" fill="none"/><polyline  points="170,90 170,110 " stroke-width="1.5" stroke="#000000" fill="none"/><polyline  points="50,110 30,110 " stroke-width="1.5" stroke="#000000" fill="none"/><polyline  points="50,30 30,30 " stroke-width="1.5" stroke="#000000" fill="none"/><path  fill="#ffffff" stroke-width="1.5" stroke="#000000" d="m26,30a4,4 0 1 1 8,0a4,4 0 1 1 -8,0"/><path  fill="#ffffff" stroke-width="1.5" stroke="#000000" d="m26,110a4,4 0 1 1 8,0a4,4 0 1 1 -8,0"/><text fill="#0000ff" font-size="14" text-anchor="middle" font-family="serif" stroke="null"  y="33.6" x="18.8">A</text><text fill="#0000ff" font-size="14" text-anchor="middle" font-family="serif" stroke="null"  y="113.6" x="18">B</text><path  fill="sRgb" stroke-width="1.5" stroke="#000000" d="m97,30a3,3 0 1 1 6,0a3,3 0 1 1 -6,0"/><path  fill="sRgb" stroke-width="1.5" stroke="#000000" d="m167,30a3,3 0 1 1 6,0a3,3 0 1 1 -6,0"/><path  fill="sRgb" stroke-width="1.5" stroke="#000000" d="m167,110a3,3 0 1 1 6,0a3,3 0 1 1 -6,0"/><path  fill="sRgb" stroke-width="1.5" stroke="#000000" d="m97,110a3,3 0 1 1 6,0a3,3 0 1 1 -6,0"/></g></g></svg>