<svg  encoding="utf-8" width="250" height="150" xmlns="http://www.w3.org/2000/svg" xmlns:svg="http://www.w3.org/2000/svg"> <!-- Created with SVG-edit - http://svg-edit.googlecode.com/ --> <g stroke="null">  <title>Layer 1</title>  <text stroke="null" id="svg_1" text-anchor="start" fill="#000080" font-size="11pt" font-family="Arial" y="15" x="110">10V</text>  <text stroke="null" id="svg_8" text-anchor="start" fill="#000080" font-size="11pt" font-family="Arial" y="140" x="170">R3</text>  <text id="svg_18" text-anchor="start" fill="#000080" font-size="11pt" font-family="Arial" y="140" x="45">R1</text>  <text stroke="null" id="svg_27" text-anchor="start" fill="#000080" font-size="11pt" font-family="Arial" y="140" x="105">R2</text>  <polyline stroke="#008800" id="svg_37" fill="none" points="10,50 10,30 105,30 "></polyline>  <polyline stroke="#008800" id="svg_38" fill="none" points="35,120 10,120 10,45 "></polyline>  <polyline stroke="#008800" id="svg_39" fill="none" points="195,120 220,120 220,45 "></polyline>  <polyline stroke="#008800" id="svg_40" fill="none" points="220,50 220,30 145,30 "></polyline>  <text stroke="null" id="svg_43" text-anchor="start" fill="#0000FF" font-size="11pt" font-family="Verdana" y="110" x="41.66667">3Ω</text>  <text stroke="null" id="svg_44" text-anchor="start" fill="#0000FF" font-size="11pt" font-family="Verdana" y="55" x="120">E</text>  <g stroke="null" id="svg_49">   <polyline stroke="#000000" id="svg_51" fill="none" points="145,140 145,130 "></polyline>   <polyline stroke="#000000" id="svg_52" fill="none" points="135,140 154,140 "></polyline>   <polyline stroke="#000000" id="svg_53" fill="none" points="139,142 152,142 "></polyline>   <polyline stroke="#000000" id="svg_54" fill="none" points="141,144 148,144 "></polyline>   <polyline stroke="#000000" id="svg_55" fill="none" points="144,146 146,146 "></polyline>  </g>  <g id="svg_91">   <polyline stroke="#A00000" id="svg_19" stroke-linecap="round" fill="none" points="69.80144500732422,119.9302749633789 66.80144882202148,124.9302749633789 "></polyline>   <polyline stroke="#A00000" id="svg_20" stroke-linecap="round" fill="none" points="61.801448822021484,114.9302749633789 56.801448822021484,124.9302749633789 "></polyline>   <polyline stroke="#A00000" id="svg_21" stroke-linecap="round" fill="none" points="66.80144882202148,124.9302749633789 61.801448822021484,114.9302749633789 "></polyline>   <path stroke="#800" id="svg_22" fill="none" d="m74.80145,119.93028l-5,0"></path>   <polyline stroke="#A00000" id="svg_23" stroke-linecap="round" fill="none" points="47.801448822021484,124.9302749633789 42.80144500732422,114.9302749633789 "></polyline>   <polyline stroke="#A00000" id="svg_24" stroke-linecap="round" fill="none" points="56.801448822021484,124.9302749633789 52.801448822021484,114.9302749633789 "></polyline>   <polyline stroke="#A00000" id="svg_25" stroke-linecap="round" fill="none" points="52.801448822021484,114.9302749633789 47.801448822021484,124.9302749633789 "></polyline>   <polyline stroke="#A00000" id="svg_26" stroke-linecap="round" fill="none" points="42.80144500732422,114.9302749633789 39.80144500732422,119.9302749633789 "></polyline>   <path id="svg_56" stroke="#800" fill="none" d="m40.14146,120.04069l-5,0"></path>  </g>  <line id="svg_102" y2="120" x2="95" y1="120" x1="75" stroke-linecap="null" stroke-linejoin="null" stroke-dasharray="null" stroke-width="null" stroke="#008800" fill="none"></line>  <line id="svg_104" y2="120" x2="155" y1="120" x1="135" stroke-linecap="null" stroke-linejoin="null" stroke-dasharray="null" stroke-width="null" stroke="#008800" fill="none"></line>  <g id="svg_105">   <polyline id="svg_106" stroke="#A00000" stroke-linecap="round" fill="none" points="129.82669067382812,119.94366455078125 126.82669067382812,124.94366455078125 "></polyline>   <polyline id="svg_107" stroke="#A00000" stroke-linecap="round" fill="none" points="121.82669067382812,114.94366455078125 116.82669067382812,124.94366455078125 "></polyline>   <polyline id="svg_108" stroke="#A00000" stroke-linecap="round" fill="none" points="126.82669067382812,124.94366455078125 121.82669067382812,114.94366455078125 "></polyline>   <path id="svg_109" stroke="#800" fill="none" d="m134.82668,119.94367l-5,0"></path>   <polyline id="svg_110" stroke="#A00000" stroke-linecap="round" fill="none" points="107.82669067382812,124.94366455078125 102.82669067382812,114.94366455078125 "></polyline>   <polyline id="svg_111" stroke="#A00000" stroke-linecap="round" fill="none" points="116.82669067382812,124.94366455078125 112.82669067382812,114.94366455078125 "></polyline>   <polyline id="svg_112" stroke="#A00000" stroke-linecap="round" fill="none" points="112.82669067382812,114.94366455078125 107.82669067382812,124.94366455078125 "></polyline>   <polyline id="svg_113" stroke="#A00000" stroke-linecap="round" fill="none" points="102.82669067382812,114.94366455078125 99.82669067382812,119.94366455078125 "></polyline>   <path id="svg_114" stroke="#800" fill="none" d="m100.16669,120.05408l-5,0"></path>  </g>  <g id="svg_115">   <polyline id="svg_116" stroke="#A00000" stroke-linecap="round" fill="none" points="189.96917724609375,119.9138412475586 186.96917724609375,124.9138412475586 "></polyline>   <polyline id="svg_117" stroke="#A00000" stroke-linecap="round" fill="none" points="181.96917724609375,114.9138412475586 176.96917724609375,124.9138412475586 "></polyline>   <polyline id="svg_118" stroke="#A00000" stroke-linecap="round" fill="none" points="186.96917724609375,124.9138412475586 181.96917724609375,114.9138412475586 "></polyline>   <path id="svg_119" stroke="#800" fill="none" d="m194.96916,119.91385l-5,0"></path>   <polyline id="svg_120" stroke="#A00000" stroke-linecap="round" fill="none" points="167.96917724609375,124.9138412475586 162.96917724609375,114.9138412475586 "></polyline>   <polyline id="svg_121" stroke="#A00000" stroke-linecap="round" fill="none" points="176.96917724609375,124.9138412475586 172.96917724609375,114.9138412475586 "></polyline>   <polyline id="svg_122" stroke="#A00000" stroke-linecap="round" fill="none" points="172.96917724609375,114.9138412475586 167.96917724609375,124.9138412475586 "></polyline>   <polyline id="svg_123" stroke="#A00000" stroke-linecap="round" fill="none" points="162.96917724609375,114.9138412475586 159.9691619873047,119.9138412475586 "></polyline>   <path id="svg_124" stroke="#800" fill="none" d="m160.30917,120.02426l-5,0"></path>  </g>  <g transform="rotate(-90 115,29.99999999999999) " id="svg_125">   <path stroke="#880000" id="svg_2" fill="none" d="m115,20l0,10"></path>   <path stroke="#880000" id="svg_3" fill="none" d="m115,60l0,-10"></path>   <polyline stroke="#880000" id="svg_4" stroke-linecap="round" fill="none" stroke-width="2" points="105,42.5 125,42.5 "></polyline>   <polyline stroke="#880000" id="svg_5" stroke-linecap="round" fill="none" stroke-width="2" points="105,31 125,31 "></polyline>   <polyline stroke="#880000" id="svg_6" stroke-linecap="round" fill="none" stroke-width="2" points="109,36.5 121,36.5 "></polyline>   <polyline stroke="#880000" id="svg_7" stroke-linecap="round" fill="none" stroke-width="2" points="109,49 121,49 "></polyline>  </g>  <text id="svg_126" stroke="null" text-anchor="start" fill="#0000FF" font-size="11pt" font-family="Verdana" y="110" x="105">4Ω</text>  <text id="svg_127" stroke="null" text-anchor="start" fill="#0000FF" font-size="11pt" font-family="Verdana" y="110" x="165">3Ω</text>  <line stroke="#008800" id="svg_128" y2="120" x2="145" y1="131.66667" x1="145" stroke-linecap="null" stroke-linejoin="null" stroke-dasharray="null" stroke-width="null" fill="none"></line>  <text id="svg_130" stroke="null" text-anchor="start" fill="#ff0000" font-size="11pt" font-family="Verdana" y="137.5" x="215.5">A</text>  <text id="svg_131" stroke="null" text-anchor="start" fill="#ff0000" font-size="11pt" font-family="Verdana" y="134" x="153.5">B</text>  <text id="svg_132" stroke="null" text-anchor="start" fill="#ff0000" font-size="11pt" font-family="Verdana" y="136" x="79">C</text>  <text id="svg_133" stroke="null" text-anchor="start" fill="#ff0000" font-size="11pt" font-family="Verdana" y="136.5" x="5">D</text>  <ellipse cx="10" cy="120" stroke="#000000" fill="#000000" id="svg_9" rx="2" ry="2"></ellipse>  <ellipse cx="85" cy="120" stroke="#000000" fill="#000000" id="svg_9" rx="2" ry="2"></ellipse>  <ellipse cx="145" cy="120" stroke="#000000" fill="#000000" id="svg_9" rx="2" ry="2"></ellipse>  <ellipse cx="220" cy="120" stroke="#000000" fill="#000000" id="svg_9" rx="2" ry="2"></ellipse> </g></svg>