<svg width="140" height="180" xmlns="http://www.w3.org/2000/svg" xmlns:svg="http://www.w3.org/2000/svg"><g><title>Layer 1</title><path  stroke-width="1.5" stroke="#880000" fill="none" d="m50,30l5,0l3,-5l5,10l5,-10l5,10l5,-10l5,10l3,-5l4,0"/><path  stroke-width="1.5" stroke="#880000" fill="none" d="m120,50l0,5l5,3l-10,5l10,5l-10,5l10,5l-10,5l5,3l0,4"/><path  stroke-width="1.5" stroke="#880000" fill="none" d="m120,110l0,5l5,3l-10,5l10,5l-10,5l10,5l-10,5l5,3l0,4"/><path  stroke-width="1.5" stroke="#880000" fill="none" d="m30,80l0,17m10,0l-20,0m5,6l10,0m-5,0l0,17"/><polyline  points="90,30 120,30 120,30 120,50 " stroke-width="1.5" stroke="#000000" fill="none"/><polyline  points="120,90 120,110 " stroke-width="1.5" stroke="#000000" fill="none"/><polyline  points="120,150 120,170 120,170 30,170 " stroke-width="1.5" stroke="#000000" fill="none"/><polyline  points="30,80 30,30 30,30 50,30 " stroke-width="1.5" stroke="#000000" fill="none"/><polyline  points="30,170 30,120 " stroke-width="1.5" stroke="#000000" fill="none"/><text fill="#0000ff" font-size="14" text-anchor="middle" font-family="serif" stroke="null"  y="70" x="20">I</text><text text-anchor="middle" font-family="serif" stroke="null"  y="50" x="70"><tspan fill="#0000ff" font-size="14" >R</tspan><tspan fill="#0000ff" font-size="12" dy="2" >1</tspan></text><text text-anchor="middle" font-family="serif" stroke="null"  y="70" x="100"><tspan fill="#0000ff" font-size="14" >R</tspan><tspan fill="#0000ff" font-size="12" dy="2" >2</tspan></text><text text-anchor="middle" font-family="serif" stroke="null"  y="130" x="100"><tspan fill="#0000ff" font-size="14" >R</tspan><tspan fill="#0000ff" font-size="12" dy="2" >3</tspan></text><path  stroke-width="1.5" stroke="#ff0000" d="m38,19l10,0m-5,-5l0,10"/><path  stroke-width="1.5" stroke="#ff0000" d="m97,20l-10,0"/><text text-anchor="middle" font-family="serif" stroke="null"  y="20" x="70"><tspan fill="#0000ff" font-size="14" >V</tspan><tspan fill="#0000ff" font-size="12" dy="2" >1</tspan></text><path  fill="#ff0000" stroke-width="1.5" stroke="#ff0000" d="m30,70l0,-20l-4,10l4,-5l4,5l-4,-10"/><text fill="#0000ff" font-size="14" text-anchor="middle" font-family="serif" stroke="null"  y="110" x="60">28V</text></g></svg>